<svg version="1.1" viewBox="0.0 0.0 600.0 371.0" fill="none" stroke="none" stroke-linecap="square" stroke-miterlimit="10" width="600" height="371" xmlns:xlink="http://www.w3.org/1999/xlink" xmlns="http://www.w3.org/2000/svg"><path fill="#ffffff" d="M0 0L600.0 0L600.0 371.0L0 371.0L0 0Z" fill-rule="nonzero"/><path stroke="#333333" stroke-width="1.0" stroke-linecap="butt" d="M115.5 18.5L115.5 317.5" fill-rule="nonzero"/><path stroke="#cccccc" stroke-width="1.0" stroke-linecap="butt" d="M174.5 18.5L174.5 317.5" fill-rule="nonzero"/><path stroke="#cccccc" stroke-width="1.0" stroke-linecap="butt" d="M232.5 18.5L232.5 317.5" fill-rule="nonzero"/><path stroke="#cccccc" stroke-width="1.0" stroke-linecap="butt" d="M290.5 18.5L290.5 317.5" fill-rule="nonzero"/><path stroke="#cccccc" stroke-width="1.0" stroke-linecap="butt" d="M348.5 18.5L348.5 317.5" fill-rule="nonzero"/><path stroke="#cccccc" stroke-width="1.0" stroke-linecap="butt" d="M406.5 18.5L406.5 317.5" fill-rule="nonzero"/><path stroke="#cccccc" stroke-width="1.0" stroke-linecap="butt" d="M465.5 18.5L465.5 317.5" fill-rule="nonzero"/><path stroke="#cccccc" stroke-width="1.0" stroke-linecap="butt" d="M523.5 18.5L523.5 317.5" fill-rule="nonzero"/><path stroke="#cccccc" stroke-width="1.0" stroke-linecap="butt" d="M581.5 18.5L581.5 317.5" fill-rule="nonzero"/><clipPath id="id_0"><path d="M115.913635 18.55L581.45 18.55L581.45 317.5L115.913635 317.5L115.913635 18.55Z" clip-rule="nonzero"/></clipPath><path stroke="#000000" stroke-width="2.0" stroke-linecap="butt" stroke-opacity="0.0" clip-path="url(#id_0)" d="M116.0 45.0L116.0 28.0L116.0 28.0L116.0 45.0Z" fill-rule="nonzero"/><path fill="#000000" fill-opacity="0.0" clip-path="url(#id_0)" d="M116.0 45.0L116.0 28.0L116.0 28.0L116.0 45.0Z" fill-rule="nonzero"/><path stroke="#000000" stroke-width="2.0" stroke-linecap="butt" stroke-opacity="0.0" clip-path="url(#id_0)" d="M116.0 72.0L116.0 55.0L126.0 55.0L126.0 72.0Z" fill-rule="nonzero"/><path fill="#000000" fill-opacity="0.0" clip-path="url(#id_0)" d="M116.0 72.0L116.0 55.0L126.0 55.0L126.0 72.0Z" fill-rule="nonzero"/><path stroke="#000000" stroke-width="2.0" stroke-linecap="butt" stroke-opacity="0.0" clip-path="url(#id_0)" d="M116.0 98.0L116.0 81.0L184.0 81.0L184.0 98.0Z" fill-rule="nonzero"/><path fill="#000000" fill-opacity="0.0" clip-path="url(#id_0)" d="M116.0 98.0L116.0 81.0L184.0 81.0L184.0 98.0Z" fill-rule="nonzero"/><path stroke="#000000" stroke-width="2.0" stroke-linecap="butt" stroke-opacity="0.0" clip-path="url(#id_0)" d="M116.0 124.0L116.0 107.0L184.0 107.0L184.0 124.0Z" fill-rule="nonzero"/><path fill="#000000" fill-opacity="0.0" clip-path="url(#id_0)" d="M116.0 124.0L116.0 107.0L184.0 107.0L184.0 124.0Z" fill-rule="nonzero"/><path stroke="#000000" stroke-width="2.0" stroke-linecap="butt" stroke-opacity="0.0" clip-path="url(#id_0)" d="M116.0 151.0L116.0 134.0L261.0 134.0L261.0 151.0Z" fill-rule="nonzero"/><path fill="#000000" fill-opacity="0.0" clip-path="url(#id_0)" d="M116.0 151.0L116.0 134.0L261.0 134.0L261.0 151.0Z" fill-rule="nonzero"/><path stroke="#000000" stroke-width="2.0" stroke-linecap="butt" stroke-opacity="0.0" clip-path="url(#id_0)" d="M116.0 177.0L116.0 160.0L126.0 160.0L126.0 177.0Z" fill-rule="nonzero"/><path fill="#000000" fill-opacity="0.0" clip-path="url(#id_0)" d="M116.0 177.0L116.0 160.0L126.0 160.0L126.0 177.0Z" fill-rule="nonzero"/><path stroke="#000000" stroke-width="2.0" stroke-linecap="butt" stroke-opacity="0.0" clip-path="url(#id_0)" d="M116.0 203.0L116.0 186.0L320.0 186.0L320.0 203.0Z" fill-rule="nonzero"/><path fill="#000000" fill-opacity="0.0" clip-path="url(#id_0)" d="M116.0 203.0L116.0 186.0L320.0 186.0L320.0 203.0Z" fill-rule="nonzero"/><path stroke="#000000" stroke-width="2.0" stroke-linecap="butt" stroke-opacity="0.0" clip-path="url(#id_0)" d="M116.0 230.0L116.0 213.0L320.0 213.0L320.0 230.0Z" fill-rule="nonzero"/><path fill="#000000" fill-opacity="0.0" clip-path="url(#id_0)" d="M116.0 230.0L116.0 213.0L320.0 213.0L320.0 230.0Z" fill-rule="nonzero"/><path stroke="#000000" stroke-width="2.0" stroke-linecap="butt" stroke-opacity="0.0" clip-path="url(#id_0)" d="M116.0 256.0L116.0 239.0L436.0 239.0L436.0 256.0Z" fill-rule="nonzero"/><path fill="#000000" fill-opacity="0.0" clip-path="url(#id_0)" d="M116.0 256.0L116.0 239.0L436.0 239.0L436.0 256.0Z" fill-rule="nonzero"/><path stroke="#000000" stroke-width="2.0" stroke-linecap="butt" stroke-opacity="0.0" clip-path="url(#id_0)" d="M116.0 282.0L116.0 265.0L572.0 265.0L572.0 282.0Z" fill-rule="nonzero"/><path fill="#000000" fill-opacity="0.0" clip-path="url(#id_0)" d="M116.0 282.0L116.0 265.0L572.0 265.0L572.0 282.0Z" fill-rule="nonzero"/><path stroke="#000000" stroke-width="2.0" stroke-linecap="butt" stroke-opacity="0.0" clip-path="url(#id_0)" d="M116.0 309.0L116.0 292.0L116.0 292.0L116.0 309.0Z" fill-rule="nonzero"/><path fill="#000000" fill-opacity="0.0" clip-path="url(#id_0)" d="M116.0 309.0L116.0 292.0L116.0 292.0L116.0 309.0Z" fill-rule="nonzero"/><path stroke="#000000" stroke-width="2.0" stroke-linecap="butt" stroke-opacity="0.0" clip-path="url(#id_0)" d="M116.0 45.0L116.0 28.0L579.0 28.0C580.10455 28.0 581.0 28.89543 581.0 30.0L581.0 43.0C581.0 44.10457 580.10455 45.0 579.0 45.0Z" fill-rule="nonzero"/><path fill="#7575ff" clip-path="url(#id_0)" d="M116.0 45.0L116.0 28.0L579.0 28.0C580.10455 28.0 581.0 28.89543 581.0 30.0L581.0 43.0C581.0 44.10457 580.10455 45.0 579.0 45.0Z" fill-rule="nonzero"/><path stroke="#000000" stroke-width="2.0" stroke-linecap="butt" stroke-opacity="0.0" clip-path="url(#id_0)" d="M126.0 72.0L126.0 55.0L182.0 55.0C183.10457 55.0 184.0 55.89543 184.0 57.0L184.0 70.0C184.0 71.10457 183.10457 72.0 182.0 72.0Z" fill-rule="nonzero"/><path fill="#ea9999" clip-path="url(#id_0)" d="M126.0 72.0L126.0 55.0L182.0 55.0C183.10457 55.0 184.0 55.89543 184.0 57.0L184.0 70.0C184.0 71.10457 183.10457 72.0 182.0 72.0Z" fill-rule="nonzero"/><path stroke="#000000" stroke-width="2.0" stroke-linecap="butt" stroke-opacity="0.0" clip-path="url(#id_0)" d="M184.0 98.0L184.0 81.0L185.0 81.0C185.55229 81.0 186.0 81.447716 186.0 82.0L186.0 97.0C186.0 97.552284 185.55229 98.0 185.0 98.0Z" fill-rule="nonzero"/><path fill="#b7b7b7" clip-path="url(#id_0)" d="M184.0 98.0L184.0 81.0L185.0 81.0C185.55229 81.0 186.0 81.447716 186.0 82.0L186.0 97.0C186.0 97.552284 185.55229 98.0 185.0 98.0Z" fill-rule="nonzero"/><path stroke="#000000" stroke-width="2.0" stroke-linecap="butt" stroke-opacity="0.0" clip-path="url(#id_0)" d="M184.0 124.0L184.0 107.0L259.0 107.0C260.10458 107.0 261.0 107.89543 261.0 109.0L261.0 122.0C261.0 123.10457 260.10458 124.0 259.0 124.0Z" fill-rule="nonzero"/><path fill="#ea9999" clip-path="url(#id_0)" d="M184.0 124.0L184.0 107.0L259.0 107.0C260.10458 107.0 261.0 107.89543 261.0 109.0L261.0 122.0C261.0 123.10457 260.10458 124.0 259.0 124.0Z" fill-rule="nonzero"/><path stroke="#000000" stroke-width="2.0" stroke-linecap="butt" stroke-opacity="0.0" clip-path="url(#id_0)" d="M261.0 151.0L261.0 134.0L262.0 134.0C262.55228 134.0 263.0 134.44771 263.0 135.0L263.0 150.0C263.0 150.55229 262.55228 151.0 262.0 151.0Z" fill-rule="nonzero"/><path fill="#b7b7b7" clip-path="url(#id_0)" d="M261.0 151.0L261.0 134.0L262.0 134.0C262.55228 134.0 263.0 134.44771 263.0 135.0L263.0 150.0C263.0 150.55229 262.55228 151.0 262.0 151.0Z" fill-rule="nonzero"/><path stroke="#000000" stroke-width="2.0" stroke-linecap="butt" stroke-opacity="0.0" clip-path="url(#id_0)" d="M126.0 177.0L126.0 160.0L318.0 160.0C319.10458 160.0 320.0 160.89543 320.0 162.0L320.0 175.0C320.0 176.10457 319.10458 177.0 318.0 177.0Z" fill-rule="nonzero"/><path fill="#ea9999" clip-path="url(#id_0)" d="M126.0 177.0L126.0 160.0L318.0 160.0C319.10458 160.0 320.0 160.89543 320.0 162.0L320.0 175.0C320.0 176.10457 319.10458 177.0 318.0 177.0Z" fill-rule="nonzero"/><path stroke="#000000" stroke-width="2.0" stroke-linecap="butt" stroke-opacity="0.0" clip-path="url(#id_0)" d="M320.0 203.0L320.0 186.0L321.0 186.0C321.55228 186.0 322.0 186.44771 322.0 187.0L322.0 202.0C322.0 202.55229 321.55228 203.0 321.0 203.0Z" fill-rule="nonzero"/><path fill="#b7b7b7" clip-path="url(#id_0)" d="M320.0 203.0L320.0 186.0L321.0 186.0C321.55228 186.0 322.0 186.44771 322.0 187.0L322.0 202.0C322.0 202.55229 321.55228 203.0 321.0 203.0Z" fill-rule="nonzero"/><path stroke="#000000" stroke-width="2.0" stroke-linecap="butt" stroke-opacity="0.0" clip-path="url(#id_0)" d="M320.0 230.0L320.0 213.0L570.0 213.0C571.10455 213.0 572.0 213.89543 572.0 215.0L572.0 228.0C572.0 229.10457 571.10455 230.0 570.0 230.0Z" fill-rule="nonzero"/><path fill="#ea9999" clip-path="url(#id_0)" d="M320.0 230.0L320.0 213.0L570.0 213.0C571.10455 213.0 572.0 213.89543 572.0 215.0L572.0 228.0C572.0 229.10457 571.10455 230.0 570.0 230.0Z" fill-rule="nonzero"/><path stroke="#000000" stroke-width="2.0" stroke-linecap="butt" stroke-opacity="0.0" clip-path="url(#id_0)" d="M436.0 256.0L436.0 239.0L437.0 239.0C437.55228 239.0 438.0 239.44771 438.0 240.0L438.0 255.0C438.0 255.55229 437.55228 256.0 437.0 256.0Z" fill-rule="nonzero"/><path fill="#b7b7b7" clip-path="url(#id_0)" d="M436.0 256.0L436.0 239.0L437.0 239.0C437.55228 239.0 438.0 239.44771 438.0 240.0L438.0 255.0C438.0 255.55229 437.55228 256.0 437.0 256.0Z" fill-rule="nonzero"/><path stroke="#000000" stroke-width="2.0" stroke-linecap="butt" stroke-opacity="0.0" clip-path="url(#id_0)" d="M572.0 282.0L572.0 265.0L573.0 265.0C573.5523 265.0 574.0 265.44772 574.0 266.0L574.0 281.0C574.0 281.55228 573.5523 282.0 573.0 282.0Z" fill-rule="nonzero"/><path fill="#b7b7b7" clip-path="url(#id_0)" d="M572.0 282.0L572.0 265.0L573.0 265.0C573.5523 265.0 574.0 265.44772 574.0 266.0L574.0 281.0C574.0 281.55228 573.5523 282.0 573.0 282.0Z" fill-rule="nonzero"/><path stroke="#000000" stroke-width="2.0" stroke-linecap="butt" stroke-opacity="0.0" clip-path="url(#id_0)" d="M116.0 309.0L116.0 292.0L579.0 292.0C580.10455 292.0 581.0 292.89542 581.0 294.0L581.0 307.0C581.0 308.10458 580.10455 309.0 579.0 309.0Z" fill-rule="nonzero"/><path fill="#7575ff" clip-path="url(#id_0)" d="M116.0 309.0L116.0 292.0L579.0 292.0C580.10455 292.0 581.0 292.89542 581.0 294.0L581.0 307.0C581.0 308.10458 580.10455 309.0 579.0 309.0Z" fill-rule="nonzero"/><path stroke="#ffffff" stroke-width="3.0" stroke-linejoin="round" stroke-linecap="round" d="M599.7469 40.5L594.15314 40.5L594.15314 39.71875L597.10626 36.4375Q597.7625 35.6875 598.0125 35.234375Q598.2625 34.765625 598.2625 34.265625Q598.2625 33.59375 597.85626 33.171875Q597.46564 32.734375 596.77814 32.734375Q595.98126 32.734375 595.52814 33.203125Q595.075 33.65625 595.075 34.484375L593.9969 34.484375Q593.9969 33.296875 594.7469 32.578125Q595.5125 31.84375 596.77814 31.84375Q597.98126 31.84375 598.66876 32.46875Q599.35626 33.09375 599.35626 34.140625Q599.35626 35.390625 597.7469 37.140625L595.46564 39.609375L599.7469 39.609375L599.7469 40.5ZM605.73126 37.640625L606.91876 37.640625L606.91876 38.515625L605.73126 38.515625L605.73126 40.5L604.65314 40.5L604.65314 38.515625L600.7625 38.515625L600.7625 37.875L604.575 31.96875L605.73126 31.96875L605.73126 37.640625ZM601.9969 37.640625L604.65314 37.640625L604.65314 33.453125L604.5125 33.6875L601.9969 37.640625Z" fill-rule="nonzero"/><path fill="#7575ff" d="M599.7469 40.5L594.15314 40.5L594.15314 39.71875L597.10626 36.4375Q597.7625 35.6875 598.0125 35.234375Q598.2625 34.765625 598.2625 34.265625Q598.2625 33.59375 597.85626 33.171875Q597.46564 32.734375 596.77814 32.734375Q595.98126 32.734375 595.52814 33.203125Q595.075 33.65625 595.075 34.484375L593.9969 34.484375Q593.9969 33.296875 594.7469 32.578125Q595.5125 31.84375 596.77814 31.84375Q597.98126 31.84375 598.66876 32.46875Q599.35626 33.09375 599.35626 34.140625Q599.35626 35.390625 597.7469 37.140625L595.46564 39.609375L599.7469 39.609375L599.7469 40.5ZM605.73126 37.640625L606.91876 37.640625L606.91876 38.515625L605.73126 38.515625L605.73126 40.5L604.65314 40.5L604.65314 38.515625L600.7625 38.515625L600.7625 37.875L604.575 31.96875L605.73126 31.96875L605.73126 37.640625ZM601.9969 37.640625L604.65314 37.640625L604.65314 33.453125L604.5125 33.6875L601.9969 37.640625Z" fill-rule="nonzero"/><path stroke="#ffffff" stroke-width="3.0" stroke-linejoin="round" stroke-linecap="round" d="M198.0856 62.703125L198.8981 62.703125Q199.67935 62.6875 200.11685 62.296875Q200.55435 61.90625 200.55435 61.234375Q200.55435 59.734375 199.05435 59.734375Q198.35123 59.734375 197.92935 60.140625Q197.5231 60.546875 197.5231 61.203125L196.42935 61.203125Q196.42935 60.1875 197.16373 59.515625Q197.91373 58.84375 199.05435 58.84375Q200.25748 58.84375 200.94498 59.484375Q201.63248 60.125 201.63248 61.265625Q201.63248 61.828125 201.2731 62.34375Q200.91373 62.859375 200.28873 63.125Q200.99185 63.34375 201.36685 63.859375Q201.75748 64.375 201.75748 65.125Q201.75748 66.265625 201.00748 66.953125Q200.25748 67.625 199.05435 67.625Q197.86685 67.625 197.10123 66.96875Q196.35123 66.3125 196.35123 65.25L197.44498 65.25Q197.44498 65.921875 197.88248 66.328125Q198.31998 66.734375 199.06998 66.734375Q199.85123 66.734375 200.25748 66.328125Q200.67935 65.90625 200.67935 65.140625Q200.67935 64.40625 200.22623 64.015625Q199.7731 63.609375 198.8981 63.59375L198.0856 63.59375L198.0856 62.703125Z" fill-rule="nonzero"/><path fill="#ea9999" d="M198.0856 62.703125L198.8981 62.703125Q199.67935 62.6875 200.11685 62.296875Q200.55435 61.90625 200.55435 61.234375Q200.55435 59.734375 199.05435 59.734375Q198.35123 59.734375 197.92935 60.140625Q197.5231 60.546875 197.5231 61.203125L196.42935 61.203125Q196.42935 60.1875 197.16373 59.515625Q197.91373 58.84375 199.05435 58.84375Q200.25748 58.84375 200.94498 59.484375Q201.63248 60.125 201.63248 61.265625Q201.63248 61.828125 201.2731 62.34375Q200.91373 62.859375 200.28873 63.125Q200.99185 63.34375 201.36685 63.859375Q201.75748 64.375 201.75748 65.125Q201.75748 66.265625 201.00748 66.953125Q200.25748 67.625 199.05435 67.625Q197.86685 67.625 197.10123 66.96875Q196.35123 66.3125 196.35123 65.25L197.44498 65.25Q197.44498 65.921875 197.88248 66.328125Q198.31998 66.734375 199.06998 66.734375Q199.85123 66.734375 200.25748 66.328125Q200.67935 65.90625 200.67935 65.140625Q200.67935 64.40625 200.22623 64.015625Q199.7731 63.609375 198.8981 63.59375L198.0856 63.59375L198.0856 62.703125Z" fill-rule="nonzero"/><path stroke="#ffffff" stroke-width="3.0" stroke-linejoin="round" stroke-linecap="round" d="M203.8066 89.859375Q203.8066 91.765625 203.15034 92.703125Q202.50972 93.625 201.1191 93.625Q199.75972 93.625 199.10347 92.71875Q198.44722 91.8125 198.41597 90.0L198.41597 88.5625Q198.41597 86.671875 199.0566 85.765625Q199.71284 84.84375 201.10347 84.84375Q202.47847 84.84375 203.13472 85.734375Q203.79097 86.609375 203.8066 88.453125L203.8066 89.859375ZM202.71284 88.375Q202.71284 87.0 202.32222 86.375Q201.94722 85.734375 201.10347 85.734375Q200.27534 85.734375 199.88472 86.375Q199.50972 87.0 199.50972 88.296875L199.50972 90.03125Q199.50972 91.40625 199.90034 92.078125Q200.3066 92.734375 201.1191 92.734375Q201.91597 92.734375 202.3066 92.109375Q202.69722 91.484375 202.71284 90.15625L202.71284 88.375ZM205.52534 95.203125L204.91597 94.78125Q205.46284 94.015625 205.4941 93.1875L205.4941 92.21875L206.5566 92.21875L206.5566 93.0625Q206.5566 93.65625 206.25972 94.25Q205.96284 94.84375 205.52534 95.203125ZM211.00972 93.5L209.9316 93.5L209.9316 86.28125L207.7441 87.078125L207.7441 86.09375L210.85347 84.921875L211.00972 84.921875L211.00972 93.5Z" fill-rule="nonzero"/><path fill="#b7b7b7" d="M203.8066 89.859375Q203.8066 91.765625 203.15034 92.703125Q202.50972 93.625 201.1191 93.625Q199.75972 93.625 199.10347 92.71875Q198.44722 91.8125 198.41597 90.0L198.41597 88.5625Q198.41597 86.671875 199.0566 85.765625Q199.71284 84.84375 201.10347 84.84375Q202.47847 84.84375 203.13472 85.734375Q203.79097 86.609375 203.8066 88.453125L203.8066 89.859375ZM202.71284 88.375Q202.71284 87.0 202.32222 86.375Q201.94722 85.734375 201.10347 85.734375Q200.27534 85.734375 199.88472 86.375Q199.50972 87.0 199.50972 88.296875L199.50972 90.03125Q199.50972 91.40625 199.90034 92.078125Q200.3066 92.734375 201.1191 92.734375Q201.91597 92.734375 202.3066 92.109375Q202.69722 91.484375 202.71284 90.15625L202.71284 88.375ZM205.52534 95.203125L204.91597 94.78125Q205.46284 94.015625 205.4941 93.1875L205.4941 92.21875L206.5566 92.21875L206.5566 93.0625Q206.5566 93.65625 206.25972 94.25Q205.96284 94.84375 205.52534 95.203125ZM211.00972 93.5L209.9316 93.5L209.9316 86.28125L207.7441 87.078125L207.7441 86.09375L210.85347 84.921875L211.00972 84.921875L211.00972 93.5Z" fill-rule="nonzero"/><path stroke="#ffffff" stroke-width="3.0" stroke-linejoin="round" stroke-linecap="round" d="M278.675 116.640625L279.8625 116.640625L279.8625 117.515625L278.675 117.515625L278.675 119.5L277.59686 119.5L277.59686 117.515625L273.70624 117.515625L273.70624 116.875L277.51874 110.96875L278.675 110.96875L278.675 116.640625ZM274.9406 116.640625L277.59686 116.640625L277.59686 112.453125L277.45624 112.6875L274.9406 116.640625Z" fill-rule="nonzero"/><path fill="#ea9999" d="M278.675 116.640625L279.8625 116.640625L279.8625 117.515625L278.675 117.515625L278.675 119.5L277.59686 119.5L277.59686 117.515625L273.70624 117.515625L273.70624 116.875L277.51874 110.96875L278.675 110.96875L278.675 116.640625ZM274.9406 116.640625L277.59686 116.640625L277.59686 112.453125L277.45624 112.6875L274.9406 116.640625Z" fill-rule="nonzero"/><path stroke="#ffffff" stroke-width="3.0" stroke-linejoin="round" stroke-linecap="round" d="M281.396 142.85938Q281.396 144.76562 280.73975 145.70312Q280.09912 146.625 278.7085 146.625Q277.34912 146.625 276.69287 145.71875Q276.03662 144.8125 276.00537 143.0L276.00537 141.5625Q276.00537 139.67188 276.646 138.76562Q277.30225 137.84375 278.69287 137.84375Q280.06787 137.84375 280.72412 138.73438Q281.38037 139.60938 281.396 141.45312L281.396 142.85938ZM280.30225 141.375Q280.30225 140.0 279.91162 139.375Q279.53662 138.73438 278.69287 138.73438Q277.86475 138.73438 277.47412 139.375Q277.09912 140.0 277.09912 141.29688L277.09912 143.03125Q277.09912 144.40625 277.48975 145.07812Q277.896 145.73438 278.7085 145.73438Q279.50537 145.73438 279.896 145.10938Q280.28662 144.48438 280.30225 143.15625L280.30225 141.375ZM283.11475 148.20312L282.50537 147.78125Q283.05225 147.01562 283.0835 146.1875L283.0835 145.21875L284.146 145.21875L284.146 146.0625Q284.146 146.65625 283.84912 147.25Q283.55225 147.84375 283.11475 148.20312ZM288.59912 146.5L287.521 146.5L287.521 139.28125L285.3335 140.07812L285.3335 139.09375L288.44287 137.92188L288.59912 137.92188L288.59912 146.5Z" fill-rule="nonzero"/><path fill="#b7b7b7" d="M281.396 142.85938Q281.396 144.76562 280.73975 145.70312Q280.09912 146.625 278.7085 146.625Q277.34912 146.625 276.69287 145.71875Q276.03662 144.8125 276.00537 143.0L276.00537 141.5625Q276.00537 139.67188 276.646 138.76562Q277.30225 137.84375 278.69287 137.84375Q280.06787 137.84375 280.72412 138.73438Q281.38037 139.60938 281.396 141.45312L281.396 142.85938ZM280.30225 141.375Q280.30225 140.0 279.91162 139.375Q279.53662 138.73438 278.69287 138.73438Q277.86475 138.73438 277.47412 139.375Q277.09912 140.0 277.09912 141.29688L277.09912 143.03125Q277.09912 144.40625 277.48975 145.07812Q277.896 145.73438 278.7085 145.73438Q279.50537 145.73438 279.896 145.10938Q280.28662 144.48438 280.30225 143.15625L280.30225 141.375ZM283.11475 148.20312L282.50537 147.78125Q283.05225 147.01562 283.0835 146.1875L283.0835 145.21875L284.146 145.21875L284.146 146.0625Q284.146 146.65625 283.84912 147.25Q283.55225 147.84375 283.11475 148.20312ZM288.59912 146.5L287.521 146.5L287.521 139.28125L285.3335 140.07812L285.3335 139.09375L288.44287 137.92188L288.59912 137.92188L288.59912 146.5Z" fill-rule="nonzero"/><path stroke="#ffffff" stroke-width="3.0" stroke-linejoin="round" stroke-linecap="round" d="M335.8514 172.5L334.7733 172.5L334.7733 165.28125L332.5858 166.07812L332.5858 165.09375L335.69516 163.92188L335.8514 163.92188L335.8514 172.5ZM344.6483 168.85938Q344.6483 170.76562 343.99203 171.70312Q343.3514 172.625 341.9608 172.625Q340.6014 172.625 339.94516 171.71875Q339.2889 170.8125 339.25766 169.0L339.25766 167.5625Q339.25766 165.67188 339.8983 164.76562Q340.55453 163.84375 341.94516 163.84375Q343.32016 163.84375 343.9764 164.73438Q344.63266 165.60938 344.6483 167.45312L344.6483 168.85938ZM343.55453 167.375Q343.55453 166.0 343.1639 165.375Q342.7889 164.73438 341.94516 164.73438Q341.11703 164.73438 340.7264 165.375Q340.3514 166.0 340.3514 167.29688L340.3514 169.03125Q340.3514 170.40625 340.74203 171.07812Q341.1483 171.73438 341.9608 171.73438Q342.75766 171.73438 343.1483 171.10938Q343.5389 170.48438 343.55453 169.15625L343.55453 167.375Z" fill-rule="nonzero"/><path fill="#ea9999" d="M335.8514 172.5L334.7733 172.5L334.7733 165.28125L332.5858 166.07812L332.5858 165.09375L335.69516 163.92188L335.8514 163.92188L335.8514 172.5ZM344.6483 168.85938Q344.6483 170.76562 343.99203 171.70312Q343.3514 172.625 341.9608 172.625Q340.6014 172.625 339.94516 171.71875Q339.2889 170.8125 339.25766 169.0L339.25766 167.5625Q339.25766 165.67188 339.8983 164.76562Q340.55453 163.84375 341.94516 163.84375Q343.32016 163.84375 343.9764 164.73438Q344.63266 165.60938 344.6483 167.45312L344.6483 168.85938ZM343.55453 167.375Q343.55453 166.0 343.1639 165.375Q342.7889 164.73438 341.94516 164.73438Q341.11703 164.73438 340.7264 165.375Q340.3514 166.0 340.3514 167.29688L340.3514 169.03125Q340.3514 170.40625 340.74203 171.07812Q341.1483 171.73438 341.9608 171.73438Q342.75766 171.73438 343.1483 171.10938Q343.5389 170.48438 343.55453 169.15625L343.55453 167.375Z" fill-rule="nonzero"/><path stroke="#ffffff" stroke-width="3.0" stroke-linejoin="round" stroke-linecap="round" d="M339.58804 194.85938Q339.58804 196.76562 338.9318 197.70312Q338.29117 198.625 336.90054 198.625Q335.54117 198.625 334.88492 197.71875Q334.22867 196.8125 334.19742 195.0L334.19742 193.5625Q334.19742 191.67188 334.83804 190.76562Q335.4943 189.84375 336.88492 189.84375Q338.25992 189.84375 338.91617 190.73438Q339.57242 191.60938 339.58804 193.45312L339.58804 194.85938ZM338.4943 193.375Q338.4943 192.0 338.10367 191.375Q337.72867 190.73438 336.88492 190.73438Q336.0568 190.73438 335.66617 191.375Q335.29117 192.0 335.29117 193.29688L335.29117 195.03125Q335.29117 196.40625 335.6818 197.07812Q336.08804 197.73438 336.90054 197.73438Q337.69742 197.73438 338.08804 197.10938Q338.47867 196.48438 338.4943 195.15625L338.4943 193.375ZM341.3068 200.20312L340.69742 199.78125Q341.2443 199.01562 341.27554 198.1875L341.27554 197.21875L342.33804 197.21875L342.33804 198.0625Q342.33804 198.65625 342.04117 199.25Q341.7443 199.84375 341.3068 200.20312ZM346.79117 198.5L345.71304 198.5L345.71304 191.28125L343.52554 192.07812L343.52554 191.09375L346.63492 189.92188L346.79117 189.92188L346.79117 198.5Z" fill-rule="nonzero"/><path fill="#b7b7b7" d="M339.58804 194.85938Q339.58804 196.76562 338.9318 197.70312Q338.29117 198.625 336.90054 198.625Q335.54117 198.625 334.88492 197.71875Q334.22867 196.8125 334.19742 195.0L334.19742 193.5625Q334.19742 191.67188 334.83804 190.76562Q335.4943 189.84375 336.88492 189.84375Q338.25992 189.84375 338.91617 190.73438Q339.57242 191.60938 339.58804 193.45312L339.58804 194.85938ZM338.4943 193.375Q338.4943 192.0 338.10367 191.375Q337.72867 190.73438 336.88492 190.73438Q336.0568 190.73438 335.66617 191.375Q335.29117 192.0 335.29117 193.29688L335.29117 195.03125Q335.29117 196.40625 335.6818 197.07812Q336.08804 197.73438 336.90054 197.73438Q337.69742 197.73438 338.08804 197.10938Q338.47867 196.48438 338.4943 195.15625L338.4943 193.375ZM341.3068 200.20312L340.69742 199.78125Q341.2443 199.01562 341.27554 198.1875L341.27554 197.21875L342.33804 197.21875L342.33804 198.0625Q342.33804 198.65625 342.04117 199.25Q341.7443 199.84375 341.3068 200.20312ZM346.79117 198.5L345.71304 198.5L345.71304 191.28125L343.52554 192.07812L343.52554 191.09375L346.63492 189.92188L346.79117 189.92188L346.79117 198.5Z" fill-rule="nonzero"/><path stroke="#ffffff" stroke-width="3.0" stroke-linejoin="round" stroke-linecap="round" d="M588.01697 225.5L586.93884 225.5L586.93884 218.28125L584.75134 219.07812L584.75134 218.09375L587.8607 216.92188L588.01697 216.92188L588.01697 225.5ZM593.0326 220.70312L593.8451 220.70312Q594.62634 220.6875 595.06384 220.29688Q595.50134 219.90625 595.50134 219.23438Q595.50134 217.73438 594.00134 217.73438Q593.2982 217.73438 592.87634 218.14062Q592.4701 218.54688 592.4701 219.20312L591.37634 219.20312Q591.37634 218.1875 592.1107 217.51562Q592.8607 216.84375 594.00134 216.84375Q595.20447 216.84375 595.89197 217.48438Q596.57947 218.125 596.57947 219.26562Q596.57947 219.82812 596.2201 220.34375Q595.8607 220.85938 595.2357 221.125Q595.93884 221.34375 596.31384 221.85938Q596.70447 222.375 596.70447 223.125Q596.70447 224.26562 595.95447 224.95312Q595.20447 225.625 594.00134 225.625Q592.81384 225.625 592.0482 224.96875Q591.2982 224.3125 591.2982 223.25L592.39197 223.25Q592.39197 223.92188 592.82947 224.32812Q593.26697 224.73438 594.01697 224.73438Q594.7982 224.73438 595.20447 224.32812Q595.62634 223.90625 595.62634 223.14062Q595.62634 222.40625 595.1732 222.01562Q594.7201 221.60938 593.8451 221.59375L593.0326 221.59375L593.0326 220.70312Z" fill-rule="nonzero"/><path fill="#ea9999" d="M588.01697 225.5L586.93884 225.5L586.93884 218.28125L584.75134 219.07812L584.75134 218.09375L587.8607 216.92188L588.01697 216.92188L588.01697 225.5ZM593.0326 220.70312L593.8451 220.70312Q594.62634 220.6875 595.06384 220.29688Q595.50134 219.90625 595.50134 219.23438Q595.50134 217.73438 594.00134 217.73438Q593.2982 217.73438 592.87634 218.14062Q592.4701 218.54688 592.4701 219.20312L591.37634 219.20312Q591.37634 218.1875 592.1107 217.51562Q592.8607 216.84375 594.00134 216.84375Q595.20447 216.84375 595.89197 217.48438Q596.57947 218.125 596.57947 219.26562Q596.57947 219.82812 596.2201 220.34375Q595.8607 220.85938 595.2357 221.125Q595.93884 221.34375 596.31384 221.85938Q596.70447 222.375 596.70447 223.125Q596.70447 224.26562 595.95447 224.95312Q595.20447 225.625 594.00134 225.625Q592.81384 225.625 592.0482 224.96875Q591.2982 224.3125 591.2982 223.25L592.39197 223.25Q592.39197 223.92188 592.82947 224.32812Q593.26697 224.73438 594.01697 224.73438Q594.7982 224.73438 595.20447 224.32812Q595.62634 223.90625 595.62634 223.14062Q595.62634 222.40625 595.1732 222.01562Q594.7201 221.60938 593.8451 221.59375L593.0326 221.59375L593.0326 220.70312Z" fill-rule="nonzero"/><path stroke="#ffffff" stroke-width="3.0" stroke-linejoin="round" stroke-linecap="round" d="M455.9721 247.85938Q455.9721 249.76562 455.31586 250.70312Q454.67523 251.625 453.2846 251.625Q451.92523 251.625 451.26898 250.71875Q450.61273 249.8125 450.58148 248.0L450.58148 246.5625Q450.58148 244.67188 451.2221 243.76562Q451.87836 242.84375 453.26898 242.84375Q454.64398 242.84375 455.30023 243.73438Q455.95648 244.60938 455.9721 246.45312L455.9721 247.85938ZM454.87836 246.375Q454.87836 245.0 454.48773 244.375Q454.11273 243.73438 453.26898 243.73438Q452.44086 243.73438 452.05023 244.375Q451.67523 245.0 451.67523 246.29688L451.67523 248.03125Q451.67523 249.40625 452.06586 250.07812Q452.4721 250.73438 453.2846 250.73438Q454.08148 250.73438 454.4721 250.10938Q454.86273 249.48438 454.87836 248.15625L454.87836 246.375ZM457.69086 253.20312L457.08148 252.78125Q457.62836 252.01562 457.6596 251.1875L457.6596 250.21875L458.7221 250.21875L458.7221 251.0625Q458.7221 251.65625 458.42523 252.25Q458.12836 252.84375 457.69086 253.20312ZM463.17523 251.5L462.0971 251.5L462.0971 244.28125L459.9096 245.07812L459.9096 244.09375L463.01898 242.92188L463.17523 242.92188L463.17523 251.5Z" fill-rule="nonzero"/><path fill="#b7b7b7" d="M455.9721 247.85938Q455.9721 249.76562 455.31586 250.70312Q454.67523 251.625 453.2846 251.625Q451.92523 251.625 451.26898 250.71875Q450.61273 249.8125 450.58148 248.0L450.58148 246.5625Q450.58148 244.67188 451.2221 243.76562Q451.87836 242.84375 453.26898 242.84375Q454.64398 242.84375 455.30023 243.73438Q455.95648 244.60938 455.9721 246.45312L455.9721 247.85938ZM454.87836 246.375Q454.87836 245.0 454.48773 244.375Q454.11273 243.73438 453.26898 243.73438Q452.44086 243.73438 452.05023 244.375Q451.67523 245.0 451.67523 246.29688L451.67523 248.03125Q451.67523 249.40625 452.06586 250.07812Q452.4721 250.73438 453.2846 250.73438Q454.08148 250.73438 454.4721 250.10938Q454.86273 249.48438 454.87836 248.15625L454.87836 246.375ZM457.69086 253.20312L457.08148 252.78125Q457.62836 252.01562 457.6596 251.1875L457.6596 250.21875L458.7221 250.21875L458.7221 251.0625Q458.7221 251.65625 458.42523 252.25Q458.12836 252.84375 457.69086 253.20312ZM463.17523 251.5L462.0971 251.5L462.0971 244.28125L459.9096 245.07812L459.9096 244.09375L463.01898 242.92188L463.17523 242.92188L463.17523 251.5Z" fill-rule="nonzero"/><path stroke="#ffffff" stroke-width="3.0" stroke-linejoin="round" stroke-linecap="round" d="M591.75354 273.85938Q591.75354 275.76562 591.0973 276.70312Q590.45667 277.625 589.06604 277.625Q587.70667 277.625 587.0504 276.71875Q586.39417 275.8125 586.3629 274.0L586.3629 272.5625Q586.3629 270.67188 587.00354 269.76562Q587.6598 268.84375 589.0504 268.84375Q590.4254 268.84375 591.08167 269.73438Q591.7379 270.60938 591.75354 272.45312L591.75354 273.85938ZM590.6598 272.375Q590.6598 271.0 590.26917 270.375Q589.89417 269.73438 589.0504 269.73438Q588.2223 269.73438 587.83167 270.375Q587.45667 271.0 587.45667 272.29688L587.45667 274.03125Q587.45667 275.40625 587.8473 276.07812Q588.25354 276.73438 589.06604 276.73438Q589.8629 276.73438 590.25354 276.10938Q590.64417 275.48438 590.6598 274.15625L590.6598 272.375ZM593.4723 279.20312L592.8629 278.78125Q593.4098 278.01562 593.44104 277.1875L593.44104 276.21875L594.50354 276.21875L594.50354 277.0625Q594.50354 277.65625 594.20667 278.25Q593.9098 278.84375 593.4723 279.20312ZM598.95667 277.5L597.87854 277.5L597.87854 270.28125L595.69104 271.07812L595.69104 270.09375L598.8004 268.92188L598.95667 268.92188L598.95667 277.5Z" fill-rule="nonzero"/><path fill="#b7b7b7" d="M591.75354 273.85938Q591.75354 275.76562 591.0973 276.70312Q590.45667 277.625 589.06604 277.625Q587.70667 277.625 587.0504 276.71875Q586.39417 275.8125 586.3629 274.0L586.3629 272.5625Q586.3629 270.67188 587.00354 269.76562Q587.6598 268.84375 589.0504 268.84375Q590.4254 268.84375 591.08167 269.73438Q591.7379 270.60938 591.75354 272.45312L591.75354 273.85938ZM590.6598 272.375Q590.6598 271.0 590.26917 270.375Q589.89417 269.73438 589.0504 269.73438Q588.2223 269.73438 587.83167 270.375Q587.45667 271.0 587.45667 272.29688L587.45667 274.03125Q587.45667 275.40625 587.8473 276.07812Q588.25354 276.73438 589.06604 276.73438Q589.8629 276.73438 590.25354 276.10938Q590.64417 275.48438 590.6598 274.15625L590.6598 272.375ZM593.4723 279.20312L592.8629 278.78125Q593.4098 278.01562 593.44104 277.1875L593.44104 276.21875L594.50354 276.21875L594.50354 277.0625Q594.50354 277.65625 594.20667 278.25Q593.9098 278.84375 593.4723 279.20312ZM598.95667 277.5L597.87854 277.5L597.87854 270.28125L595.69104 271.07812L595.69104 270.09375L598.8004 268.92188L598.95667 268.92188L598.95667 277.5Z" fill-rule="nonzero"/><path stroke="#ffffff" stroke-width="3.0" stroke-linejoin="round" stroke-linecap="round" d="M599.7469 304.5L594.15314 304.5L594.15314 303.71875L597.10626 300.4375Q597.7625 299.6875 598.0125 299.23438Q598.2625 298.76562 598.2625 298.26562Q598.2625 297.59375 597.85626 297.17188Q597.46564 296.73438 596.77814 296.73438Q595.98126 296.73438 595.52814 297.20312Q595.075 297.65625 595.075 298.48438L593.9969 298.48438Q593.9969 297.29688 594.7469 296.57812Q595.5125 295.84375 596.77814 295.84375Q597.98126 295.84375 598.66876 296.46875Q599.35626 297.09375 599.35626 298.14062Q599.35626 299.39062 597.7469 301.14062L595.46564 303.60938L599.7469 303.60938L599.7469 304.5ZM605.73126 301.64062L606.91876 301.64062L606.91876 302.51562L605.73126 302.51562L605.73126 304.5L604.65314 304.5L604.65314 302.51562L600.7625 302.51562L600.7625 301.875L604.575 295.96875L605.73126 295.96875L605.73126 301.64062ZM601.9969 301.64062L604.65314 301.64062L604.65314 297.45312L604.5125 297.6875L601.9969 301.64062Z" fill-rule="nonzero"/><path fill="#7575ff" d="M599.7469 304.5L594.15314 304.5L594.15314 303.71875L597.10626 300.4375Q597.7625 299.6875 598.0125 299.23438Q598.2625 298.76562 598.2625 298.26562Q598.2625 297.59375 597.85626 297.17188Q597.46564 296.73438 596.77814 296.73438Q595.98126 296.73438 595.52814 297.20312Q595.075 297.65625 595.075 298.48438L593.9969 298.48438Q593.9969 297.29688 594.7469 296.57812Q595.5125 295.84375 596.77814 295.84375Q597.98126 295.84375 598.66876 296.46875Q599.35626 297.09375 599.35626 298.14062Q599.35626 299.39062 597.7469 301.14062L595.46564 303.60938L599.7469 303.60938L599.7469 304.5ZM605.73126 301.64062L606.91876 301.64062L606.91876 302.51562L605.73126 302.51562L605.73126 304.5L604.65314 304.5L604.65314 302.51562L600.7625 302.51562L600.7625 301.875L604.575 295.96875L605.73126 295.96875L605.73126 301.64062ZM601.9969 301.64062L604.65314 301.64062L604.65314 297.45312L604.5125 297.6875L601.9969 301.64062Z" fill-rule="nonzero"/><path fill="#000000" d="M290.4162 360.45L290.4162 348.9969L294.36932 348.9969Q295.69745 348.9969 296.40057 349.15314Q297.38495 349.3875 298.08807 349.98126Q298.99432 350.7469 299.43182 351.9344Q299.88495 353.1219 299.88495 354.65314Q299.88495 355.96564 299.57245 356.98126Q299.27557 357.98126 298.7912 358.6375Q298.32245 359.29376 297.75995 359.6844Q297.19745 360.0594 296.38495 360.2625Q295.58807 360.45 294.55682 360.45L290.4162 360.45ZM291.93182 359.09064L294.38495 359.09064Q295.50995 359.09064 296.15057 358.8875Q296.80682 358.66876 297.18182 358.29376Q297.7287 357.7469 298.02557 356.84064Q298.32245 355.9344 298.32245 354.6375Q298.32245 352.84064 297.7287 351.8719Q297.15057 350.90314 296.30682 350.575Q295.69745 350.34064 294.33807 350.34064L291.93182 350.34064L291.93182 359.09064ZM307.68182 360.45L307.68182 359.23126Q306.71307 360.6375 305.0412 360.6375Q304.30682 360.6375 303.6662 360.35626Q303.0412 360.075 302.7287 359.65314Q302.4162 359.21564 302.2912 358.60626Q302.21307 358.1844 302.21307 357.29376L302.21307 352.15314L303.61932 352.15314L303.61932 356.7469Q303.61932 357.85626 303.69745 358.23126Q303.83807 358.79376 304.25995 359.10626Q304.69745 359.41876 305.32245 359.41876Q305.96307 359.41876 306.50995 359.10626Q307.07245 358.77814 307.2912 358.21564Q307.52557 357.65314 307.52557 356.59064L307.52557 352.15314L308.93182 352.15314L308.93182 360.45L307.68182 360.45ZM311.2287 360.45L311.2287 352.15314L312.49432 352.15314L312.49432 353.40314Q312.9787 352.52814 313.38495 352.2469Q313.7912 351.96564 314.2912 351.96564Q314.99432 351.96564 315.7287 352.41876L315.24432 353.71564Q314.7287 353.41876 314.21307 353.41876Q313.75995 353.41876 313.38495 353.7Q313.02557 353.96564 312.86932 354.46564Q312.63495 355.21564 312.63495 356.10626L312.63495 360.45L311.2287 360.45ZM321.65057 359.41876Q320.86932 360.09064 320.15057 360.3719Q319.43182 360.6375 318.6037 360.6375Q317.2287 360.6375 316.49432 359.96564Q315.75995 359.29376 315.75995 358.2625Q315.75995 357.65314 316.0412 357.15314Q316.32245 356.6375 316.75995 356.34064Q317.21307 356.02814 317.77557 355.8719Q318.19745 355.7625 319.02557 355.66876Q320.7287 355.46564 321.5412 355.1844Q321.5412 354.8875 321.5412 354.8094Q321.5412 353.95 321.15057 353.60626Q320.6037 353.1219 319.5412 353.1219Q318.55682 353.1219 318.07245 353.48126Q317.6037 353.825 317.38495 354.7L316.00995 354.5125Q316.19745 353.6375 316.61932 353.09064Q317.05682 352.54376 317.86932 352.2625Q318.68182 351.96564 319.74432 351.96564Q320.80682 351.96564 321.46307 352.21564Q322.13495 352.46564 322.44745 352.84064Q322.75995 353.21564 322.88495 353.79376Q322.96307 354.15314 322.96307 355.09064L322.96307 356.96564Q322.96307 358.9344 323.0412 359.45Q323.13495 359.96564 323.40057 360.45L321.93182 360.45Q321.71307 360.0125 321.65057 359.41876ZM321.5412 356.27814Q320.77557 356.59064 319.24432 356.8094Q318.36932 356.9344 318.00995 357.09064Q317.65057 357.2469 317.44745 357.5594Q317.25995 357.85626 317.25995 358.21564Q317.25995 358.77814 317.68182 359.15314Q318.11932 359.52814 318.93182 359.52814Q319.74432 359.52814 320.36932 359.1844Q321.00995 358.825 321.30682 358.2Q321.5412 357.73126 321.5412 356.79376L321.5412 356.27814ZM328.30682 359.1844L328.50995 360.4344Q327.9162 360.5594 327.44745 360.5594Q326.68182 360.5594 326.25995 360.325Q325.83807 360.075 325.6662 359.6844Q325.49432 359.27814 325.49432 358.0125L325.49432 353.2469L324.46307 353.2469L324.46307 352.15314L325.49432 352.15314L325.49432 350.09064L326.90057 349.2469L326.90057 352.15314L328.30682 352.15314L328.30682 353.2469L326.90057 353.2469L326.90057 358.09064Q326.90057 358.7 326.96307 358.8719Q327.0412 359.04376 327.21307 359.15314Q327.38495 359.2469 327.69745 359.2469Q327.93182 359.2469 328.30682 359.1844ZM329.24432 350.60626L329.24432 348.9969L330.65057 348.9969L330.65057 350.60626L329.24432 350.60626ZM329.24432 360.45L329.24432 352.15314L330.65057 352.15314L330.65057 360.45L329.24432 360.45ZM332.71307 356.29376Q332.71307 353.9969 333.99432 352.8875Q335.07245 351.96564 336.6037 351.96564Q338.32245 351.96564 339.40057 353.09064Q340.49432 354.2 340.49432 356.1844Q340.49432 357.77814 340.00995 358.7Q339.52557 359.6219 338.6037 360.1375Q337.69745 360.6375 336.6037 360.6375Q334.86932 360.6375 333.7912 359.52814Q332.71307 358.40314 332.71307 356.29376ZM334.1662 356.29376Q334.1662 357.8875 334.8537 358.6844Q335.55682 359.48126 336.6037 359.48126Q337.65057 359.48126 338.33807 358.6844Q339.0412 357.8875 339.0412 356.2469Q339.0412 354.71564 338.33807 353.91876Q337.65057 353.1219 336.6037 353.1219Q335.55682 353.1219 334.8537 353.91876Q334.1662 354.7 334.1662 356.29376ZM342.24432 360.45L342.24432 352.15314L343.50995 352.15314L343.50995 353.325Q344.4162 351.96564 346.15057 351.96564Q346.90057 351.96564 347.52557 352.23126Q348.15057 352.4969 348.46307 352.9344Q348.77557 353.3719 348.90057 353.98126Q348.9787 354.3719 348.9787 355.34064L348.9787 360.45L347.57245 360.45L347.57245 355.40314Q347.57245 354.54376 347.40057 354.1219Q347.24432 353.6844 346.82245 353.4344Q346.4162 353.1844 345.8537 353.1844Q344.94745 353.1844 344.2912 353.7625Q343.65057 354.325 343.65057 355.91876L343.65057 360.45L342.24432 360.45ZM357.93182 363.825Q356.75995 362.35626 355.94745 360.3875Q355.15057 358.40314 355.15057 356.29376Q355.15057 354.4344 355.75995 352.73126Q356.46307 350.7625 357.93182 348.79376L358.93182 348.79376Q357.99432 350.41876 357.68182 351.1219Q357.21307 352.2 356.93182 353.3719Q356.6037 354.825 356.6037 356.3094Q356.6037 360.0594 358.93182 363.825L357.93182 363.825ZM360.24432 360.45L360.24432 352.15314L361.49432 352.15314L361.49432 353.3094Q361.88495 352.7 362.52557 352.34064Q363.18182 351.96564 364.00995 351.96564Q364.93182 351.96564 365.52557 352.35626Q366.11932 352.73126 366.3537 353.41876Q367.33807 351.96564 368.9162 351.96564Q370.15057 351.96564 370.80682 352.65314Q371.4787 353.325 371.4787 354.7469L371.4787 360.45L370.08807 360.45L370.08807 355.21564Q370.08807 354.3719 369.94745 354.0125Q369.80682 353.6375 369.44745 353.41876Q369.08807 353.1844 368.6037 353.1844Q367.7287 353.1844 367.15057 353.7625Q366.57245 354.34064 366.57245 355.6219L366.57245 360.45L365.1662 360.45L365.1662 355.0594Q365.1662 354.1219 364.82245 353.65314Q364.4787 353.1844 363.69745 353.1844Q363.1037 353.1844 362.6037 353.4969Q362.1037 353.8094 361.86932 354.41876Q361.65057 355.0125 361.65057 356.1375L361.65057 360.45L360.24432 360.45ZM372.71307 356.29376Q372.71307 353.9969 373.99432 352.8875Q375.07245 351.96564 376.6037 351.96564Q378.32245 351.96564 379.40057 353.09064Q380.49432 354.2 380.49432 356.1844Q380.49432 357.77814 380.00995 358.7Q379.52557 359.6219 378.6037 360.1375Q377.69745 360.6375 376.6037 360.6375Q374.86932 360.6375 373.7912 359.52814Q372.71307 358.40314 372.71307 356.29376ZM374.1662 356.29376Q374.1662 357.8875 374.8537 358.6844Q375.55682 359.48126 376.6037 359.48126Q377.65057 359.48126 378.33807 358.6844Q379.0412 357.8875 379.0412 356.2469Q379.0412 354.71564 378.33807 353.91876Q377.65057 353.1219 376.6037 353.1219Q375.55682 353.1219 374.8537 353.91876Q374.1662 354.7 374.1662 356.29376ZM382.24432 360.45L382.24432 352.15314L383.50995 352.15314L383.50995 353.325Q384.4162 351.96564 386.15057 351.96564Q386.90057 351.96564 387.52557 352.23126Q388.15057 352.4969 388.46307 352.9344Q388.77557 353.3719 388.90057 353.98126Q388.9787 354.3719 388.9787 355.34064L388.9787 360.45L387.57245 360.45L387.57245 355.40314Q387.57245 354.54376 387.40057 354.1219Q387.24432 353.6844 386.82245 353.4344Q386.4162 353.1844 385.8537 353.1844Q384.94745 353.1844 384.2912 353.7625Q383.65057 354.325 383.65057 355.91876L383.65057 360.45L382.24432 360.45ZM394.30682 359.1844L394.50995 360.4344Q393.9162 360.5594 393.44745 360.5594Q392.68182 360.5594 392.25995 360.325Q391.83807 360.075 391.6662 359.6844Q391.49432 359.27814 391.49432 358.0125L391.49432 353.2469L390.46307 353.2469L390.46307 352.15314L391.49432 352.15314L391.49432 350.09064L392.90057 349.2469L392.90057 352.15314L394.30682 352.15314L394.30682 353.2469L392.90057 353.2469L392.90057 358.09064Q392.90057 358.7 392.96307 358.8719Q393.0412 359.04376 393.21307 359.15314Q393.38495 359.2469 393.69745 359.2469Q393.93182 359.2469 394.30682 359.1844ZM395.24432 360.45L395.24432 348.9969L396.65057 348.9969L396.65057 353.10626Q397.63495 351.96564 399.13495 351.96564Q400.05682 351.96564 400.7287 352.325Q401.4162 352.6844 401.69745 353.325Q401.99432 353.96564 401.99432 355.1844L401.99432 360.45L400.58807 360.45L400.58807 355.1844Q400.58807 354.1375 400.13495 353.65314Q399.68182 353.16876 398.83807 353.16876Q398.21307 353.16876 397.6662 353.4969Q397.11932 353.825 396.88495 354.3875Q396.65057 354.9344 396.65057 355.90314L396.65057 360.45L395.24432 360.45ZM403.68182 357.96564L405.07245 357.7469Q405.18182 358.59064 405.71307 359.04376Q406.25995 359.48126 407.21307 359.48126Q408.18182 359.48126 408.65057 359.09064Q409.11932 358.6844 409.11932 358.15314Q409.11932 357.6844 408.71307 357.40314Q408.4162 357.21564 407.27557 356.9344Q405.7287 356.54376 405.11932 356.2625Q404.52557 355.96564 404.21307 355.46564Q403.9162 354.96564 403.9162 354.35626Q403.9162 353.79376 404.1662 353.325Q404.4162 352.85626 404.8537 352.54376Q405.18182 352.29376 405.74432 352.1375Q406.32245 351.96564 406.96307 351.96564Q407.94745 351.96564 408.68182 352.2469Q409.4162 352.52814 409.75995 353.0125Q410.11932 353.48126 410.25995 354.29376L408.88495 354.48126Q408.7912 353.84064 408.33807 353.48126Q407.88495 353.1219 407.07245 353.1219Q406.1037 353.1219 405.68182 353.45Q405.27557 353.7625 405.27557 354.1844Q405.27557 354.46564 405.44745 354.6844Q405.61932 354.90314 405.9787 355.0594Q406.19745 355.1375 407.2287 355.41876Q408.71307 355.8094 409.30682 356.075Q409.90057 356.325 410.2287 356.8094Q410.57245 357.29376 410.57245 358.0125Q410.57245 358.71564 410.15057 359.34064Q409.74432 359.95 408.96307 360.29376Q408.19745 360.6375 407.2287 360.6375Q405.6037 360.6375 404.75995 359.96564Q403.9162 359.29376 403.68182 357.96564ZM413.1662 363.825L412.15057 363.825Q414.49432 360.0594 414.49432 356.3094Q414.49432 354.84064 414.15057 353.3875Q413.88495 352.21564 413.4162 351.1375Q413.1037 350.4344 412.15057 348.79376L413.1662 348.79376Q414.63495 350.7625 415.33807 352.73126Q415.93182 354.4344 415.93182 356.29376Q415.93182 358.40314 415.11932 360.3875Q414.32245 362.35626 413.1662 363.825Z" fill-rule="nonzero"/><path fill="#000000" d="M33.54999 252.6797L23.440615 252.6797L23.440615 256.46094L22.096865 256.46094L22.096865 247.38283L23.440615 247.38283L23.440615 251.16408L33.54999 251.16408L33.54999 252.6797ZM32.51874 240.3672Q33.190617 241.14845 33.471867 241.8672Q33.73749 242.58595 33.73749 243.41408Q33.73749 244.78908 33.065617 245.52345Q32.39374 246.25783 31.36249 246.25783Q30.753115 246.25783 30.253115 245.97658Q29.73749 245.69533 29.440615 245.25783Q29.128115 244.8047 28.971865 244.2422Q28.86249 243.82033 28.76874 242.9922Q28.565615 241.28908 28.284365 240.47658Q27.98749 240.47658 27.909365 240.47658Q27.04999 240.47658 26.70624 240.8672Q26.221865 241.41408 26.221865 242.47658Q26.221865 243.46095 26.58124 243.94533Q26.92499 244.41408 27.79999 244.63283L27.61249 246.00783Q26.73749 245.82033 26.190615 245.39845Q25.64374 244.96095 25.36249 244.14845Q25.065615 243.33595 25.065615 242.27345Q25.065615 241.21095 25.315615 240.5547Q25.565615 239.88283 25.940615 239.57033Q26.315615 239.25783 26.89374 239.13283Q27.253115 239.0547 28.190615 239.0547L30.065615 239.0547Q32.034367 239.0547 32.54999 238.97658Q33.065617 238.88283 33.54999 238.6172L33.54999 240.08595Q33.11249 240.3047 32.51874 240.3672ZM29.378115 240.47658Q29.690615 241.2422 29.909365 242.77345Q30.034365 243.64845 30.190615 244.00783Q30.346865 244.3672 30.659365 244.57033Q30.95624 244.75783 31.315615 244.75783Q31.878115 244.75783 32.253117 244.33595Q32.628117 243.89845 32.628117 243.08595Q32.628117 242.27345 32.284367 241.64845Q31.92499 241.00783 31.29999 240.71095Q30.83124 240.47658 29.89374 240.47658L29.378115 240.47658ZM31.065615 237.33595L30.846865 235.94533Q31.690615 235.83595 32.14374 235.3047Q32.58124 234.75783 32.58124 233.8047Q32.58124 232.83595 32.190617 232.3672Q31.784365 231.89845 31.253115 231.89845Q30.784365 231.89845 30.503115 232.3047Q30.315615 232.60158 30.034365 233.7422Q29.64374 235.28908 29.36249 235.89845Q29.065615 236.4922 28.565615 236.8047Q28.065615 237.10158 27.45624 237.10158Q26.89374 237.10158 26.42499 236.85158Q25.95624 236.60158 25.64374 236.16408Q25.39374 235.83595 25.23749 235.27345Q25.065615 234.69533 25.065615 234.0547Q25.065615 233.07033 25.346865 232.33595Q25.628115 231.60158 26.11249 231.25783Q26.58124 230.89845 27.39374 230.75783L27.58124 232.13283Q26.940615 232.22658 26.58124 232.6797Q26.221865 233.13283 26.221865 233.94533Q26.221865 234.91408 26.54999 235.33595Q26.86249 235.7422 27.284365 235.7422Q27.565615 235.7422 27.784365 235.57033Q28.003115 235.39845 28.159365 235.03908Q28.23749 234.82033 28.51874 233.78908Q28.909365 232.3047 29.17499 231.71095Q29.42499 231.1172 29.909365 230.78908Q30.39374 230.44533 31.11249 230.44533Q31.815615 230.44533 32.440617 230.8672Q33.04999 231.27345 33.39374 232.0547Q33.73749 232.82033 33.73749 233.78908Q33.73749 235.41408 33.065617 236.25783Q32.39374 237.10158 31.065615 237.33595ZM33.54999 228.77345L22.096865 228.77345L22.096865 227.3672L28.628115 227.3672L25.253115 224.03908L25.253115 222.21095L28.33124 225.38283L33.54999 221.89845L33.54999 223.63283L29.29999 226.3672L30.253115 227.3672L33.54999 227.3672L33.54999 228.77345ZM31.065615 221.33595L30.846865 219.94533Q31.690615 219.83595 32.14374 219.3047Q32.58124 218.75783 32.58124 217.8047Q32.58124 216.83595 32.190617 216.3672Q31.784365 215.89845 31.253115 215.89845Q30.784365 215.89845 30.503115 216.3047Q30.315615 216.60158 30.034365 217.7422Q29.64374 219.28908 29.36249 219.89845Q29.065615 220.4922 28.565615 220.8047Q28.065615 221.10158 27.45624 221.10158Q26.89374 221.10158 26.42499 220.85158Q25.95624 220.60158 25.64374 220.16408Q25.39374 219.83595 25.23749 219.27345Q25.065615 218.69533 25.065615 218.0547Q25.065615 217.07033 25.346865 216.33595Q25.628115 215.60158 26.11249 215.25783Q26.58124 214.89845 27.39374 214.75783L27.58124 216.13283Q26.940615 216.22658 26.58124 216.6797Q26.221865 217.13283 26.221865 217.94533Q26.221865 218.91408 26.54999 219.33595Q26.86249 219.7422 27.284365 219.7422Q27.565615 219.7422 27.784365 219.57033Q28.003115 219.39845 28.159365 219.03908Q28.23749 218.82033 28.51874 217.78908Q28.909365 216.3047 29.17499 215.71095Q29.42499 215.1172 29.909365 214.78908Q30.39374 214.44533 31.11249 214.44533Q31.815615 214.44533 32.440617 214.8672Q33.04999 215.27345 33.39374 216.0547Q33.73749 216.82033 33.73749 217.78908Q33.73749 219.41408 33.065617 220.25783Q32.39374 221.10158 31.065615 221.33595ZM32.190617 202.22658Q32.971867 202.9297 33.36249 203.75783Q33.753117 204.57033 33.753117 205.52345Q33.753117 207.27345 32.54999 208.3047Q31.58124 209.14845 30.39374 209.14845Q29.33124 209.14845 28.471865 208.46095Q27.61249 207.77345 26.971865 206.41408Q26.08124 207.19533 25.534365 207.46095Q24.971865 207.71095 24.45624 207.71095Q23.42499 207.71095 22.659365 206.89845Q21.89374 206.08595 21.89374 204.8672Q21.89374 203.69533 22.61249 202.94533Q23.33124 202.19533 24.346865 202.19533Q25.971865 202.19533 27.128115 204.3672L29.753115 202.3047Q29.065615 201.96095 28.159365 201.75783L28.471865 200.3047Q29.971865 200.6797 30.940615 201.32033Q31.98749 200.52345 32.690617 199.52345L33.815617 200.47658Q33.26874 201.32033 32.190617 202.22658ZM26.221865 205.08595Q25.690615 204.1797 25.284365 203.91408Q24.878115 203.63283 24.378115 203.63283Q23.79999 203.63283 23.42499 204.00783Q23.04999 204.38283 23.04999 204.9297Q23.04999 205.50783 23.42499 205.88283Q23.784365 206.25783 24.315615 206.25783Q24.58124 206.25783 24.878115 206.13283Q25.17499 205.9922 25.503115 205.71095L26.221865 205.08595ZM31.08124 203.1172L27.89374 205.69533Q28.565615 206.83595 29.159365 207.2422Q29.73749 207.63283 30.29999 207.63283Q31.003115 207.63283 31.753115 207.08595Q32.503117 206.52345 32.503117 205.50783Q32.503117 204.8672 32.11249 204.19533Q31.70624 203.52345 31.08124 203.1172ZM33.54999 191.60158L22.096865 194.63283L22.096865 193.08595L29.596865 191.33595Q30.784365 191.0547 31.940615 190.85158Q30.11249 190.41408 29.83124 190.33595L22.096865 188.16408L22.096865 186.33595L27.89374 184.69533Q30.04999 184.07033 31.940615 183.8047Q30.86249 183.58595 29.45624 183.22658L22.096865 181.4297L22.096865 179.91408L33.54999 183.0547L33.54999 184.50783L24.815615 186.9297Q23.721865 187.22658 23.471865 187.28908Q24.26874 187.46095 24.815615 187.6172L33.54999 190.0547L33.54999 191.60158ZM33.54999 178.78908L25.253115 178.78908L25.253115 177.52345L26.503115 177.52345Q25.628115 177.03908 25.346865 176.63283Q25.065615 176.22658 25.065615 175.72658Q25.065615 175.02345 25.51874 174.28908L26.815615 174.77345Q26.51874 175.28908 26.51874 175.8047Q26.51874 176.25783 26.79999 176.63283Q27.065615 176.9922 27.565615 177.14845Q28.315615 177.38283 29.20624 177.38283L33.54999 177.38283L33.54999 178.78908ZM29.39374 174.3047Q27.096865 174.3047 25.98749 173.02345Q25.065615 171.94533 25.065615 170.41408Q25.065615 168.69533 26.190615 167.6172Q27.29999 166.52345 29.284365 166.52345Q30.878115 166.52345 31.79999 167.00783Q32.721867 167.4922 33.23749 168.41408Q33.73749 169.32033 33.73749 170.41408Q33.73749 172.14845 32.628117 173.22658Q31.503115 174.3047 29.39374 174.3047ZM29.39374 172.85158Q30.98749 172.85158 31.784365 172.16408Q32.58124 171.46095 32.58124 170.41408Q32.58124 169.3672 31.784365 168.6797Q30.98749 167.97658 29.346865 167.97658Q27.815615 167.97658 27.01874 168.6797Q26.221865 169.3672 26.221865 170.41408Q26.221865 171.46095 27.01874 172.16408Q27.79999 172.85158 29.39374 172.85158ZM33.54999 164.77345L22.096865 164.77345L22.096865 163.3672L28.628115 163.3672L25.253115 160.03908L25.253115 158.21095L28.33124 161.38283L33.54999 157.89845L33.54999 159.63283L29.29999 162.3672L30.253115 163.3672L33.54999 163.3672L33.54999 164.77345ZM36.73749 152.77345L25.253115 152.77345L25.253115 151.4922L26.33124 151.4922Q25.690615 151.03908 25.378115 150.47658Q25.065615 149.89845 25.065615 149.08595Q25.065615 148.02345 25.61249 147.21095Q26.159365 146.39845 27.159365 145.9922Q28.14374 145.57033 29.33124 145.57033Q30.61249 145.57033 31.628115 146.03908Q32.64374 146.4922 33.190617 147.3672Q33.73749 148.22658 33.73749 149.19533Q33.73749 149.89845 33.440617 150.46095Q33.14374 151.00783 32.690617 151.3672L36.73749 151.3672L36.73749 152.77345ZM29.440615 151.50783Q31.04999 151.50783 31.815615 150.8672Q32.58124 150.21095 32.58124 149.28908Q32.58124 148.35158 31.784365 147.6797Q30.98749 147.00783 29.33124 147.00783Q27.73749 147.00783 26.95624 147.66408Q26.159365 148.32033 26.159365 149.22658Q26.159365 150.1172 27.003115 150.82033Q27.846865 151.50783 29.440615 151.50783ZM32.51874 138.3672Q33.190617 139.14845 33.471867 139.8672Q33.73749 140.58595 33.73749 141.41408Q33.73749 142.78908 33.065617 143.52345Q32.39374 144.25783 31.36249 144.25783Q30.753115 144.25783 30.253115 143.97658Q29.73749 143.69533 29.440615 143.25783Q29.128115 142.8047 28.971865 142.2422Q28.86249 141.82033 28.76874 140.9922Q28.565615 139.28908 28.284365 138.47658Q27.98749 138.47658 27.909365 138.47658Q27.04999 138.47658 26.70624 138.8672Q26.221865 139.41408 26.221865 140.47658Q26.221865 141.46095 26.58124 141.94533Q26.92499 142.41408 27.79999 142.63283L27.61249 144.00783Q26.73749 143.82033 26.190615 143.39845Q25.64374 142.96095 25.36249 142.14845Q25.065615 141.33595 25.065615 140.27345Q25.065615 139.21095 25.315615 138.5547Q25.565615 137.88283 25.940615 137.57033Q26.315615 137.25783 26.89374 137.13283Q27.253115 137.0547 28.190615 137.0547L30.065615 137.0547Q32.034367 137.0547 32.54999 136.97658Q33.065617 136.88283 33.54999 136.6172L33.54999 138.08595Q33.11249 138.3047 32.51874 138.3672ZM29.378115 138.47658Q29.690615 139.2422 29.909365 140.77345Q30.034365 141.64845 30.190615 142.00783Q30.346865 142.3672 30.659365 142.57033Q30.95624 142.75783 31.315615 142.75783Q31.878115 142.75783 32.253117 142.33595Q32.628117 141.89845 32.628117 141.08595Q32.628117 140.27345 32.284367 139.64845Q31.92499 139.00783 31.29999 138.71095Q30.83124 138.47658 29.89374 138.47658L29.378115 138.47658ZM33.54999 134.77345L22.096865 134.77345L22.096865 133.3672L28.628115 133.3672L25.253115 130.03908L25.253115 128.21095L28.33124 131.38283L33.54999 127.89846L33.54999 129.63283L29.29999 132.3672L30.253115 133.3672L33.54999 133.3672L33.54999 134.77345ZM32.51874 121.36721Q33.190617 122.14846 33.471867 122.86721Q33.73749 123.58596 33.73749 124.414085Q33.73749 125.789085 33.065617 126.52346Q32.39374 127.257835 31.36249 127.257835Q30.753115 127.257835 30.253115 126.976585Q29.73749 126.695335 29.440615 126.257835Q29.128115 125.80471 28.971865 125.24221Q28.86249 124.820335 28.76874 123.99221Q28.565615 122.289085 28.284365 121.476585Q27.98749 121.476585 27.909365 121.476585Q27.04999 121.476585 26.70624 121.86721Q26.221865 122.414085 26.221865 123.476585Q26.221865 124.46096 26.58124 124.945335Q26.92499 125.414085 27.79999 125.632835L27.61249 127.007835Q26.73749 126.820335 26.190615 126.39846Q25.64374 125.96096 25.36249 125.14846Q25.065615 124.33596 25.065615 123.27346Q25.065615 122.21096 25.315615 121.55471Q25.565615 120.882835 25.940615 120.570335Q26.315615 120.257835 26.89374 120.132835Q27.253115 120.05471 28.190615 120.05471L30.065615 120.05471Q32.034367 120.05471 32.54999 119.976585Q33.065617 119.882835 33.54999 119.61721L33.54999 121.08596Q33.11249 121.30471 32.51874 121.36721ZM29.378115 121.476585Q29.690615 122.24221 29.909365 123.77346Q30.034365 124.64846 30.190615 125.007835Q30.346865 125.36721 30.659365 125.570335Q30.95624 125.757835 31.315615 125.757835Q31.878115 125.757835 32.253117 125.33596Q32.628117 124.89846 32.628117 124.08596Q32.628117 123.27346 32.284367 122.64846Q31.92499 122.007835 31.29999 121.71096Q30.83124 121.476585 29.89374 121.476585L29.378115 121.476585ZM34.23749 118.039085L34.440617 116.664085Q35.08124 116.58596 35.36249 116.195335Q35.753117 115.664085 35.753117 114.757835Q35.753117 113.789085 35.36249 113.257835Q34.971867 112.726585 34.26874 112.539085Q33.846867 112.42971 32.45624 112.42971Q33.54999 113.351585 33.54999 114.726585Q33.54999 116.445335 32.315617 117.382835Q31.08124 118.320335 29.346865 118.320335Q28.159365 118.320335 27.159365 117.89846Q26.159365 117.46096 25.61249 116.64846Q25.065615 115.820335 25.065615 114.726585Q25.065615 113.257835 26.253115 112.30471L25.253115 112.30471L25.253115 111.007835L32.42499 111.007835Q34.36249 111.007835 35.17499 111.39846Q35.98749 111.789085 36.45624 112.64846Q36.92499 113.507835 36.92499 114.757835Q36.92499 116.24221 36.253117 117.164085Q35.58124 118.070335 34.23749 118.039085ZM29.253115 116.86721Q30.878115 116.86721 31.628115 116.226585Q32.378117 115.570335 32.378117 114.601585Q32.378117 113.632835 31.64374 112.976585Q30.89374 112.320335 29.29999 112.320335Q27.76874 112.320335 27.003115 112.99221Q26.221865 113.664085 26.221865 114.61721Q26.221865 115.55471 26.98749 116.21096Q27.753115 116.86721 29.253115 116.86721ZM30.878115 103.101585L31.04999 101.64846Q32.33124 101.99221 33.034367 102.92971Q33.73749 103.851585 33.73749 105.289085Q33.73749 107.11721 32.61249 108.17971Q31.48749 109.24221 29.471865 109.24221Q27.378115 109.24221 26.221865 108.164085Q25.065615 107.08596 25.065615 105.36721Q25.065615 103.71096 26.20624 102.664085Q27.33124 101.601585 29.378115 101.601585Q29.503115 101.601585 29.753115 101.601585L29.753115 107.789085Q31.128115 107.71096 31.86249 107.02346Q32.58124 106.320335 32.58124 105.289085Q32.58124 104.507835 32.17499 103.96096Q31.76874 103.414085 30.878115 103.101585ZM28.596865 107.71096L28.596865 103.08596Q27.54999 103.17971 27.034365 103.61721Q26.221865 104.289085 26.221865 105.351585Q26.221865 106.320335 26.878115 106.99221Q27.51874 107.64846 28.596865 107.71096ZM31.065615 100.33596L30.846865 98.945335Q31.690615 98.83596 32.14374 98.30471Q32.58124 97.757835 32.58124 96.80471Q32.58124 95.83596 32.190617 95.36721Q31.784365 94.89846 31.253115 94.89846Q30.784365 94.89846 30.503115 95.30471Q30.315615 95.601585 30.034365 96.74221Q29.64374 98.289085 29.36249 98.89846Q29.065615 99.49221 28.565615 99.80471Q28.065615 100.101585 27.45624 100.101585Q26.89374 100.101585 26.42499 99.851585Q25.95624 99.601585 25.64374 99.164085Q25.39374 98.83596 25.23749 98.27346Q25.065615 97.695335 25.065615 97.05471Q25.065615 96.070335 25.346865 95.33596Q25.628115 94.601585 26.11249 94.257835Q26.58124 93.89846 27.39374 93.757835L27.58124 95.132835Q26.940615 95.226585 26.58124 95.67971Q26.221865 96.132835 26.221865 96.945335Q26.221865 97.914085 26.54999 98.33596Q26.86249 98.74221 27.284365 98.74221Q27.565615 98.74221 27.784365 98.570335Q28.003115 98.39846 28.159365 98.039085Q28.23749 97.820335 28.51874 96.789085Q28.909365 95.30471 29.17499 94.71096Q29.42499 94.11721 29.909365 93.789085Q30.39374 93.445335 31.11249 93.445335Q31.815615 93.445335 32.440617 93.86721Q33.04999 94.27346 33.39374 95.05471Q33.73749 95.820335 33.73749 96.789085Q33.73749 98.414085 33.065617 99.257835Q32.39374 100.101585 31.065615 100.33596Z" fill-rule="nonzero"/><path fill="#000000" d="M86.33551 40.328964L84.05426 31.735214L85.226135 31.735214L86.538635 37.37584Q86.74176 38.25084 86.89801 39.12584Q87.226135 37.75084 87.288635 37.53209L88.913635 31.735214L90.288635 31.735214L91.52301 36.078964Q91.976135 37.703964 92.194885 39.12584Q92.351135 38.31334 92.61676 37.25084L93.96051 31.735214L95.101135 31.735214L92.757385 40.328964L91.64801 40.328964L89.851135 33.78209Q89.61676 32.96959 89.569885 32.78209Q89.444885 33.360214 89.319885 33.78209L87.507385 40.328964L86.33551 40.328964ZM95.83551 40.328964L95.83551 31.735214L99.08551 31.735214Q99.92926 31.735214 100.382385 31.81334Q101.02301 31.922714 101.444885 32.21959Q101.882385 32.516464 102.132385 33.047714Q102.39801 33.578964 102.39801 34.21959Q102.39801 35.31334 101.694885 36.078964Q101.007385 36.828964 99.17926 36.828964L96.976135 36.828964L96.976135 40.328964L95.83551 40.328964ZM96.976135 35.828964L99.194885 35.828964Q100.30426 35.828964 100.757385 35.422714Q101.226135 35.00084 101.226135 34.25084Q101.226135 33.71959 100.944885 33.34459Q100.67926 32.953964 100.24176 32.828964Q99.944885 32.75084 99.17926 32.75084L96.976135 32.75084L96.976135 35.828964ZM103.413635 36.09459Q103.413635 34.56334 103.726135 33.641464Q104.038635 32.703964 104.64801 32.203964Q105.27301 31.703964 106.21051 31.703964Q106.89801 31.703964 107.413635 31.985214Q107.944885 32.266464 108.288635 32.797714Q108.632385 33.31334 108.819885 34.06334Q109.007385 34.81334 109.007385 36.09459Q109.007385 37.610214 108.694885 38.53209Q108.39801 39.453964 107.77301 39.96959Q107.163635 40.46959 106.21051 40.46959Q104.976135 40.46959 104.257385 39.578964Q103.413635 38.516464 103.413635 36.09459ZM104.49176 36.09459Q104.49176 38.203964 104.99176 38.90709Q105.49176 39.610214 106.21051 39.610214Q106.944885 39.610214 107.42926 38.90709Q107.92926 38.203964 107.92926 36.09459Q107.92926 33.96959 107.42926 33.28209Q106.944885 32.578964 106.194885 32.578964Q105.476135 32.578964 105.038635 33.18834Q104.49176 33.96959 104.49176 36.09459Z" fill-rule="nonzero"/><path fill="#000000" d="M86.33551 66.668175L84.05426 58.074425L85.226135 58.074425L86.538635 63.71505Q86.74176 64.59005 86.89801 65.46505Q87.226135 64.09005 87.288635 63.8713L88.913635 58.074425L90.288635 58.074425L91.52301 62.418175Q91.976135 64.043175 92.194885 65.46505Q92.351135 64.65255 92.61676 63.59005L93.96051 58.074425L95.101135 58.074425L92.757385 66.668175L91.64801 66.668175L89.851135 60.1213Q89.61676 59.3088 89.569885 59.1213Q89.444885 59.699425 89.319885 60.1213L87.507385 66.668175L86.33551 66.668175ZM95.83551 66.668175L95.83551 58.074425L99.08551 58.074425Q99.92926 58.074425 100.382385 58.15255Q101.02301 58.261925 101.444885 58.5588Q101.882385 58.855675 102.132385 59.386925Q102.39801 59.918175 102.39801 60.5588Q102.39801 61.65255 101.694885 62.418175Q101.007385 63.168175 99.17926 63.168175L96.976135 63.168175L96.976135 66.668175L95.83551 66.668175ZM96.976135 62.168175L99.194885 62.168175Q100.30426 62.168175 100.757385 61.761925Q101.226135 61.34005 101.226135 60.59005Q101.226135 60.0588 100.944885 59.6838Q100.67926 59.293175 100.24176 59.168175Q99.944885 59.09005 99.17926 59.09005L96.976135 59.09005L96.976135 62.168175ZM107.382385 66.668175L106.33551 66.668175L106.33551 59.949425Q105.944885 60.3088 105.319885 60.6838Q104.71051 61.043175 104.226135 61.21505L104.226135 60.199425Q105.101135 59.77755 105.757385 59.199425Q106.42926 58.605675 106.71051 58.043175L107.382385 58.043175L107.382385 66.668175Z" fill-rule="nonzero"/><path fill="#000000" d="M82.80426 93.00738L82.80426 84.41363L84.52301 84.41363L86.55426 90.49175Q86.83551 91.35113 86.96051 91.773Q87.101135 91.30425 87.413635 90.398L89.476135 84.41363L91.007385 84.41363L91.007385 93.00738L89.913635 93.00738L89.913635 85.81988L87.413635 93.00738L86.382385 93.00738L83.89801 85.69488L83.89801 93.00738L82.80426 93.00738ZM92.46051 90.24175L93.52301 90.148Q93.601135 90.80425 93.882385 91.2105Q94.163635 91.61675 94.74176 91.88238Q95.33551 92.13238 96.069885 92.13238Q96.71051 92.13238 97.21051 91.94488Q97.71051 91.74175 97.944885 91.41363Q98.194885 91.06988 98.194885 90.67925Q98.194885 90.273 97.96051 89.97613Q97.726135 89.66363 97.194885 89.4605Q96.83551 89.31988 95.64801 89.03863Q94.476135 88.75738 94.007385 88.50738Q93.382385 88.17925 93.08551 87.7105Q92.788635 87.22613 92.788635 86.63238Q92.788635 85.99175 93.14801 85.42925Q93.52301 84.85113 94.226135 84.56988Q94.944885 84.273 95.80426 84.273Q96.757385 84.273 97.49176 84.5855Q98.226135 84.88238 98.61676 85.49175Q99.007385 86.0855 99.038635 86.8355L97.944885 86.91363Q97.851135 86.10113 97.33551 85.69488Q96.83551 85.273 95.851135 85.273Q94.819885 85.273 94.351135 85.648Q93.882385 86.023 93.882385 86.55425Q93.882385 87.023 94.21051 87.31988Q94.538635 87.61675 95.913635 87.92925Q97.30426 88.24175 97.819885 88.47613Q98.569885 88.8355 98.92926 89.36675Q99.288635 89.88238 99.288635 90.5855Q99.288635 91.273 98.89801 91.88238Q98.507385 92.47613 97.77301 92.81988Q97.038635 93.148 96.11676 93.148Q94.944885 93.148 94.14801 92.81988Q93.36676 92.47613 92.913635 91.78863Q92.476135 91.10113 92.46051 90.24175ZM107.382385 93.00738L106.33551 93.00738L106.33551 86.28863Q105.944885 86.648 105.319885 87.023Q104.71051 87.38238 104.226135 87.55425L104.226135 86.53863Q105.101135 86.11675 105.757385 85.53863Q106.42926 84.94488 106.71051 84.38238L107.382385 84.38238L107.382385 93.00738Z" fill-rule="nonzero"/><path fill="#000000" d="M86.33551 119.34659L84.05426 110.75284L85.226135 110.75284L86.538635 116.39346Q86.74176 117.26846 86.89801 118.14346Q87.226135 116.76846 87.288635 116.54971L88.913635 110.75284L90.288635 110.75284L91.52301 115.09659Q91.976135 116.72159 92.194885 118.14346Q92.351135 117.33096 92.61676 116.26846L93.96051 110.75284L95.101135 110.75284L92.757385 119.34659L91.64801 119.34659L89.851135 112.79971Q89.61676 111.98721 89.569885 111.79971Q89.444885 112.37784 89.319885 112.79971L87.507385 119.34659L86.33551 119.34659ZM95.83551 119.34659L95.83551 110.75284L99.08551 110.75284Q99.92926 110.75284 100.382385 110.83096Q101.02301 110.94034 101.444885 111.23721Q101.882385 111.53409 102.132385 112.06534Q102.39801 112.59659 102.39801 113.23721Q102.39801 114.33096 101.694885 115.09659Q101.007385 115.84659 99.17926 115.84659L96.976135 115.84659L96.976135 119.34659L95.83551 119.34659ZM96.976135 114.84659L99.194885 114.84659Q100.30426 114.84659 100.757385 114.44034Q101.226135 114.01846 101.226135 113.26846Q101.226135 112.73721 100.944885 112.36221Q100.67926 111.97159 100.24176 111.84659Q99.944885 111.76846 99.17926 111.76846L96.976135 111.76846L96.976135 114.84659ZM108.96051 118.33096L108.96051 119.34659L103.27301 119.34659Q103.27301 118.97159 103.39801 118.61221Q103.61676 118.03409 104.08551 117.47159Q104.569885 116.90909 105.476135 116.17471Q106.882385 115.01846 107.36676 114.34659Q107.86676 113.67471 107.86676 113.08096Q107.86676 112.45596 107.413635 112.03409Q106.96051 111.59659 106.24176 111.59659Q105.476135 111.59659 105.02301 112.04971Q104.569885 112.50284 104.55426 113.31534L103.476135 113.20596Q103.58551 111.98721 104.30426 111.36221Q105.038635 110.72159 106.27301 110.72159Q107.507385 110.72159 108.226135 111.40909Q108.944885 112.09659 108.944885 113.11221Q108.944885 113.62784 108.726135 114.12784Q108.52301 114.61221 108.02301 115.17471Q107.538635 115.72159 106.413635 116.67471Q105.46051 117.47159 105.17926 117.76846Q104.913635 118.04971 104.74176 118.33096L108.96051 118.33096Z" fill-rule="nonzero"/><path fill="#000000" d="M82.80426 145.68579L82.80426 137.09204L84.52301 137.09204L86.55426 143.17017Q86.83551 144.02954 86.96051 144.45142Q87.101135 143.98267 87.413635 143.07642L89.476135 137.09204L91.007385 137.09204L91.007385 145.68579L89.913635 145.68579L89.913635 138.49829L87.413635 145.68579L86.382385 145.68579L83.89801 138.37329L83.89801 145.68579L82.80426 145.68579ZM92.46051 142.92017L93.52301 142.82642Q93.601135 143.48267 93.882385 143.88892Q94.163635 144.29517 94.74176 144.56079Q95.33551 144.81079 96.069885 144.81079Q96.71051 144.81079 97.21051 144.62329Q97.71051 144.42017 97.944885 144.09204Q98.194885 143.74829 98.194885 143.35767Q98.194885 142.95142 97.96051 142.65454Q97.726135 142.34204 97.194885 142.13892Q96.83551 141.99829 95.64801 141.71704Q94.476135 141.43579 94.007385 141.18579Q93.382385 140.85767 93.08551 140.38892Q92.788635 139.90454 92.788635 139.31079Q92.788635 138.67017 93.14801 138.10767Q93.52301 137.52954 94.226135 137.24829Q94.944885 136.95142 95.80426 136.95142Q96.757385 136.95142 97.49176 137.26392Q98.226135 137.56079 98.61676 138.17017Q99.007385 138.76392 99.038635 139.51392L97.944885 139.59204Q97.851135 138.77954 97.33551 138.37329Q96.83551 137.95142 95.851135 137.95142Q94.819885 137.95142 94.351135 138.32642Q93.882385 138.70142 93.882385 139.23267Q93.882385 139.70142 94.21051 139.99829Q94.538635 140.29517 95.913635 140.60767Q97.30426 140.92017 97.819885 141.15454Q98.569885 141.51392 98.92926 142.04517Q99.288635 142.56079 99.288635 143.26392Q99.288635 143.95142 98.89801 144.56079Q98.507385 145.15454 97.77301 145.49829Q97.038635 145.82642 96.11676 145.82642Q94.944885 145.82642 94.14801 145.49829Q93.36676 145.15454 92.913635 144.46704Q92.476135 143.77954 92.46051 142.92017ZM108.96051 144.67017L108.96051 145.68579L103.27301 145.68579Q103.27301 145.31079 103.39801 144.95142Q103.61676 144.37329 104.08551 143.81079Q104.569885 143.24829 105.476135 142.51392Q106.882385 141.35767 107.36676 140.68579Q107.86676 140.01392 107.86676 139.42017Q107.86676 138.79517 107.413635 138.37329Q106.96051 137.93579 106.24176 137.93579Q105.476135 137.93579 105.02301 138.38892Q104.569885 138.84204 104.55426 139.65454L103.476135 139.54517Q103.58551 138.32642 104.30426 137.70142Q105.038635 137.06079 106.27301 137.06079Q107.507385 137.06079 108.226135 137.74829Q108.944885 138.43579 108.944885 139.45142Q108.944885 139.96704 108.726135 140.46704Q108.52301 140.95142 108.02301 141.51392Q107.538635 142.06079 106.413635 143.01392Q105.46051 143.81079 105.17926 144.10767Q104.913635 144.38892 104.74176 144.67017L108.96051 144.67017Z" fill-rule="nonzero"/><path fill="#000000" d="M86.33551 172.025L84.05426 163.43124L85.226135 163.43124L86.538635 169.07187Q86.74176 169.94687 86.89801 170.82187Q87.226135 169.44687 87.288635 169.22812L88.913635 163.43124L90.288635 163.43124L91.52301 167.775Q91.976135 169.4 92.194885 170.82187Q92.351135 170.00937 92.61676 168.94687L93.96051 163.43124L95.101135 163.43124L92.757385 172.025L91.64801 172.025L89.851135 165.47812Q89.61676 164.66562 89.569885 164.47812Q89.444885 165.05624 89.319885 165.47812L87.507385 172.025L86.33551 172.025ZM95.83551 172.025L95.83551 163.43124L99.08551 163.43124Q99.92926 163.43124 100.382385 163.50937Q101.02301 163.61874 101.444885 163.91562Q101.882385 164.2125 102.132385 164.74374Q102.39801 165.275 102.39801 165.91562Q102.39801 167.00937 101.694885 167.775Q101.007385 168.525 99.17926 168.525L96.976135 168.525L96.976135 172.025L95.83551 172.025ZM96.976135 167.525L99.194885 167.525Q100.30426 167.525 100.757385 167.11874Q101.226135 166.69687 101.226135 165.94687Q101.226135 165.41562 100.944885 165.04062Q100.67926 164.65 100.24176 164.525Q99.944885 164.44687 99.17926 164.44687L96.976135 164.44687L96.976135 167.525ZM103.413635 169.75937L104.476135 169.61874Q104.64801 170.50937 105.08551 170.91562Q105.52301 171.30624 106.14801 171.30624Q106.89801 171.30624 107.413635 170.79062Q107.92926 170.275 107.92926 169.50937Q107.92926 168.79062 107.444885 168.32187Q106.976135 167.8375 106.24176 167.8375Q105.944885 167.8375 105.49176 167.9625L105.61676 167.025Q105.726135 167.04062 105.788635 167.04062Q106.46051 167.04062 106.99176 166.69687Q107.538635 166.3375 107.538635 165.60312Q107.538635 165.025 107.14801 164.65Q106.757385 164.25937 106.132385 164.25937Q105.52301 164.25937 105.101135 164.65Q104.694885 165.04062 104.58551 165.80624L103.52301 165.61874Q103.71051 164.57187 104.39801 163.99374Q105.08551 163.4 106.101135 163.4Q106.80426 163.4 107.39801 163.7125Q107.99176 164.00937 108.30426 164.525Q108.61676 165.04062 108.61676 165.63437Q108.61676 166.18124 108.319885 166.65Q108.02301 167.10312 107.444885 167.36874Q108.194885 167.54062 108.61676 168.10312Q109.038635 168.65 109.038635 169.49374Q109.038635 170.61874 108.21051 171.4Q107.39801 172.18124 106.14801 172.18124Q105.02301 172.18124 104.27301 171.50937Q103.52301 170.82187 103.413635 169.75937Z" fill-rule="nonzero"/><path fill="#000000" d="M82.80426 198.36421L82.80426 189.77046L84.52301 189.77046L86.55426 195.84859Q86.83551 196.70796 86.96051 197.12984Q87.101135 196.66109 87.413635 195.75484L89.476135 189.77046L91.007385 189.77046L91.007385 198.36421L89.913635 198.36421L89.913635 191.17671L87.413635 198.36421L86.382385 198.36421L83.89801 191.05171L83.89801 198.36421L82.80426 198.36421ZM92.46051 195.59859L93.52301 195.50484Q93.601135 196.16109 93.882385 196.56734Q94.163635 196.97359 94.74176 197.23921Q95.33551 197.48921 96.069885 197.48921Q96.71051 197.48921 97.21051 197.30171Q97.71051 197.09859 97.944885 196.77046Q98.194885 196.42671 98.194885 196.03609Q98.194885 195.62984 97.96051 195.33296Q97.726135 195.02046 97.194885 194.81734Q96.83551 194.67671 95.64801 194.39546Q94.476135 194.11421 94.007385 193.86421Q93.382385 193.53609 93.08551 193.06734Q92.788635 192.58296 92.788635 191.98921Q92.788635 191.34859 93.14801 190.78609Q93.52301 190.20796 94.226135 189.92671Q94.944885 189.62984 95.80426 189.62984Q96.757385 189.62984 97.49176 189.94234Q98.226135 190.23921 98.61676 190.84859Q99.007385 191.44234 99.038635 192.19234L97.944885 192.27046Q97.851135 191.45796 97.33551 191.05171Q96.83551 190.62984 95.851135 190.62984Q94.819885 190.62984 94.351135 191.00484Q93.882385 191.37984 93.882385 191.91109Q93.882385 192.37984 94.21051 192.67671Q94.538635 192.97359 95.913635 193.28609Q97.30426 193.59859 97.819885 193.83296Q98.569885 194.19234 98.92926 194.72359Q99.288635 195.23921 99.288635 195.94234Q99.288635 196.62984 98.89801 197.23921Q98.507385 197.83296 97.77301 198.17671Q97.038635 198.50484 96.11676 198.50484Q94.944885 198.50484 94.14801 198.17671Q93.36676 197.83296 92.913635 197.14546Q92.476135 196.45796 92.46051 195.59859ZM103.413635 196.09859L104.476135 195.95796Q104.64801 196.84859 105.08551 197.25484Q105.52301 197.64546 106.14801 197.64546Q106.89801 197.64546 107.413635 197.12984Q107.92926 196.61421 107.92926 195.84859Q107.92926 195.12984 107.444885 194.66109Q106.976135 194.17671 106.24176 194.17671Q105.944885 194.17671 105.49176 194.30171L105.61676 193.36421Q105.726135 193.37984 105.788635 193.37984Q106.46051 193.37984 106.99176 193.03609Q107.538635 192.67671 107.538635 191.94234Q107.538635 191.36421 107.14801 190.98921Q106.757385 190.59859 106.132385 190.59859Q105.52301 190.59859 105.101135 190.98921Q104.694885 191.37984 104.58551 192.14546L103.52301 191.95796Q103.71051 190.91109 104.39801 190.33296Q105.08551 189.73921 106.101135 189.73921Q106.80426 189.73921 107.39801 190.05171Q107.99176 190.34859 108.30426 190.86421Q108.61676 191.37984 108.61676 191.97359Q108.61676 192.52046 108.319885 192.98921Q108.02301 193.44234 107.444885 193.70796Q108.194885 193.87984 108.61676 194.44234Q109.038635 194.98921 109.038635 195.83296Q109.038635 196.95796 108.21051 197.73921Q107.39801 198.52046 106.14801 198.52046Q105.02301 198.52046 104.27301 197.84859Q103.52301 197.16109 103.413635 196.09859Z" fill-rule="nonzero"/><path fill="#000000" d="M86.33551 224.70341L84.05426 216.10966L85.226135 216.10966L86.538635 221.75029Q86.74176 222.62529 86.89801 223.50029Q87.226135 222.12529 87.288635 221.90654L88.913635 216.10966L90.288635 216.10966L91.52301 220.45341Q91.976135 222.07841 92.194885 223.50029Q92.351135 222.68779 92.61676 221.62529L93.96051 216.10966L95.101135 216.10966L92.757385 224.70341L91.64801 224.70341L89.851135 218.15654Q89.61676 217.34404 89.569885 217.15654Q89.444885 217.73466 89.319885 218.15654L87.507385 224.70341L86.33551 224.70341ZM95.83551 224.70341L95.83551 216.10966L99.08551 216.10966Q99.92926 216.10966 100.382385 216.18779Q101.02301 216.29716 101.444885 216.59404Q101.882385 216.89091 102.132385 217.42216Q102.39801 217.95341 102.39801 218.59404Q102.39801 219.68779 101.694885 220.45341Q101.007385 221.20341 99.17926 221.20341L96.976135 221.20341L96.976135 224.70341L95.83551 224.70341ZM96.976135 220.20341L99.194885 220.20341Q100.30426 220.20341 100.757385 219.79716Q101.226135 219.37529 101.226135 218.62529Q101.226135 218.09404 100.944885 217.71904Q100.67926 217.32841 100.24176 217.20341Q99.944885 217.12529 99.17926 217.12529L96.976135 217.12529L96.976135 220.20341ZM106.788635 224.70341L106.788635 222.64091L103.069885 222.64091L103.069885 221.67216L106.99176 216.10966L107.851135 216.10966L107.851135 221.67216L109.007385 221.67216L109.007385 222.64091L107.851135 222.64091L107.851135 224.70341L106.788635 224.70341ZM106.788635 221.67216L106.788635 217.81279L104.101135 221.67216L106.788635 221.67216Z" fill-rule="nonzero"/><path fill="#000000" d="M82.80426 251.04262L82.80426 242.44887L84.52301 242.44887L86.55426 248.527Q86.83551 249.38637 86.96051 249.80824Q87.101135 249.3395 87.413635 248.43324L89.476135 242.44887L91.007385 242.44887L91.007385 251.04262L89.913635 251.04262L89.913635 243.85512L87.413635 251.04262L86.382385 251.04262L83.89801 243.73012L83.89801 251.04262L82.80426 251.04262ZM92.46051 248.277L93.52301 248.18324Q93.601135 248.8395 93.882385 249.24574Q94.163635 249.652 94.74176 249.91762Q95.33551 250.16762 96.069885 250.16762Q96.71051 250.16762 97.21051 249.98012Q97.71051 249.777 97.944885 249.44887Q98.194885 249.10512 98.194885 248.7145Q98.194885 248.30824 97.96051 248.01137Q97.726135 247.69887 97.194885 247.49574Q96.83551 247.35512 95.64801 247.07387Q94.476135 246.79262 94.007385 246.54262Q93.382385 246.2145 93.08551 245.74574Q92.788635 245.26137 92.788635 244.66762Q92.788635 244.027 93.14801 243.4645Q93.52301 242.88637 94.226135 242.60512Q94.944885 242.30824 95.80426 242.30824Q96.757385 242.30824 97.49176 242.62074Q98.226135 242.91762 98.61676 243.527Q99.007385 244.12074 99.038635 244.87074L97.944885 244.94887Q97.851135 244.13637 97.33551 243.73012Q96.83551 243.30824 95.851135 243.30824Q94.819885 243.30824 94.351135 243.68324Q93.882385 244.05824 93.882385 244.5895Q93.882385 245.05824 94.21051 245.35512Q94.538635 245.652 95.913635 245.9645Q97.30426 246.277 97.819885 246.51137Q98.569885 246.87074 98.92926 247.402Q99.288635 247.91762 99.288635 248.62074Q99.288635 249.30824 98.89801 249.91762Q98.507385 250.51137 97.77301 250.85512Q97.038635 251.18324 96.11676 251.18324Q94.944885 251.18324 94.14801 250.85512Q93.36676 250.51137 92.913635 249.82387Q92.476135 249.13637 92.46051 248.277ZM106.788635 251.04262L106.788635 248.98012L103.069885 248.98012L103.069885 248.01137L106.99176 242.44887L107.851135 242.44887L107.851135 248.01137L109.007385 248.01137L109.007385 248.98012L107.851135 248.98012L107.851135 251.04262L106.788635 251.04262ZM106.788635 248.01137L106.788635 244.152L104.101135 248.01137L106.788635 248.01137Z" fill-rule="nonzero"/><path fill="#000000" d="M82.80426 277.38184L82.80426 268.7881L84.52301 268.7881L86.55426 274.8662Q86.83551 275.7256 86.96051 276.14746Q87.101135 275.6787 87.413635 274.77246L89.476135 268.7881L91.007385 268.7881L91.007385 277.38184L89.913635 277.38184L89.913635 270.19434L87.413635 277.38184L86.382385 277.38184L83.89801 270.06934L83.89801 277.38184L82.80426 277.38184ZM92.46051 274.6162L93.52301 274.52246Q93.601135 275.1787 93.882385 275.58496Q94.163635 275.9912 94.74176 276.25684Q95.33551 276.50684 96.069885 276.50684Q96.71051 276.50684 97.21051 276.31934Q97.71051 276.1162 97.944885 275.7881Q98.194885 275.44434 98.194885 275.0537Q98.194885 274.64746 97.96051 274.3506Q97.726135 274.0381 97.194885 273.83496Q96.83551 273.69434 95.64801 273.4131Q94.476135 273.13184 94.007385 272.88184Q93.382385 272.5537 93.08551 272.08496Q92.788635 271.6006 92.788635 271.00684Q92.788635 270.3662 93.14801 269.8037Q93.52301 269.2256 94.226135 268.94434Q94.944885 268.64746 95.80426 268.64746Q96.757385 268.64746 97.49176 268.95996Q98.226135 269.25684 98.61676 269.8662Q99.007385 270.45996 99.038635 271.20996L97.944885 271.2881Q97.851135 270.4756 97.33551 270.06934Q96.83551 269.64746 95.851135 269.64746Q94.819885 269.64746 94.351135 270.02246Q93.882385 270.39746 93.882385 270.9287Q93.882385 271.39746 94.21051 271.69434Q94.538635 271.9912 95.913635 272.3037Q97.30426 272.6162 97.819885 272.8506Q98.569885 273.20996 98.92926 273.7412Q99.288635 274.25684 99.288635 274.95996Q99.288635 275.64746 98.89801 276.25684Q98.507385 276.8506 97.77301 277.19434Q97.038635 277.52246 96.11676 277.52246Q94.944885 277.52246 94.14801 277.19434Q93.36676 276.8506 92.913635 276.1631Q92.476135 275.4756 92.46051 274.6162ZM103.413635 275.13184L104.52301 275.0381Q104.64801 275.8506 105.08551 276.25684Q105.538635 276.6631 106.17926 276.6631Q106.92926 276.6631 107.46051 276.08496Q107.99176 275.50684 107.99176 274.56934Q107.99176 273.6631 107.476135 273.14746Q106.976135 272.6162 106.14801 272.6162Q105.64801 272.6162 105.226135 272.8506Q104.819885 273.08496 104.58551 273.44434L103.601135 273.31934L104.42926 268.9131L108.71051 268.9131L108.71051 269.9131L105.27301 269.9131L104.819885 272.2256Q105.58551 271.6787 106.42926 271.6787Q107.55426 271.6787 108.319885 272.45996Q109.101135 273.2412 109.101135 274.4756Q109.101135 275.63184 108.42926 276.4912Q107.601135 277.52246 106.17926 277.52246Q105.007385 277.52246 104.257385 276.8662Q103.52301 276.20996 103.413635 275.13184Z" fill-rule="nonzero"/><path fill="#000000" d="M86.33551 303.72104L84.05426 295.1273L85.226135 295.1273L86.538635 300.7679Q86.74176 301.6429 86.89801 302.5179Q87.226135 301.1429 87.288635 300.92416L88.913635 295.1273L90.288635 295.1273L91.52301 299.47104Q91.976135 301.09604 92.194885 302.5179Q92.351135 301.7054 92.61676 300.6429L93.96051 295.1273L95.101135 295.1273L92.757385 303.72104L91.64801 303.72104L89.851135 297.17416Q89.61676 296.36166 89.569885 296.17416Q89.444885 296.7523 89.319885 297.17416L87.507385 303.72104L86.33551 303.72104ZM95.83551 303.72104L95.83551 295.1273L99.08551 295.1273Q99.92926 295.1273 100.382385 295.2054Q101.02301 295.3148 101.444885 295.61166Q101.882385 295.90854 102.132385 296.4398Q102.39801 296.97104 102.39801 297.61166Q102.39801 298.7054 101.694885 299.47104Q101.007385 300.22104 99.17926 300.22104L96.976135 300.22104L96.976135 303.72104L95.83551 303.72104ZM96.976135 299.22104L99.194885 299.22104Q100.30426 299.22104 100.757385 298.8148Q101.226135 298.3929 101.226135 297.6429Q101.226135 297.11166 100.944885 296.73666Q100.67926 296.34604 100.24176 296.22104Q99.944885 296.1429 99.17926 296.1429L96.976135 296.1429L96.976135 299.22104ZM103.413635 301.47104L104.52301 301.3773Q104.64801 302.1898 105.08551 302.59604Q105.538635 303.0023 106.17926 303.0023Q106.92926 303.0023 107.46051 302.42416Q107.99176 301.84604 107.99176 300.90854Q107.99176 300.0023 107.476135 299.48666Q106.976135 298.9554 106.14801 298.9554Q105.64801 298.9554 105.226135 299.1898Q104.819885 299.42416 104.58551 299.78354L103.601135 299.65854L104.42926 295.2523L108.71051 295.2523L108.71051 296.2523L105.27301 296.2523L104.819885 298.5648Q105.58551 298.0179 106.42926 298.0179Q107.55426 298.0179 108.319885 298.79916Q109.101135 299.5804 109.101135 300.8148Q109.101135 301.97104 108.42926 302.8304Q107.601135 303.86166 106.17926 303.86166Q105.007385 303.86166 104.257385 303.2054Q103.52301 302.54916 103.413635 301.47104Z" fill-rule="nonzero"/><path fill="#000000" d="M112.913635 330.26562Q112.913635 328.73438 113.226135 327.8125Q113.538635 326.875 114.14801 326.375Q114.77301 325.875 115.71051 325.875Q116.39801 325.875 116.913635 326.15625Q117.444885 326.4375 117.788635 326.96875Q118.132385 327.48438 118.319885 328.23438Q118.507385 328.98438 118.507385 330.26562Q118.507385 331.78125 118.194885 332.70312Q117.89801 333.625 117.27301 334.14062Q116.663635 334.64062 115.71051 334.64062Q114.476135 334.64062 113.757385 333.75Q112.913635 332.6875 112.913635 330.26562ZM113.99176 330.26562Q113.99176 332.375 114.49176 333.07812Q114.99176 333.78125 115.71051 333.78125Q116.444885 333.78125 116.92926 333.07812Q117.42926 332.375 117.42926 330.26562Q117.42926 328.14062 116.92926 327.45312Q116.444885 326.75 115.694885 326.75Q114.976135 326.75 114.538635 327.35938Q113.99176 328.14062 113.99176 330.26562Z" fill-rule="nonzero"/><path fill="#000000" d="M171.10568 332.23438L172.16818 332.09375Q172.34006 332.98438 172.77756 333.39062Q173.21506 333.78125 173.84006 333.78125Q174.59006 333.78125 175.10568 333.26562Q175.6213 332.75 175.6213 331.98438Q175.6213 331.26562 175.13693 330.79688Q174.66818 330.3125 173.9338 330.3125Q173.63693 330.3125 173.1838 330.4375L173.3088 329.5Q173.41818 329.51562 173.48068 329.51562Q174.15256 329.51562 174.6838 329.17188Q175.23068 328.8125 175.23068 328.07812Q175.23068 327.5 174.84006 327.125Q174.44943 326.73438 173.82443 326.73438Q173.21506 326.73438 172.79318 327.125Q172.38693 327.51562 172.27756 328.28125L171.21506 328.09375Q171.40256 327.04688 172.09006 326.46875Q172.77756 325.875 173.79318 325.875Q174.4963 325.875 175.09006 326.1875Q175.6838 326.48438 175.9963 327.0Q176.3088 327.51562 176.3088 328.10938Q176.3088 328.65625 176.01193 329.125Q175.71506 329.57812 175.13693 329.84375Q175.88693 330.01562 176.3088 330.57812Q176.73068 331.125 176.73068 331.96875Q176.73068 333.09375 175.90256 333.875Q175.09006 334.65625 173.84006 334.65625Q172.71506 334.65625 171.96506 333.98438Q171.21506 333.29688 171.10568 332.23438Z" fill-rule="nonzero"/><path fill="#000000" d="M234.76648 328.01562L233.7196 328.09375Q233.57898 327.46875 233.32898 327.1875Q232.89148 326.73438 232.26648 326.73438Q231.76648 326.73438 231.37585 327.01562Q230.89148 327.39062 230.5946 328.09375Q230.31335 328.78125 230.29773 330.0625Q230.67273 329.48438 231.2196 329.20312Q231.7821 328.92188 232.39148 328.92188Q233.43835 328.92188 234.17273 329.70312Q234.92273 330.48438 234.92273 331.70312Q234.92273 332.51562 234.56335 333.21875Q234.2196 333.90625 233.61023 334.28125Q233.00085 334.64062 232.23523 334.64062Q230.9071 334.64062 230.07898 333.67188Q229.25085 332.70312 229.25085 330.48438Q229.25085 327.98438 230.17273 326.85938Q230.9696 325.875 232.32898 325.875Q233.3446 325.875 233.98523 326.45312Q234.64148 327.01562 234.76648 328.01562ZM230.4696 331.71875Q230.4696 332.26562 230.68835 332.76562Q230.92273 333.25 231.32898 333.51562Q231.75085 333.78125 232.2196 333.78125Q232.87585 333.78125 233.36023 333.25Q233.8446 332.70312 233.8446 331.78125Q233.8446 330.89062 233.36023 330.375Q232.89148 329.85938 232.17273 329.85938Q231.45398 329.85938 230.95398 330.375Q230.4696 330.89062 230.4696 331.71875Z" fill-rule="nonzero"/><path fill="#000000" d="M287.64603 332.51562L288.66165 332.42188Q288.78665 333.14062 289.14603 333.46875Q289.52103 333.78125 290.08353 333.78125Q290.5679 333.78125 290.92728 333.5625Q291.30228 333.32812 291.53665 332.96875Q291.77103 332.59375 291.92728 331.96875Q292.08353 331.32812 292.08353 330.67188Q292.08353 330.59375 292.08353 330.45312Q291.77103 330.95312 291.22415 331.28125Q290.67728 331.59375 290.03665 331.59375Q288.95853 331.59375 288.22415 330.82812Q287.48978 330.04688 287.48978 328.78125Q287.48978 327.46875 288.2554 326.67188Q289.03665 325.875 290.1929 325.875Q291.02103 325.875 291.70853 326.32812Q292.41165 326.78125 292.77103 327.625Q293.1304 328.45312 293.1304 330.03125Q293.1304 331.67188 292.77103 332.65625Q292.42728 333.625 291.70853 334.14062Q291.0054 334.64062 290.0679 334.64062Q289.05228 334.64062 288.41165 334.09375Q287.77103 333.53125 287.64603 332.51562ZM291.95853 328.71875Q291.95853 327.8125 291.47415 327.28125Q291.0054 326.75 290.3179 326.75Q289.61478 326.75 289.08353 327.32812Q288.5679 327.89062 288.5679 328.8125Q288.5679 329.625 289.0679 330.14062Q289.5679 330.65625 290.28665 330.65625Q291.02103 330.65625 291.48978 330.14062Q291.95853 329.625 291.95853 328.71875Z" fill-rule="nonzero"/><path fill="#000000" d="M346.15057 334.5L345.1037 334.5L345.1037 327.78125Q344.71307 328.14062 344.08807 328.51562Q343.4787 328.875 342.99432 329.04688L342.99432 328.03125Q343.86932 327.60938 344.52557 327.03125Q345.19745 326.4375 345.4787 325.875L346.15057 325.875L346.15057 334.5ZM354.7287 333.48438L354.7287 334.5L349.0412 334.5Q349.0412 334.125 349.1662 333.76562Q349.38495 333.1875 349.8537 332.625Q350.33807 332.0625 351.24432 331.32812Q352.65057 330.17188 353.13495 329.5Q353.63495 328.82812 353.63495 328.23438Q353.63495 327.60938 353.18182 327.1875Q352.7287 326.75 352.00995 326.75Q351.24432 326.75 350.7912 327.20312Q350.33807 327.65625 350.32245 328.46875L349.24432 328.35938Q349.3537 327.14062 350.07245 326.51562Q350.80682 325.875 352.0412 325.875Q353.27557 325.875 353.99432 326.5625Q354.71307 327.25 354.71307 328.26562Q354.71307 328.78125 354.49432 329.28125Q354.2912 329.76562 353.7912 330.32812Q353.30682 330.875 352.18182 331.82812Q351.2287 332.625 350.94745 332.92188Q350.68182 333.20312 350.50995 333.48438L354.7287 333.48438Z" fill-rule="nonzero"/><path fill="#000000" d="M404.34262 334.5L403.29575 334.5L403.29575 327.78125Q402.90512 328.14062 402.28012 328.51562Q401.67075 328.875 401.18637 329.04688L401.18637 328.03125Q402.06137 327.60938 402.71762 327.03125Q403.3895 326.4375 403.67075 325.875L404.34262 325.875L404.34262 334.5ZM407.37387 332.25L408.48325 332.15625Q408.60825 332.96875 409.04575 333.375Q409.49887 333.78125 410.1395 333.78125Q410.8895 333.78125 411.42075 333.20312Q411.952 332.625 411.952 331.6875Q411.952 330.78125 411.43637 330.26562Q410.93637 329.73438 410.10825 329.73438Q409.60825 329.73438 409.18637 329.96875Q408.78012 330.20312 408.54575 330.5625L407.56137 330.4375L408.3895 326.03125L412.67075 326.03125L412.67075 327.03125L409.23325 327.03125L408.78012 329.34375Q409.54575 328.79688 410.3895 328.79688Q411.5145 328.79688 412.28012 329.57812Q413.06137 330.35938 413.06137 331.59375Q413.06137 332.75 412.3895 333.60938Q411.56137 334.64062 410.1395 334.64062Q408.96762 334.64062 408.21762 333.98438Q407.48325 333.32812 407.37387 332.25Z" fill-rule="nonzero"/><path fill="#000000" d="M462.53467 334.5L461.4878 334.5L461.4878 327.78125Q461.09717 328.14062 460.47217 328.51562Q459.8628 328.875 459.37842 329.04688L459.37842 328.03125Q460.25342 327.60938 460.90967 327.03125Q461.58154 326.4375 461.8628 325.875L462.53467 325.875L462.53467 334.5ZM467.19092 329.84375Q466.53467 329.59375 466.20654 329.15625Q465.89404 328.70312 465.89404 328.09375Q465.89404 327.15625 466.56592 326.51562Q467.25342 325.875 468.3628 325.875Q469.4878 325.875 470.1753 326.53125Q470.8628 327.1875 470.8628 328.125Q470.8628 328.71875 470.5503 329.15625Q470.2378 329.59375 469.59717 329.84375Q470.39404 330.09375 470.8003 330.67188Q471.20654 331.25 471.20654 332.04688Q471.20654 333.14062 470.4253 333.89062Q469.65967 334.64062 468.37842 334.64062Q467.1128 334.64062 466.33154 333.89062Q465.5503 333.14062 465.5503 332.01562Q465.5503 331.17188 465.97217 330.60938Q466.40967 330.04688 467.19092 329.84375ZM466.97217 328.04688Q466.97217 328.65625 467.3628 329.04688Q467.76904 329.4375 468.39404 329.4375Q469.00342 329.4375 469.39404 329.0625Q469.78467 328.67188 469.78467 328.10938Q469.78467 327.53125 469.37842 327.14062Q468.97217 326.73438 468.37842 326.73438Q467.76904 326.73438 467.3628 327.125Q466.97217 327.51562 466.97217 328.04688ZM466.64404 332.01562Q466.64404 332.46875 466.84717 332.89062Q467.06592 333.3125 467.4878 333.54688Q467.90967 333.78125 468.39404 333.78125Q469.14404 333.78125 469.62842 333.29688Q470.12842 332.8125 470.12842 332.0625Q470.12842 331.29688 469.62842 330.79688Q469.12842 330.29688 468.3628 330.29688Q467.6128 330.29688 467.12842 330.79688Q466.64404 331.28125 466.64404 332.01562Z" fill-rule="nonzero"/><path fill="#000000" d="M522.3048 333.48438L522.3048 334.5L516.6173 334.5Q516.6173 334.125 516.7423 333.76562Q516.96106 333.1875 517.4298 332.625Q517.9142 332.0625 518.82043 331.32812Q520.2267 330.17188 520.71106 329.5Q521.21106 328.82812 521.21106 328.23438Q521.21106 327.60938 520.75793 327.1875Q520.3048 326.75 519.58606 326.75Q518.82043 326.75 518.3673 327.20312Q517.9142 327.65625 517.89856 328.46875L516.82043 328.35938Q516.9298 327.14062 517.64856 326.51562Q518.38293 325.875 519.6173 325.875Q520.8517 325.875 521.57043 326.5625Q522.2892 327.25 522.2892 328.26562Q522.2892 328.78125 522.07043 329.28125Q521.8673 329.76562 521.3673 330.32812Q520.88293 330.875 519.75793 331.82812Q518.8048 332.625 518.52356 332.92188Q518.25793 333.20312 518.08606 333.48438L522.3048 333.48438ZM527.7267 334.5L526.6798 334.5L526.6798 327.78125Q526.2892 328.14062 525.6642 328.51562Q525.0548 328.875 524.57043 329.04688L524.57043 328.03125Q525.44543 327.60938 526.1017 327.03125Q526.77356 326.4375 527.0548 325.875L527.7267 325.875L527.7267 334.5Z" fill-rule="nonzero"/><path fill="#000000" d="M580.4969 333.48438L580.4969 334.5L574.8094 334.5Q574.8094 334.125 574.9344 333.76562Q575.15314 333.1875 575.6219 332.625Q576.10626 332.0625 577.0125 331.32812Q578.41876 330.17188 578.90314 329.5Q579.40314 328.82812 579.40314 328.23438Q579.40314 327.60938 578.95 327.1875Q578.4969 326.75 577.77814 326.75Q577.0125 326.75 576.5594 327.20312Q576.10626 327.65625 576.09064 328.46875L575.0125 328.35938Q575.1219 327.14062 575.84064 326.51562Q576.575 325.875 577.8094 325.875Q579.04376 325.875 579.7625 326.5625Q580.48126 327.25 580.48126 328.26562Q580.48126 328.78125 580.2625 329.28125Q580.0594 329.76562 579.5594 330.32812Q579.075 330.875 577.95 331.82812Q576.9969 332.625 576.71564 332.92188Q576.45 333.20312 576.27814 333.48438L580.4969 333.48438ZM585.325 334.5L585.325 332.4375L581.60626 332.4375L581.60626 331.46875L585.52814 325.90625L586.3875 325.90625L586.3875 331.46875L587.54376 331.46875L587.54376 332.4375L586.3875 332.4375L586.3875 334.5L585.325 334.5ZM585.325 331.46875L585.325 327.60938L582.6375 331.46875L585.325 331.46875Z" fill-rule="nonzero"/></svg>