<svg version="1.1" viewBox="0.0 0.0 600.0 371.0" fill="none" stroke="none" stroke-linecap="square" stroke-miterlimit="10" width="600" height="371" xmlns:xlink="http://www.w3.org/1999/xlink" xmlns="http://www.w3.org/2000/svg"><path fill="#ffffff" d="M0 0L600.0 0L600.0 371.0L0 371.0L0 0Z" fill-rule="nonzero"/><path stroke="#333333" stroke-width="1.0" stroke-linecap="butt" d="M115.5 18.5L115.5 317.5" fill-rule="nonzero"/><path stroke="#cccccc" stroke-width="1.0" stroke-linecap="butt" d="M174.5 18.5L174.5 317.5" fill-rule="nonzero"/><path stroke="#cccccc" stroke-width="1.0" stroke-linecap="butt" d="M232.5 18.5L232.5 317.5" fill-rule="nonzero"/><path stroke="#cccccc" stroke-width="1.0" stroke-linecap="butt" d="M290.5 18.5L290.5 317.5" fill-rule="nonzero"/><path stroke="#cccccc" stroke-width="1.0" stroke-linecap="butt" d="M348.5 18.5L348.5 317.5" fill-rule="nonzero"/><path stroke="#cccccc" stroke-width="1.0" stroke-linecap="butt" d="M406.5 18.5L406.5 317.5" fill-rule="nonzero"/><path stroke="#cccccc" stroke-width="1.0" stroke-linecap="butt" d="M465.5 18.5L465.5 317.5" fill-rule="nonzero"/><path stroke="#cccccc" stroke-width="1.0" stroke-linecap="butt" d="M523.5 18.5L523.5 317.5" fill-rule="nonzero"/><path stroke="#cccccc" stroke-width="1.0" stroke-linecap="butt" d="M581.5 18.5L581.5 317.5" fill-rule="nonzero"/><clipPath id="id_0"><path d="M115.913635 18.55L581.45 18.55L581.45 317.5L115.913635 317.5L115.913635 18.55Z" clip-rule="nonzero"/></clipPath><path stroke="#000000" stroke-width="2.0" stroke-linecap="butt" stroke-opacity="0.0" clip-path="url(#id_0)" d="M116.0 36.0L116.0 25.0L116.0 25.0L116.0 36.0Z" fill-rule="nonzero"/><path fill="#000000" fill-opacity="0.0" clip-path="url(#id_0)" d="M116.0 36.0L116.0 25.0L116.0 25.0L116.0 36.0Z" fill-rule="nonzero"/><path stroke="#000000" stroke-width="2.0" stroke-linecap="butt" stroke-opacity="0.0" clip-path="url(#id_0)" d="M116.0 52.0L116.0 41.0L347.0 41.0L347.0 52.0Z" fill-rule="nonzero"/><path fill="#000000" fill-opacity="0.0" clip-path="url(#id_0)" d="M116.0 52.0L116.0 41.0L347.0 41.0L347.0 52.0Z" fill-rule="nonzero"/><path stroke="#000000" stroke-width="2.0" stroke-linecap="butt" stroke-opacity="0.0" clip-path="url(#id_0)" d="M116.0 68.0L116.0 57.0L580.0 57.0L580.0 68.0Z" fill-rule="nonzero"/><path fill="#000000" fill-opacity="0.0" clip-path="url(#id_0)" d="M116.0 68.0L116.0 57.0L580.0 57.0L580.0 68.0Z" fill-rule="nonzero"/><path stroke="#000000" stroke-width="2.0" stroke-linecap="butt" stroke-opacity="0.0" clip-path="url(#id_0)" d="M116.0 84.0L116.0 73.0L135.0 73.0L135.0 84.0Z" fill-rule="nonzero"/><path fill="#000000" fill-opacity="0.0" clip-path="url(#id_0)" d="M116.0 84.0L116.0 73.0L135.0 73.0L135.0 84.0Z" fill-rule="nonzero"/><path stroke="#000000" stroke-width="2.0" stroke-linecap="butt" stroke-opacity="0.0" clip-path="url(#id_0)" d="M116.0 101.0L116.0 90.0L192.0 90.0L192.0 101.0Z" fill-rule="nonzero"/><path fill="#000000" fill-opacity="0.0" clip-path="url(#id_0)" d="M116.0 101.0L116.0 90.0L192.0 90.0L192.0 101.0Z" fill-rule="nonzero"/><path stroke="#000000" stroke-width="2.0" stroke-linecap="butt" stroke-opacity="0.0" clip-path="url(#id_0)" d="M116.0 117.0L116.0 106.0L194.0 106.0L194.0 117.0Z" fill-rule="nonzero"/><path fill="#000000" fill-opacity="0.0" clip-path="url(#id_0)" d="M116.0 117.0L116.0 106.0L194.0 106.0L194.0 117.0Z" fill-rule="nonzero"/><path stroke="#000000" stroke-width="2.0" stroke-linecap="butt" stroke-opacity="0.0" clip-path="url(#id_0)" d="M116.0 133.0L116.0 122.0L269.0 122.0L269.0 133.0Z" fill-rule="nonzero"/><path fill="#000000" fill-opacity="0.0" clip-path="url(#id_0)" d="M116.0 133.0L116.0 122.0L269.0 122.0L269.0 133.0Z" fill-rule="nonzero"/><path stroke="#000000" stroke-width="2.0" stroke-linecap="butt" stroke-opacity="0.0" clip-path="url(#id_0)" d="M116.0 150.0L116.0 139.0L135.0 139.0L135.0 150.0Z" fill-rule="nonzero"/><path fill="#000000" fill-opacity="0.0" clip-path="url(#id_0)" d="M116.0 150.0L116.0 139.0L135.0 139.0L135.0 150.0Z" fill-rule="nonzero"/><path stroke="#000000" stroke-width="2.0" stroke-linecap="butt" stroke-opacity="0.0" clip-path="url(#id_0)" d="M116.0 166.0L116.0 155.0L327.0 155.0L327.0 166.0Z" fill-rule="nonzero"/><path fill="#000000" fill-opacity="0.0" clip-path="url(#id_0)" d="M116.0 166.0L116.0 155.0L327.0 155.0L327.0 166.0Z" fill-rule="nonzero"/><path stroke="#000000" stroke-width="2.0" stroke-linecap="butt" stroke-opacity="0.0" clip-path="url(#id_0)" d="M116.0 182.0L116.0 171.0L329.0 171.0L329.0 182.0Z" fill-rule="nonzero"/><path fill="#000000" fill-opacity="0.0" clip-path="url(#id_0)" d="M116.0 182.0L116.0 171.0L329.0 171.0L329.0 182.0Z" fill-rule="nonzero"/><path stroke="#000000" stroke-width="2.0" stroke-linecap="butt" stroke-opacity="0.0" clip-path="url(#id_0)" d="M116.0 198.0L116.0 187.0L444.0 187.0L444.0 198.0Z" fill-rule="nonzero"/><path fill="#000000" fill-opacity="0.0" clip-path="url(#id_0)" d="M116.0 198.0L116.0 187.0L444.0 187.0L444.0 198.0Z" fill-rule="nonzero"/><path stroke="#000000" stroke-width="2.0" stroke-linecap="butt" stroke-opacity="0.0" clip-path="url(#id_0)" d="M116.0 215.0L116.0 204.0L506.0 204.0L506.0 215.0Z" fill-rule="nonzero"/><path fill="#000000" fill-opacity="0.0" clip-path="url(#id_0)" d="M116.0 215.0L116.0 204.0L506.0 204.0L506.0 215.0Z" fill-rule="nonzero"/><path stroke="#000000" stroke-width="2.0" stroke-linecap="butt" stroke-opacity="0.0" clip-path="url(#id_0)" d="M116.0 231.0L116.0 220.0L116.0 220.0L116.0 231.0Z" fill-rule="nonzero"/><path fill="#000000" fill-opacity="0.0" clip-path="url(#id_0)" d="M116.0 231.0L116.0 220.0L116.0 220.0L116.0 231.0Z" fill-rule="nonzero"/><path stroke="#000000" stroke-width="2.0" stroke-linecap="butt" stroke-opacity="0.0" clip-path="url(#id_0)" d="M116.0 247.0L116.0 236.0L368.0 236.0L368.0 247.0Z" fill-rule="nonzero"/><path fill="#000000" fill-opacity="0.0" clip-path="url(#id_0)" d="M116.0 247.0L116.0 236.0L368.0 236.0L368.0 247.0Z" fill-rule="nonzero"/><path stroke="#000000" stroke-width="2.0" stroke-linecap="butt" stroke-opacity="0.0" clip-path="url(#id_0)" d="M116.0 264.0L116.0 253.0L543.0 253.0L543.0 264.0Z" fill-rule="nonzero"/><path fill="#000000" fill-opacity="0.0" clip-path="url(#id_0)" d="M116.0 264.0L116.0 253.0L543.0 253.0L543.0 264.0Z" fill-rule="nonzero"/><path stroke="#000000" stroke-width="2.0" stroke-linecap="butt" stroke-opacity="0.0" clip-path="url(#id_0)" d="M116.0 280.0L116.0 269.0L580.0 269.0L580.0 280.0Z" fill-rule="nonzero"/><path fill="#000000" fill-opacity="0.0" clip-path="url(#id_0)" d="M116.0 280.0L116.0 269.0L580.0 269.0L580.0 280.0Z" fill-rule="nonzero"/><path stroke="#000000" stroke-width="2.0" stroke-linecap="butt" stroke-opacity="0.0" clip-path="url(#id_0)" d="M116.0 296.0L116.0 285.0L347.0 285.0L347.0 296.0Z" fill-rule="nonzero"/><path fill="#000000" fill-opacity="0.0" clip-path="url(#id_0)" d="M116.0 296.0L116.0 285.0L347.0 285.0L347.0 296.0Z" fill-rule="nonzero"/><path stroke="#000000" stroke-width="2.0" stroke-linecap="butt" stroke-opacity="0.0" clip-path="url(#id_0)" d="M116.0 313.0L116.0 302.0L580.0 302.0L580.0 313.0Z" fill-rule="nonzero"/><path fill="#000000" fill-opacity="0.0" clip-path="url(#id_0)" d="M116.0 313.0L116.0 302.0L580.0 302.0L580.0 313.0Z" fill-rule="nonzero"/><path stroke="#000000" stroke-width="2.0" stroke-linecap="butt" stroke-opacity="0.0" clip-path="url(#id_0)" d="M116.0 36.0L116.0 25.0L579.0 25.0C580.10455 25.0 581.0 25.89543 581.0 27.0L581.0 34.0C581.0 35.10457 580.10455 36.0 579.0 36.0Z" fill-rule="nonzero"/><path fill="#4285f4" clip-path="url(#id_0)" d="M116.0 36.0L116.0 25.0L579.0 25.0C580.10455 25.0 581.0 25.89543 581.0 27.0L581.0 34.0C581.0 35.10457 580.10455 36.0 579.0 36.0Z" fill-rule="nonzero"/><path stroke="#000000" stroke-width="2.0" stroke-linecap="butt" stroke-opacity="0.0" clip-path="url(#id_0)" d="M347.0 52.0L347.0 41.0L349.0 41.0C350.10458 41.0 351.0 41.89543 351.0 43.0L351.0 50.0C351.0 51.10457 350.10458 52.0 349.0 52.0Z" fill-rule="nonzero"/><path fill="#cccccc" clip-path="url(#id_0)" d="M347.0 52.0L347.0 41.0L349.0 41.0C350.10458 41.0 351.0 41.89543 351.0 43.0L351.0 50.0C351.0 51.10457 350.10458 52.0 349.0 52.0Z" fill-rule="nonzero"/><path stroke="#000000" stroke-width="2.0" stroke-linecap="butt" stroke-opacity="0.0" clip-path="url(#id_0)" d="M580.0 68.0L580.0 57.0L581.5 57.0C582.3284 57.0 583.0 57.671574 583.0 58.5L583.0 66.5C583.0 67.32843 582.3284 68.0 581.5 68.0Z" fill-rule="nonzero"/><path fill="#b7b7b7" clip-path="url(#id_0)" d="M580.0 68.0L580.0 57.0L581.5 57.0C582.3284 57.0 583.0 57.671574 583.0 58.5L583.0 66.5C583.0 67.32843 582.3284 68.0 581.5 68.0Z" fill-rule="nonzero"/><path stroke="#000000" stroke-width="2.0" stroke-linecap="butt" stroke-opacity="0.0" clip-path="url(#id_0)" d="M135.0 84.0L135.0 73.0L192.0 73.0C193.10457 73.0 194.0 73.89543 194.0 75.0L194.0 82.0C194.0 83.10457 193.10457 84.0 192.0 84.0Z" fill-rule="nonzero"/><path fill="#ea9999" clip-path="url(#id_0)" d="M135.0 84.0L135.0 73.0L192.0 73.0C193.10457 73.0 194.0 73.89543 194.0 75.0L194.0 82.0C194.0 83.10457 193.10457 84.0 192.0 84.0Z" fill-rule="nonzero"/><path stroke="#000000" stroke-width="2.0" stroke-linecap="butt" stroke-opacity="0.0" clip-path="url(#id_0)" d="M192.0 101.0L192.0 90.0L193.5 90.0C194.32843 90.0 195.0 90.67157 195.0 91.5L195.0 99.5C195.0 100.32843 194.32843 101.0 193.5 101.0Z" fill-rule="nonzero"/><path fill="#b7b7b7" clip-path="url(#id_0)" d="M192.0 101.0L192.0 90.0L193.5 90.0C194.32843 90.0 195.0 90.67157 195.0 91.5L195.0 99.5C195.0 100.32843 194.32843 101.0 193.5 101.0Z" fill-rule="nonzero"/><path stroke="#000000" stroke-width="2.0" stroke-linecap="butt" stroke-opacity="0.0" clip-path="url(#id_0)" d="M194.0 117.0L194.0 106.0L269.0 106.0C270.10458 106.0 271.0 106.89543 271.0 108.0L271.0 115.0C271.0 116.10457 270.10458 117.0 269.0 117.0Z" fill-rule="nonzero"/><path fill="#ea9999" clip-path="url(#id_0)" d="M194.0 117.0L194.0 106.0L269.0 106.0C270.10458 106.0 271.0 106.89543 271.0 108.0L271.0 115.0C271.0 116.10457 270.10458 117.0 269.0 117.0Z" fill-rule="nonzero"/><path stroke="#000000" stroke-width="2.0" stroke-linecap="butt" stroke-opacity="0.0" clip-path="url(#id_0)" d="M269.0 133.0L269.0 122.0L271.0 122.0C272.10458 122.0 273.0 122.89543 273.0 124.0L273.0 131.0C273.0 132.10457 272.10458 133.0 271.0 133.0Z" fill-rule="nonzero"/><path fill="#b7b7b7" clip-path="url(#id_0)" d="M269.0 133.0L269.0 122.0L271.0 122.0C272.10458 122.0 273.0 122.89543 273.0 124.0L273.0 131.0C273.0 132.10457 272.10458 133.0 271.0 133.0Z" fill-rule="nonzero"/><path stroke="#000000" stroke-width="2.0" stroke-linecap="butt" stroke-opacity="0.0" clip-path="url(#id_0)" d="M135.0 150.0L135.0 139.0L327.0 139.0C328.10458 139.0 329.0 139.89543 329.0 141.0L329.0 148.0C329.0 149.10457 328.10458 150.0 327.0 150.0Z" fill-rule="nonzero"/><path fill="#ea9999" clip-path="url(#id_0)" d="M135.0 150.0L135.0 139.0L327.0 139.0C328.10458 139.0 329.0 139.89543 329.0 141.0L329.0 148.0C329.0 149.10457 328.10458 150.0 327.0 150.0Z" fill-rule="nonzero"/><path stroke="#000000" stroke-width="2.0" stroke-linecap="butt" stroke-opacity="0.0" clip-path="url(#id_0)" d="M327.0 166.0L327.0 155.0L329.0 155.0C330.10458 155.0 331.0 155.89543 331.0 157.0L331.0 164.0C331.0 165.10457 330.10458 166.0 329.0 166.0Z" fill-rule="nonzero"/><path fill="#b7b7b7" clip-path="url(#id_0)" d="M327.0 166.0L327.0 155.0L329.0 155.0C330.10458 155.0 331.0 155.89543 331.0 157.0L331.0 164.0C331.0 165.10457 330.10458 166.0 329.0 166.0Z" fill-rule="nonzero"/><path stroke="#000000" stroke-width="2.0" stroke-linecap="butt" stroke-opacity="0.0" clip-path="url(#id_0)" d="M329.0 182.0L329.0 171.0L579.0 171.0C580.10455 171.0 581.0 171.89543 581.0 173.0L581.0 180.0C581.0 181.10457 580.10455 182.0 579.0 182.0Z" fill-rule="nonzero"/><path fill="#ea9999" clip-path="url(#id_0)" d="M329.0 182.0L329.0 171.0L579.0 171.0C580.10455 171.0 581.0 171.89543 581.0 173.0L581.0 180.0C581.0 181.10457 580.10455 182.0 579.0 182.0Z" fill-rule="nonzero"/><path stroke="#000000" stroke-width="2.0" stroke-linecap="butt" stroke-opacity="0.0" clip-path="url(#id_0)" d="M444.0 198.0L444.0 187.0L446.0 187.0C447.10458 187.0 448.0 187.89543 448.0 189.0L448.0 196.0C448.0 197.10457 447.10458 198.0 446.0 198.0Z" fill-rule="nonzero"/><path fill="#b7b7b7" clip-path="url(#id_0)" d="M444.0 198.0L444.0 187.0L446.0 187.0C447.10458 187.0 448.0 187.89543 448.0 189.0L448.0 196.0C448.0 197.10457 447.10458 198.0 446.0 198.0Z" fill-rule="nonzero"/><path stroke="#000000" stroke-width="2.0" stroke-linecap="butt" stroke-opacity="0.0" clip-path="url(#id_0)" d="M506.0 215.0L506.0 204.0L508.0 204.0C509.10458 204.0 510.0 204.89543 510.0 206.0L510.0 213.0C510.0 214.10457 509.10458 215.0 508.0 215.0Z" fill-rule="nonzero"/><path fill="#b7b7b7" clip-path="url(#id_0)" d="M506.0 215.0L506.0 204.0L508.0 204.0C509.10458 204.0 510.0 204.89543 510.0 206.0L510.0 213.0C510.0 214.10457 509.10458 215.0 508.0 215.0Z" fill-rule="nonzero"/><path stroke="#000000" stroke-width="2.0" stroke-linecap="butt" stroke-opacity="0.0" clip-path="url(#id_0)" d="M116.0 231.0L116.0 220.0L579.0 220.0C580.10455 220.0 581.0 220.89543 581.0 222.0L581.0 229.0C581.0 230.10457 580.10455 231.0 579.0 231.0Z" fill-rule="nonzero"/><path fill="#4a86e8" clip-path="url(#id_0)" d="M116.0 231.0L116.0 220.0L579.0 220.0C580.10455 220.0 581.0 220.89543 581.0 222.0L581.0 229.0C581.0 230.10457 580.10455 231.0 579.0 231.0Z" fill-rule="nonzero"/><path stroke="#000000" stroke-width="2.0" stroke-linecap="butt" stroke-opacity="0.0" clip-path="url(#id_0)" d="M368.0 247.0L368.0 236.0L370.0 236.0C371.10458 236.0 372.0 236.89543 372.0 238.0L372.0 245.0C372.0 246.10457 371.10458 247.0 370.0 247.0Z" fill-rule="nonzero"/><path fill="#b7b7b7" clip-path="url(#id_0)" d="M368.0 247.0L368.0 236.0L370.0 236.0C371.10458 236.0 372.0 236.89543 372.0 238.0L372.0 245.0C372.0 246.10457 371.10458 247.0 370.0 247.0Z" fill-rule="nonzero"/><path stroke="#000000" stroke-width="2.0" stroke-linecap="butt" stroke-opacity="0.0" clip-path="url(#id_0)" d="M543.0 264.0L543.0 253.0L545.0 253.0C546.10455 253.0 547.0 253.89543 547.0 255.0L547.0 262.0C547.0 263.10458 546.10455 264.0 545.0 264.0Z" fill-rule="nonzero"/><path fill="#b7b7b7" clip-path="url(#id_0)" d="M543.0 264.0L543.0 253.0L545.0 253.0C546.10455 253.0 547.0 253.89543 547.0 255.0L547.0 262.0C547.0 263.10458 546.10455 264.0 545.0 264.0Z" fill-rule="nonzero"/><path stroke="#000000" stroke-width="2.0" stroke-linecap="butt" stroke-opacity="0.0" clip-path="url(#id_0)" d="M580.0 280.0L580.0 269.0L581.5 269.0C582.3284 269.0 583.0 269.67157 583.0 270.5L583.0 278.5C583.0 279.32843 582.3284 280.0 581.5 280.0Z" fill-rule="nonzero"/><path fill="#b7b7b7" clip-path="url(#id_0)" d="M580.0 280.0L580.0 269.0L581.5 269.0C582.3284 269.0 583.0 269.67157 583.0 270.5L583.0 278.5C583.0 279.32843 582.3284 280.0 581.5 280.0Z" fill-rule="nonzero"/><path stroke="#000000" stroke-width="2.0" stroke-linecap="butt" stroke-opacity="0.0" clip-path="url(#id_0)" d="M347.0 296.0L347.0 285.0L349.0 285.0C350.10458 285.0 351.0 285.89542 351.0 287.0L351.0 294.0C351.0 295.10458 350.10458 296.0 349.0 296.0Z" fill-rule="nonzero"/><path fill="#b7b7b7" clip-path="url(#id_0)" d="M347.0 296.0L347.0 285.0L349.0 285.0C350.10458 285.0 351.0 285.89542 351.0 287.0L351.0 294.0C351.0 295.10458 350.10458 296.0 349.0 296.0Z" fill-rule="nonzero"/><path stroke="#000000" stroke-width="2.0" stroke-linecap="butt" stroke-opacity="0.0" clip-path="url(#id_0)" d="M580.0 313.0L580.0 302.0L581.5 302.0C582.3284 302.0 583.0 302.67157 583.0 303.5L583.0 311.5C583.0 312.32843 582.3284 313.0 581.5 313.0Z" fill-rule="nonzero"/><path fill="#b7b7b7" clip-path="url(#id_0)" d="M580.0 313.0L580.0 302.0L581.5 302.0C582.3284 302.0 583.0 302.67157 583.0 303.5L583.0 311.5C583.0 312.32843 582.3284 313.0 581.5 313.0Z" fill-rule="nonzero"/><path fill="#000000" d="M299.88495 362.45L299.88495 351.7469L296.07245 351.7469L296.07245 349.5594L306.30682 349.5594L306.30682 351.7469L302.49432 351.7469L302.49432 362.45L299.88495 362.45ZM307.9787 351.85626L307.9787 349.5594L310.44745 349.5594L310.44745 351.85626L307.9787 351.85626ZM307.9787 362.45L307.9787 353.1219L310.44745 353.1219L310.44745 362.45L307.9787 362.45ZM312.7912 353.1219L315.07245 353.1219L315.07245 354.3875Q316.2912 352.90314 317.9787 352.90314Q318.86932 352.90314 319.52557 353.27814Q320.19745 353.6375 320.61932 354.3875Q321.2287 353.6375 321.93182 353.27814Q322.65057 352.90314 323.46307 352.90314Q324.49432 352.90314 325.19745 353.325Q325.9162 353.7469 326.25995 354.54376Q326.52557 355.15314 326.52557 356.48126L326.52557 362.45L324.0412 362.45L324.0412 357.1219Q324.0412 355.73126 323.7912 355.325Q323.44745 354.79376 322.74432 354.79376Q322.21307 354.79376 321.75995 355.1219Q321.30682 355.4344 321.1037 356.04376Q320.90057 356.65314 320.90057 357.96564L320.90057 362.45L318.43182 362.45L318.43182 357.34064Q318.43182 355.96564 318.2912 355.575Q318.1662 355.1844 317.88495 354.9969Q317.61932 354.79376 317.13495 354.79376Q316.57245 354.79376 316.1037 355.10626Q315.65057 355.40314 315.44745 355.9969Q315.25995 356.575 315.25995 357.91876L315.25995 362.45L312.7912 362.45L312.7912 353.1219ZM334.38495 359.48126L336.83807 359.8875Q336.36932 361.2469 335.33807 361.96564Q334.32245 362.66876 332.77557 362.66876Q330.33807 362.66876 329.18182 361.075Q328.25995 359.79376 328.25995 357.85626Q328.25995 355.52814 329.46307 354.21564Q330.68182 352.90314 332.5412 352.90314Q334.61932 352.90314 335.82245 354.27814Q337.02557 355.65314 336.9787 358.4969L330.7912 358.4969Q330.80682 359.59064 331.36932 360.2Q331.94745 360.8094 332.80682 360.8094Q333.38495 360.8094 333.77557 360.4969Q334.18182 360.1844 334.38495 359.48126ZM334.52557 356.98126Q334.49432 355.90314 333.96307 355.35626Q333.43182 354.79376 332.68182 354.79376Q331.86932 354.79376 331.3537 355.3875Q330.82245 355.96564 330.82245 356.98126L334.52557 356.98126ZM348.07245 366.23126L346.36932 366.23126Q345.02557 364.21564 344.32245 362.02814Q343.61932 359.825 343.61932 357.77814Q343.61932 355.2469 344.49432 352.98126Q345.24432 351.0125 346.4162 349.34064L348.1037 349.34064Q346.88495 352.0125 346.43182 353.8875Q345.99432 355.7469 345.99432 357.84064Q345.99432 359.27814 346.25995 360.79376Q346.52557 362.29376 346.99432 363.66876Q347.2912 364.5594 348.07245 366.23126ZM349.7912 353.1219L352.07245 353.1219L352.07245 354.3875Q353.2912 352.90314 354.9787 352.90314Q355.86932 352.90314 356.52557 353.27814Q357.19745 353.6375 357.61932 354.3875Q358.2287 353.6375 358.93182 353.27814Q359.65057 352.90314 360.46307 352.90314Q361.49432 352.90314 362.19745 353.325Q362.9162 353.7469 363.25995 354.54376Q363.52557 355.15314 363.52557 356.48126L363.52557 362.45L361.0412 362.45L361.0412 357.1219Q361.0412 355.73126 360.7912 355.325Q360.44745 354.79376 359.74432 354.79376Q359.21307 354.79376 358.75995 355.1219Q358.30682 355.4344 358.1037 356.04376Q357.90057 356.65314 357.90057 357.96564L357.90057 362.45L355.43182 362.45L355.43182 357.34064Q355.43182 355.96564 355.2912 355.575Q355.1662 355.1844 354.88495 354.9969Q354.61932 354.79376 354.13495 354.79376Q353.57245 354.79376 353.1037 355.10626Q352.65057 355.40314 352.44745 355.9969Q352.25995 356.575 352.25995 357.91876L352.25995 362.45L349.7912 362.45L349.7912 353.1219ZM365.40057 357.65314Q365.40057 356.41876 366.00995 355.27814Q366.61932 354.1219 367.7287 353.5125Q368.83807 352.90314 370.21307 352.90314Q372.32245 352.90314 373.68182 354.27814Q375.0412 355.65314 375.0412 357.7625Q375.0412 359.8719 373.6662 361.27814Q372.30682 362.66876 370.2287 362.66876Q368.94745 362.66876 367.77557 362.09064Q366.61932 361.4969 366.00995 360.3875Q365.40057 359.2625 365.40057 357.65314ZM367.93182 357.77814Q367.93182 359.16876 368.58807 359.91876Q369.25995 360.65314 370.21307 360.65314Q371.18182 360.65314 371.83807 359.91876Q372.49432 359.16876 372.49432 357.7625Q372.49432 356.3875 371.83807 355.65314Q371.18182 354.91876 370.21307 354.91876Q369.25995 354.91876 368.58807 355.65314Q367.93182 356.3875 367.93182 357.77814ZM385.46307 362.45L382.99432 362.45L382.99432 357.6844Q382.99432 356.16876 382.83807 355.73126Q382.68182 355.29376 382.32245 355.04376Q381.96307 354.79376 381.46307 354.79376Q380.82245 354.79376 380.30682 355.15314Q379.80682 355.4969 379.61932 356.075Q379.43182 356.65314 379.43182 358.21564L379.43182 362.45L376.96307 362.45L376.96307 353.1219L379.24432 353.1219L379.24432 354.48126Q380.4787 352.90314 382.32245 352.90314Q383.15057 352.90314 383.82245 353.2Q384.49432 353.4969 384.83807 353.95Q385.19745 354.40314 385.32245 354.9969Q385.46307 355.575 385.46307 356.65314L385.46307 362.45ZM392.25995 353.1219L392.25995 355.09064L390.57245 355.09064L390.57245 358.84064Q390.57245 359.98126 390.61932 360.1844Q390.6662 360.3719 390.83807 360.4969Q391.00995 360.60626 391.25995 360.60626Q391.58807 360.60626 392.24432 360.3719L392.46307 362.29376Q391.58807 362.66876 390.50995 362.66876Q389.83807 362.66876 389.2912 362.45Q388.75995 362.21564 388.50995 361.85626Q388.25995 361.4969 388.1662 360.8875Q388.08807 360.46564 388.08807 359.15314L388.08807 355.09064L386.94745 355.09064L386.94745 353.1219L388.08807 353.1219L388.08807 351.2625L390.57245 349.825L390.57245 353.1219L392.25995 353.1219ZM396.43182 349.5594L396.43182 354.3094Q397.63495 352.90314 399.2912 352.90314Q400.15057 352.90314 400.82245 353.23126Q401.50995 353.54376 401.8537 354.04376Q402.21307 354.52814 402.33807 355.1219Q402.46307 355.71564 402.46307 356.98126L402.46307 362.45L399.99432 362.45L399.99432 357.5125Q399.99432 356.04376 399.8537 355.65314Q399.71307 355.2625 399.3537 355.02814Q398.99432 354.79376 398.46307 354.79376Q397.8537 354.79376 397.36932 355.09064Q396.88495 355.3875 396.65057 355.9969Q396.43182 356.59064 396.43182 357.77814L396.43182 362.45L393.96307 362.45L393.96307 349.5594L396.43182 349.5594ZM404.2912 366.23126Q405.02557 364.66876 405.32245 363.825Q405.61932 362.9969 405.86932 361.91876Q406.11932 360.825 406.24432 359.84064Q406.36932 358.85626 406.36932 357.84064Q406.36932 355.7469 405.9162 353.8875Q405.4787 352.0125 404.27557 349.34064L405.94745 349.34064Q407.27557 351.23126 408.00995 353.35626Q408.74432 355.46564 408.74432 357.65314Q408.74432 359.48126 408.1662 361.59064Q407.50995 363.95 405.99432 366.23126L404.2912 366.23126Z" fill-rule="nonzero"/><path fill="#000000" d="M35.549995 296.92883L22.65937 300.00696L22.65937 297.3507L31.518745 295.39758L22.65937 293.05383L22.65937 289.96008L31.65937 287.69446L22.65937 285.71008L22.65937 283.1007L35.549995 286.2257L35.549995 288.99133L25.90937 291.55383L35.549995 294.11633L35.549995 296.92883ZM30.75312 282.3507Q29.518745 282.3507 28.37812 281.74133Q27.22187 281.13196 26.612495 280.02258Q26.00312 278.9132 26.00312 277.5382Q26.00312 275.42883 27.37812 274.06946Q28.75312 272.71008 30.862495 272.71008Q32.97187 272.71008 34.37812 274.08508Q35.768745 275.44446 35.768745 277.52258Q35.768745 278.80383 35.19062 279.9757Q34.59687 281.13196 33.487495 281.74133Q32.362495 282.3507 30.75312 282.3507ZM30.87812 279.81946Q32.268745 279.81946 33.018745 279.1632Q33.75312 278.49133 33.75312 277.5382Q33.75312 276.56946 33.018745 275.9132Q32.268745 275.25696 30.862495 275.25696Q29.487495 275.25696 28.75312 275.9132Q28.018745 276.56946 28.018745 277.5382Q28.018745 278.49133 28.75312 279.1632Q29.487495 279.81946 30.87812 279.81946ZM35.549995 268.4132L35.549995 270.88196L26.22187 270.88196L26.22187 268.58508L27.549995 268.58508Q26.59687 268.00696 26.299995 267.5382Q26.00312 267.05383 26.00312 266.46008Q26.00312 265.61633 26.47187 264.83508L28.62812 265.6007Q28.22187 266.2257 28.22187 266.75696Q28.22187 267.27258 28.50312 267.64758Q28.78437 268.00696 29.53437 268.21008Q30.28437 268.4132 32.65937 268.4132L35.549995 268.4132ZM35.549995 263.86633L22.65937 263.86633L22.65937 261.39758L29.50312 261.39758L26.22187 258.50696L26.22187 255.46008L29.62812 258.64758L35.549995 255.24133L35.549995 257.89758L31.362495 260.24133L32.56562 261.39758L35.549995 261.39758L35.549995 263.86633ZM26.22187 248.85071L26.22187 246.53821L27.581245 246.53821Q26.87812 246.10071 26.44062 245.33508Q26.00312 244.56946 26.00312 243.63196Q26.00312 242.00696 27.28437 240.88196Q28.549995 239.74133 30.831245 239.74133Q33.174995 239.74133 34.47187 240.88196Q35.768745 242.02258 35.768745 243.64758Q35.768745 244.42883 35.456245 245.05383Q35.143745 245.67883 34.393745 246.38196L39.09687 246.38196L39.09687 248.85071L26.22187 248.85071ZM30.72187 246.39758Q32.299995 246.39758 33.049995 245.78821Q33.799995 245.16321 33.799995 244.25696Q33.799995 243.39758 33.112495 242.83508Q32.424995 242.25696 30.84687 242.25696Q29.37812 242.25696 28.674995 242.85071Q27.956245 243.42883 27.956245 244.30383Q27.956245 245.21008 28.65937 245.80383Q29.34687 246.39758 30.72187 246.39758ZM29.06562 235.92883L28.65937 238.17883Q27.299995 237.78821 26.65937 236.86633Q26.00312 235.94446 26.00312 234.13196Q26.00312 232.47571 26.393745 231.67883Q26.78437 230.86633 27.393745 230.53821Q27.987495 230.19446 29.59687 230.19446L32.487495 230.22571Q33.706245 230.22571 34.299995 230.11633Q34.87812 229.99133 35.549995 229.66321L35.549995 232.10071Q35.299995 232.21008 34.81562 232.35071Q34.59687 232.41321 34.53437 232.42883Q35.143745 233.06946 35.456245 233.78821Q35.768745 234.50696 35.768745 235.31946Q35.768745 236.77258 34.987495 237.60071Q34.19062 238.42883 33.00312 238.42883Q32.206245 238.42883 31.59687 238.05383Q30.97187 237.67883 30.643745 236.99133Q30.31562 236.30383 30.06562 235.02258Q29.737495 233.28821 29.456245 232.63196L29.206245 232.63196Q28.50312 232.63196 28.206245 232.99133Q27.893745 233.33508 27.893745 234.30383Q27.893745 234.96008 28.15937 235.33508Q28.40937 235.71008 29.06562 235.92883ZM31.06562 232.63196Q31.22187 233.10071 31.44062 234.13196Q31.65937 235.16321 31.87812 235.47571Q32.22187 235.96008 32.75312 235.96008Q33.268745 235.96008 33.643745 235.56946Q34.018745 235.17883 34.018745 234.58508Q34.018745 233.91321 33.581245 233.31946Q33.25312 232.86633 32.768745 232.72571Q32.44062 232.63196 31.56562 232.63196L31.06562 232.63196ZM28.97187 219.63194L29.40937 222.06944Q28.69062 222.19444 28.31562 222.63194Q27.94062 223.06944 27.94062 223.75696Q27.94062 224.67883 28.581245 225.24133Q29.22187 225.78821 30.72187 225.78821Q32.37812 225.78821 33.06562 225.22571Q33.75312 224.66321 33.75312 223.72571Q33.75312 223.02257 33.34687 222.58507Q32.94062 222.13194 31.97187 221.94444L32.37812 219.52257Q34.049995 219.89757 34.90937 220.9757Q35.768745 222.0382 35.768745 223.83508Q35.768745 225.88196 34.47187 227.10071Q33.174995 228.31946 30.893745 228.31946Q28.581245 228.31946 27.299995 227.10071Q26.00312 225.88196 26.00312 223.78821Q26.00312 222.08507 26.737495 221.08507Q27.47187 220.08507 28.97187 219.63194ZM35.549995 217.86632L22.65937 217.86632L22.65937 215.39757L29.50312 215.39757L26.22187 212.50694L26.22187 209.46007L29.62812 212.64757L35.549995 209.24132L35.549995 211.89757L31.362495 214.24132L32.56562 215.39757L35.549995 215.39757L35.549995 217.86632ZM29.06562 205.92882L28.65937 208.17882Q27.299995 207.7882 26.65937 206.86632Q26.00312 205.94444 26.00312 204.13194Q26.00312 202.4757 26.393745 201.67882Q26.78437 200.86632 27.393745 200.5382Q27.987495 200.19444 29.59687 200.19444L32.487495 200.2257Q33.706245 200.2257 34.299995 200.11632Q34.87812 199.99132 35.549995 199.6632L35.549995 202.1007Q35.299995 202.21007 34.81562 202.3507Q34.59687 202.4132 34.53437 202.42882Q35.143745 203.06944 35.456245 203.7882Q35.768745 204.50694 35.768745 205.31944Q35.768745 206.77257 34.987495 207.6007Q34.19062 208.42882 33.00312 208.42882Q32.206245 208.42882 31.59687 208.05382Q30.97187 207.67882 30.643745 206.99132Q30.31562 206.30382 30.06562 205.02257Q29.737495 203.2882 29.456245 202.63194L29.206245 202.63194Q28.50312 202.63194 28.206245 202.99132Q27.893745 203.33507 27.893745 204.30382Q27.893745 204.96007 28.15937 205.33507Q28.40937 205.71007 29.06562 205.92882ZM31.06562 202.63194Q31.22187 203.1007 31.44062 204.13194Q31.65937 205.1632 31.87812 205.4757Q32.22187 205.96007 32.75312 205.96007Q33.268745 205.96007 33.643745 205.56944Q34.018745 205.17882 34.018745 204.58507Q34.018745 203.9132 33.581245 203.31944Q33.25312 202.86632 32.768745 202.7257Q32.44062 202.63194 31.56562 202.63194L31.06562 202.63194ZM36.15937 198.00694L36.50312 195.17882Q37.00312 195.11632 37.19062 194.86632Q37.456245 194.50694 37.456245 193.75694Q37.456245 192.7882 37.15937 192.30382Q36.97187 191.9757 36.53437 191.80382Q36.22187 191.69444 35.393745 191.69444L34.03437 191.69444Q35.549995 192.80382 35.549995 194.49132Q35.549995 196.36632 33.956245 197.4757Q32.706245 198.33507 30.831245 198.33507Q28.487495 198.33507 27.25312 197.21007Q26.00312 196.06944 26.00312 194.39757Q26.00312 192.6632 27.518745 191.5382L26.22187 191.5382L26.22187 189.2257L34.59687 189.2257Q36.237495 189.2257 37.049995 189.50694Q37.87812 189.77257 38.34687 190.27257Q38.81562 190.75694 39.06562 191.58507Q39.331245 192.39757 39.331245 193.64757Q39.331245 196.02257 38.518745 197.02257Q37.706245 198.00694 36.47187 198.00694Q36.34687 198.00694 36.15937 198.00694ZM30.69062 195.80382Q32.174995 195.80382 32.862495 195.2257Q33.549995 194.64757 33.549995 193.80382Q33.549995 192.89757 32.84687 192.27257Q32.143745 191.64757 30.75312 191.64757Q29.299995 191.64757 28.59687 192.25694Q27.893745 192.8507 27.893745 193.75694Q27.893745 194.64757 28.581245 195.2257Q29.268745 195.80382 30.69062 195.80382ZM32.581245 181.36632L32.987495 178.9132Q34.34687 179.38194 35.06562 180.4132Q35.768745 181.42882 35.768745 182.9757Q35.768745 185.4132 34.174995 186.56944Q32.893745 187.49132 30.956245 187.49132Q28.62812 187.49132 27.31562 186.2882Q26.00312 185.06944 26.00312 183.21007Q26.00312 181.13194 27.37812 179.92882Q28.75312 178.7257 31.59687 178.77257L31.59687 184.96007Q32.69062 184.94444 33.299995 184.38194Q33.90937 183.80382 33.90937 182.94444Q33.90937 182.36632 33.59687 181.9757Q33.28437 181.56944 32.581245 181.36632ZM30.081245 181.2257Q29.00312 181.25694 28.456245 181.7882Q27.893745 182.31944 27.893745 183.06944Q27.893745 183.88194 28.487495 184.39757Q29.06562 184.92882 30.081245 184.92882L30.081245 181.2257ZM32.893745 177.64757L32.50312 175.1632Q33.22187 175.00694 33.59687 174.52257Q33.97187 174.0382 33.97187 173.17882Q33.97187 172.21007 33.62812 171.7257Q33.37812 171.4132 32.97187 171.4132Q32.69062 171.4132 32.50312 171.58507Q32.331245 171.77257 32.174995 172.4132Q31.518745 175.39757 30.97187 176.19444Q30.22187 177.30382 28.862495 177.30382Q27.65937 177.30382 26.831245 176.3507Q26.00312 175.38194 26.00312 173.38194Q26.00312 171.46007 26.62812 170.5382Q27.25312 169.6007 28.47187 169.24132L28.90937 171.56944Q28.362495 171.7257 28.081245 172.14757Q27.78437 172.55382 27.78437 173.33507Q27.78437 174.30382 28.049995 174.7257Q28.25312 175.00694 28.549995 175.00694Q28.81562 175.00694 29.00312 174.75694Q29.25312 174.42882 29.706245 172.46007Q30.143745 170.49132 30.799995 169.69444Q31.456245 168.92882 32.62812 168.92882Q33.90937 168.92882 34.84687 170.00694Q35.768745 171.06944 35.768745 173.17882Q35.768745 175.08507 34.987495 176.19444Q34.206245 177.30382 32.893745 177.64757ZM33.97187 150.36632L35.87812 151.8507Q35.34687 152.96007 34.40937 153.96007Q35.112495 154.74132 35.456245 155.63194Q35.78437 156.50694 35.78437 157.71007Q35.78437 160.13194 34.424995 161.33507Q33.37812 162.27257 32.018745 162.27257Q30.78437 162.27257 29.799995 161.5382Q28.799995 160.80382 28.06562 159.33507Q27.28437 159.99132 26.581245 160.33507Q25.87812 160.6632 25.237495 160.6632Q24.06562 160.6632 23.25312 159.7257Q22.44062 158.7882 22.44062 157.05382Q22.44062 155.38194 23.299995 154.44444Q24.143745 153.50694 25.37812 153.50694Q26.15937 153.50694 26.862495 153.9757Q27.56562 154.44444 28.456245 155.8507L30.81562 154.05382Q30.25312 153.74132 29.34687 153.52257L29.862495 151.2882Q31.049995 151.61632 31.59687 151.86632Q32.143745 152.11632 32.518745 152.39757Q32.90937 151.9757 33.37812 151.31944Q33.831245 150.6632 33.97187 150.36632ZM26.97187 157.08507L26.456245 156.4132Q25.893745 155.67882 25.331245 155.67882Q24.84687 155.67882 24.518745 156.0382Q24.19062 156.38194 24.19062 156.99132Q24.19062 157.58507 24.487495 157.92882Q24.768745 158.25694 25.15937 158.25694Q25.612495 158.25694 26.268745 157.69444L26.97187 157.08507ZM29.65937 158.05382Q30.081245 158.89757 30.69062 159.31944Q31.299995 159.74132 31.924995 159.74132Q32.72187 159.74132 33.237495 159.2257Q33.737495 158.69444 33.737495 157.81944Q33.737495 157.24132 33.518745 156.71007Q33.28437 156.1632 32.75312 155.5382L29.65937 158.05382ZM26.22187 143.96007L26.22187 141.67882L27.487495 141.67882Q26.00312 140.46007 26.00312 138.77257Q26.00312 137.88194 26.37812 137.2257Q26.737495 136.55382 27.487495 136.13194Q26.737495 135.52257 26.37812 134.81944Q26.00312 134.1007 26.00312 133.2882Q26.00312 132.25694 26.424995 131.55382Q26.84687 130.83507 27.643745 130.49132Q28.25312 130.2257 29.581245 130.2257L35.549995 130.2257L35.549995 132.71007L30.22187 132.71007Q28.831245 132.71007 28.424995 132.96007Q27.893745 133.30382 27.893745 134.00694Q27.893745 134.5382 28.22187 134.99132Q28.53437 135.44444 29.143745 135.64757Q29.75312 135.8507 31.06562 135.8507L35.549995 135.8507L35.549995 138.31944L30.44062 138.31944Q29.06562 138.31944 28.674995 138.46007Q28.28437 138.58507 28.09687 138.86632Q27.893745 139.13194 27.893745 139.61632Q27.893745 140.17882 28.206245 140.64757Q28.50312 141.1007 29.09687 141.30382Q29.674995 141.49132 31.018745 141.49132L35.549995 141.49132L35.549995 143.96007L26.22187 143.96007ZM24.956245 127.77257L22.65937 127.77257L22.65937 125.30382L24.956245 125.30382L24.956245 127.77257ZM35.549995 127.77257L26.22187 127.77257L26.22187 125.30382L35.549995 125.30382L35.549995 127.77257ZM35.549995 122.77257L22.65937 122.77257L22.65937 120.30382L35.549995 120.30382L35.549995 122.77257ZM32.581245 112.36632L32.987495 109.91319Q34.34687 110.38194 35.06562 111.41319Q35.768745 112.42882 35.768745 113.97569Q35.768745 116.41319 34.174995 117.56944Q32.893745 118.49132 30.956245 118.49132Q28.62812 118.49132 27.31562 117.28819Q26.00312 116.06944 26.00312 114.21007Q26.00312 112.13194 27.37812 110.92882Q28.75312 109.72569 31.59687 109.77257L31.59687 115.96007Q32.69062 115.94444 33.299995 115.38194Q33.90937 114.80382 33.90937 113.94444Q33.90937 113.36632 33.59687 112.97569Q33.28437 112.56944 32.581245 112.36632ZM30.081245 112.22569Q29.00312 112.25694 28.456245 112.78819Q27.893745 113.31944 27.893745 114.06944Q27.893745 114.88194 28.487495 115.39757Q29.06562 115.92882 30.081245 115.92882L30.081245 112.22569ZM32.893745 108.64757L32.50312 106.16319Q33.22187 106.00694 33.59687 105.52257Q33.97187 105.03819 33.97187 104.17882Q33.97187 103.21007 33.62812 102.72569Q33.37812 102.41319 32.97187 102.41319Q32.69062 102.41319 32.50312 102.58507Q32.331245 102.77257 32.174995 103.41319Q31.518745 106.39757 30.97187 107.19444Q30.22187 108.30382 28.862495 108.30382Q27.65937 108.30382 26.831245 107.35069Q26.00312 106.38194 26.00312 104.38194Q26.00312 102.46007 26.62812 101.53819Q27.25312 100.60069 28.47187 100.24132L28.90937 102.56944Q28.362495 102.72569 28.081245 103.14757Q27.78437 103.55382 27.78437 104.33507Q27.78437 105.30382 28.049995 105.72569Q28.25312 106.00694 28.549995 106.00694Q28.81562 106.00694 29.00312 105.75694Q29.25312 105.42882 29.706245 103.46007Q30.143745 101.49132 30.799995 100.69444Q31.456245 99.92882 32.62812 99.92882Q33.90937 99.92882 34.84687 101.00694Q35.768745 102.06944 35.768745 104.17882Q35.768745 106.08507 34.987495 107.19444Q34.206245 108.30382 32.893745 108.64757ZM26.22187 93.49132L28.19062 93.49132L28.19062 95.17882L31.94062 95.17882Q33.081245 95.17882 33.28437 95.13194Q33.47187 95.08507 33.59687 94.91319Q33.706245 94.74132 33.706245 94.49132Q33.706245 94.16319 33.47187 93.50694L35.393745 93.28819Q35.768745 94.16319 35.768745 95.24132Q35.768745 95.91319 35.549995 96.46007Q35.31562 96.99132 34.956245 97.24132Q34.59687 97.49132 33.987495 97.58507Q33.56562 97.66319 32.25312 97.66319L28.19062 97.66319L28.19062 98.80382L26.22187 98.80382L26.22187 97.66319L24.362495 97.66319L22.924995 95.17882L26.22187 95.17882L26.22187 93.49132ZM30.75312 92.35069Q29.518745 92.35069 28.37812 91.74132Q27.22187 91.13194 26.612495 90.02257Q26.00312 88.91319 26.00312 87.53819Q26.00312 85.42882 27.37812 84.06944Q28.75312 82.71007 30.862495 82.71007Q32.97187 82.71007 34.37812 84.08507Q35.768745 85.44444 35.768745 87.52257Q35.768745 88.80382 35.19062 89.97569Q34.59687 91.13194 33.487495 91.74132Q32.362495 92.35069 30.75312 92.35069ZM30.87812 89.81944Q32.268745 89.81944 33.018745 89.16319Q33.75312 88.49132 33.75312 87.53819Q33.75312 86.56944 33.018745 85.91319Q32.268745 85.25694 30.862495 85.25694Q29.487495 85.25694 28.75312 85.91319Q28.018745 86.56944 28.018745 87.53819Q28.018745 88.49132 28.75312 89.16319Q29.487495 89.81944 30.87812 89.81944ZM35.549995 72.28819L35.549995 74.75694L30.78437 74.75694Q29.268745 74.75694 28.831245 74.91319Q28.393745 75.06944 28.143745 75.42882Q27.893745 75.78819 27.893745 76.28819Q27.893745 76.92882 28.25312 77.44444Q28.59687 77.94444 29.174995 78.13194Q29.75312 78.31944 31.31562 78.31944L35.549995 78.31944L35.549995 80.78819L26.22187 80.78819L26.22187 78.50694L27.581245 78.50694Q26.00312 77.27257 26.00312 75.42882Q26.00312 74.60069 26.299995 73.92882Q26.59687 73.25694 27.049995 72.91319Q27.50312 72.55382 28.09687 72.42882Q28.674995 72.28819 29.75312 72.28819L35.549995 72.28819ZM32.581245 64.36632L32.987495 61.913193Q34.34687 62.381943 35.06562 63.413193Q35.768745 64.42882 35.768745 65.97569Q35.768745 68.41319 34.174995 69.56944Q32.893745 70.49132 30.956245 70.49132Q28.62812 70.49132 27.31562 69.28819Q26.00312 68.06944 26.00312 66.21007Q26.00312 64.13194 27.37812 62.928818Q28.75312 61.725693 31.59687 61.772568L31.59687 67.96007Q32.69062 67.94444 33.299995 67.38194Q33.90937 66.80382 33.90937 65.94444Q33.90937 65.36632 33.59687 64.97569Q33.28437 64.56944 32.581245 64.36632ZM30.081245 64.22569Q29.00312 64.25694 28.456245 64.78819Q27.893745 65.31944 27.893745 66.06944Q27.893745 66.88194 28.487495 67.39757Q29.06562 67.92882 30.081245 67.92882L30.081245 64.22569ZM32.893745 60.647568L32.50312 58.163193Q33.22187 58.006943 33.59687 57.522568Q33.97187 57.038193 33.97187 56.178818Q33.97187 55.210068 33.62812 54.725693Q33.37812 54.413193 32.97187 54.413193Q32.69062 54.413193 32.50312 54.585068Q32.331245 54.772568 32.174995 55.413193Q31.518745 58.397568 30.97187 59.194443Q30.22187 60.303818 28.862495 60.303818Q27.65937 60.303818 26.831245 59.350693Q26.00312 58.381943 26.00312 56.381943Q26.00312 54.460068 26.62812 53.538193Q27.25312 52.600693 28.47187 52.241318L28.90937 54.569443Q28.362495 54.725693 28.081245 55.147568Q27.78437 55.553818 27.78437 56.335068Q27.78437 57.303818 28.049995 57.725693Q28.25312 58.006943 28.549995 58.006943Q28.81562 58.006943 29.00312 57.756943Q29.25312 57.428818 29.706245 55.460068Q30.143745 53.491318 30.799995 52.694443Q31.456245 51.928818 32.62812 51.928818Q33.90937 51.928818 34.84687 53.006943Q35.768745 54.069443 35.768745 56.178818Q35.768745 58.085068 34.987495 59.194443Q34.206245 60.303818 32.893745 60.647568Z" fill-rule="nonzero"/><path fill="#000000" d="M81.74176 34.5468L79.08551 24.531174L80.444885 24.531174L81.976135 31.093674Q82.21051 32.124924 82.39801 33.14055Q82.77301 31.531174 82.851135 31.296799L84.757385 24.531174L86.351135 24.531174L87.788635 29.593674Q88.319885 31.484299 88.569885 33.14055Q88.757385 32.187424 89.069885 30.968674L90.632385 24.531174L91.976135 24.531174L89.226135 34.5468L87.944885 34.5468L85.83551 26.906174Q85.569885 25.953049 85.52301 25.734299Q85.36676 26.421799 85.226135 26.906174L83.101135 34.5468L81.74176 34.5468ZM92.99176 34.5468L92.99176 24.531174L96.77301 24.531174Q97.77301 24.531174 98.30426 24.624924Q99.038635 24.749924 99.538635 25.093674Q100.038635 25.437424 100.33551 26.062424Q100.64801 26.671799 100.64801 27.421799Q100.64801 28.703049 99.83551 29.593674Q99.02301 30.468674 96.89801 30.468674L94.319885 30.468674L94.319885 34.5468L92.99176 34.5468ZM94.319885 29.296799L96.913635 29.296799Q98.194885 29.296799 98.726135 28.812424Q99.27301 28.328049 99.27301 27.468674Q99.27301 26.828049 98.96051 26.390549Q98.64801 25.937424 98.11676 25.796799Q97.788635 25.703049 96.882385 25.703049L94.319885 25.703049L94.319885 29.296799ZM101.49176 29.609299Q101.49176 27.828049 101.851135 26.749924Q102.226135 25.656174 102.944885 25.078049Q103.663635 24.484299 104.757385 24.484299Q105.569885 24.484299 106.17926 24.812424Q106.788635 25.140549 107.17926 25.749924Q107.58551 26.359299 107.80426 27.234299Q108.02301 28.109299 108.02301 29.609299Q108.02301 31.374924 107.663635 32.45305Q107.30426 33.531174 106.58551 34.124924Q105.86676 34.718674 104.757385 34.718674Q103.319885 34.718674 102.49176 33.6718Q101.49176 32.4218 101.49176 29.609299ZM102.757385 29.609299Q102.757385 32.07805 103.33551 32.89055Q103.913635 33.70305 104.757385 33.70305Q105.61676 33.70305 106.194885 32.89055Q106.77301 32.062424 106.77301 29.609299Q106.77301 27.124924 106.194885 26.312424Q105.61676 25.499924 104.74176 25.499924Q103.89801 25.499924 103.39801 26.218674Q102.757385 27.140549 102.757385 29.609299Z" fill-rule="nonzero"/><path fill="#000000" d="M68.96051 67.129906L68.96051 57.11428L70.944885 57.11428L73.319885 64.20803Q73.64801 65.192406 73.80426 65.692406Q73.976135 65.14553 74.33551 64.08303L76.726135 57.11428L78.52301 57.11428L78.52301 67.129906L77.24176 67.129906L77.24176 58.73928L74.319885 67.129906L73.132385 67.129906L70.226135 58.598656L70.226135 67.129906L68.96051 67.129906ZM80.538635 63.911156L81.788635 63.80178Q81.882385 64.55178 82.21051 65.036156Q82.538635 65.52053 83.21051 65.817406Q83.89801 66.11428 84.757385 66.11428Q85.507385 66.11428 86.08551 65.89553Q86.67926 65.661156 86.96051 65.27053Q87.24176 64.879906 87.24176 64.411156Q87.24176 63.942406 86.96051 63.598656Q86.694885 63.23928 86.069885 62.98928Q85.663635 62.83303 84.27301 62.504906Q82.89801 62.17678 82.351135 61.879906Q81.632385 61.504906 81.27301 60.95803Q80.92926 60.39553 80.92926 59.692406Q80.92926 58.942406 81.351135 58.286156Q81.788635 57.61428 82.61676 57.286156Q83.444885 56.942406 84.46051 56.942406Q85.569885 56.942406 86.413635 57.30178Q87.27301 57.661156 87.726135 58.36428Q88.17926 59.05178 88.226135 59.92678L86.944885 60.02053Q86.851135 59.08303 86.257385 58.598656Q85.663635 58.098656 84.507385 58.098656Q83.30426 58.098656 82.757385 58.55178Q82.21051 58.98928 82.21051 59.61428Q82.21051 60.14553 82.601135 60.504906Q82.976135 60.848656 84.58551 61.223656Q86.21051 61.58303 86.80426 61.848656Q87.67926 62.254906 88.101135 62.879906Q88.52301 63.48928 88.52301 64.30178Q88.52301 65.098656 88.05426 65.817406Q87.601135 66.52053 86.74176 66.911156Q85.882385 67.30178 84.819885 67.30178Q83.46051 67.30178 82.538635 66.911156Q81.61676 66.504906 81.08551 65.70803Q80.569885 64.911156 80.538635 63.911156ZM89.49176 62.192406Q89.49176 60.411156 89.851135 59.33303Q90.226135 58.23928 90.944885 57.661156Q91.663635 57.067406 92.757385 57.067406Q93.569885 57.067406 94.17926 57.39553Q94.788635 57.723656 95.17926 58.33303Q95.58551 58.942406 95.80426 59.817406Q96.02301 60.692406 96.02301 62.192406Q96.02301 63.95803 95.663635 65.036156Q95.30426 66.11428 94.58551 66.70803Q93.86676 67.30178 92.757385 67.30178Q91.319885 67.30178 90.49176 66.254906Q89.49176 65.004906 89.49176 62.192406ZM90.757385 62.192406Q90.757385 64.661156 91.33551 65.473656Q91.913635 66.286156 92.757385 66.286156Q93.61676 66.286156 94.194885 65.473656Q94.77301 64.64553 94.77301 62.192406Q94.77301 59.70803 94.194885 58.89553Q93.61676 58.08303 92.74176 58.08303Q91.89801 58.08303 91.39801 58.80178Q90.757385 59.723656 90.757385 62.192406ZM102.976135 67.129906L101.83551 67.129906L101.83551 57.11428L103.05426 57.11428L103.05426 60.67678Q103.83551 59.70803 105.05426 59.70803Q105.726135 59.70803 106.319885 59.973656Q106.913635 60.23928 107.30426 60.73928Q107.694885 61.223656 107.913635 61.911156Q108.132385 62.598656 108.132385 63.39553Q108.132385 65.254906 107.194885 66.286156Q106.27301 67.30178 104.99176 67.30178Q103.71051 67.30178 102.976135 66.223656L102.976135 67.129906ZM102.96051 63.442406Q102.96051 64.754906 103.319885 65.33303Q103.89801 66.286156 104.882385 66.286156Q105.694885 66.286156 106.27301 65.58303Q106.86676 64.879906 106.86676 63.48928Q106.86676 62.067406 106.30426 61.39553Q105.74176 60.723656 104.944885 60.723656Q104.132385 60.723656 103.538635 61.42678Q102.96051 62.11428 102.96051 63.442406Z" fill-rule="nonzero"/><path fill="#000000" d="M80.96051 99.71301L80.96051 89.69739L82.944885 89.69739L85.319885 96.79114Q85.64801 97.77551 85.80426 98.27551Q85.976135 97.72864 86.33551 96.66614L88.726135 89.69739L90.52301 89.69739L90.52301 99.71301L89.24176 99.71301L89.24176 91.32239L86.319885 99.71301L85.132385 99.71301L82.226135 91.18176L82.226135 99.71301L80.96051 99.71301ZM92.538635 96.49426L93.788635 96.38489Q93.882385 97.13489 94.21051 97.61926Q94.538635 98.10364 95.21051 98.40051Q95.89801 98.69739 96.757385 98.69739Q97.507385 98.69739 98.08551 98.47864Q98.67926 98.24426 98.96051 97.85364Q99.24176 97.46301 99.24176 96.99426Q99.24176 96.52551 98.96051 96.18176Q98.694885 95.82239 98.069885 95.57239Q97.663635 95.41614 96.27301 95.08801Q94.89801 94.75989 94.351135 94.46301Q93.632385 94.08801 93.27301 93.54114Q92.92926 92.97864 92.92926 92.27551Q92.92926 91.52551 93.351135 90.86926Q93.788635 90.19739 94.61676 89.86926Q95.444885 89.52551 96.46051 89.52551Q97.569885 89.52551 98.413635 89.88489Q99.27301 90.24426 99.726135 90.94739Q100.17926 91.63489 100.226135 92.50989L98.944885 92.60364Q98.851135 91.66614 98.257385 91.18176Q97.663635 90.68176 96.507385 90.68176Q95.30426 90.68176 94.757385 91.13489Q94.21051 91.57239 94.21051 92.19739Q94.21051 92.72864 94.601135 93.08801Q94.976135 93.43176 96.58551 93.80676Q98.21051 94.16614 98.80426 94.43176Q99.67926 94.83801 100.101135 95.46301Q100.52301 96.07239 100.52301 96.88489Q100.52301 97.68176 100.05426 98.40051Q99.601135 99.10364 98.74176 99.49426Q97.882385 99.88489 96.819885 99.88489Q95.46051 99.88489 94.538635 99.49426Q93.61676 99.08801 93.08551 98.29114Q92.569885 97.49426 92.538635 96.49426ZM106.132385 99.71301L104.89801 99.71301L104.89801 91.86926Q104.46051 92.29114 103.726135 92.72864Q103.007385 93.15051 102.444885 93.35364L102.444885 92.16614Q103.476135 91.68176 104.24176 90.99426Q105.02301 90.30676 105.33551 89.65051L106.132385 89.65051L106.132385 99.71301Z" fill-rule="nonzero"/><path fill="#000000" d="M80.96051 132.29611L80.96051 122.28049L82.944885 122.28049L85.319885 129.37424Q85.64801 130.35861 85.80426 130.85861Q85.976135 130.31174 86.33551 129.24924L88.726135 122.28049L90.52301 122.28049L90.52301 132.29611L89.24176 132.29611L89.24176 123.90549L86.319885 132.29611L85.132385 132.29611L82.226135 123.76486L82.226135 132.29611L80.96051 132.29611ZM92.538635 129.07736L93.788635 128.96799Q93.882385 129.71799 94.21051 130.20236Q94.538635 130.68674 95.21051 130.98361Q95.89801 131.28049 96.757385 131.28049Q97.507385 131.28049 98.08551 131.06174Q98.67926 130.82736 98.96051 130.43674Q99.24176 130.04611 99.24176 129.57736Q99.24176 129.10861 98.96051 128.76486Q98.694885 128.40549 98.069885 128.15549Q97.663635 127.99924 96.27301 127.67111Q94.89801 127.34299 94.351135 127.04611Q93.632385 126.67111 93.27301 126.12424Q92.92926 125.56174 92.92926 124.85861Q92.92926 124.10861 93.351135 123.45236Q93.788635 122.78049 94.61676 122.45236Q95.444885 122.10861 96.46051 122.10861Q97.569885 122.10861 98.413635 122.46799Q99.27301 122.82736 99.726135 123.53049Q100.17926 124.21799 100.226135 125.09299L98.944885 125.18674Q98.851135 124.24924 98.257385 123.76486Q97.663635 123.26486 96.507385 123.26486Q95.30426 123.26486 94.757385 123.71799Q94.21051 124.15549 94.21051 124.78049Q94.21051 125.31174 94.601135 125.67111Q94.976135 126.01486 96.58551 126.38986Q98.21051 126.74924 98.80426 127.01486Q99.67926 127.42111 100.101135 128.04611Q100.52301 128.65549 100.52301 129.46799Q100.52301 130.26486 100.05426 130.98361Q99.601135 131.68674 98.74176 132.07736Q97.882385 132.46799 96.819885 132.46799Q95.46051 132.46799 94.538635 132.07736Q93.61676 131.67111 93.08551 130.87424Q92.569885 130.07736 92.538635 129.07736ZM107.96051 131.10861L107.96051 132.29611L101.33551 132.29611Q101.319885 131.85861 101.476135 131.43674Q101.74176 130.76486 102.288635 130.10861Q102.851135 129.45236 103.89801 128.59299Q105.538635 127.24924 106.101135 126.46799Q106.67926 125.68674 106.67926 124.98361Q106.67926 124.24924 106.14801 123.74924Q105.632385 123.24924 104.80426 123.24924Q103.913635 123.24924 103.36676 123.78049Q102.83551 124.31174 102.83551 125.26486L101.569885 125.12424Q101.694885 123.71799 102.538635 122.98361Q103.39801 122.23361 104.819885 122.23361Q106.27301 122.23361 107.101135 123.03049Q107.944885 123.82736 107.944885 125.01486Q107.944885 125.62424 107.694885 126.20236Q107.46051 126.78049 106.882385 127.42111Q106.319885 128.06174 104.99176 129.18674Q103.882385 130.10861 103.569885 130.45236Q103.257385 130.78049 103.05426 131.10861L107.96051 131.10861Z" fill-rule="nonzero"/><path fill="#000000" d="M80.96051 164.87923L80.96051 154.8636L82.944885 154.8636L85.319885 161.95735Q85.64801 162.94173 85.80426 163.44173Q85.976135 162.89485 86.33551 161.83235L88.726135 154.8636L90.52301 154.8636L90.52301 164.87923L89.24176 164.87923L89.24176 156.4886L86.319885 164.87923L85.132385 164.87923L82.226135 156.34798L82.226135 164.87923L80.96051 164.87923ZM92.538635 161.66048L93.788635 161.5511Q93.882385 162.3011 94.21051 162.78548Q94.538635 163.26985 95.21051 163.56673Q95.89801 163.8636 96.757385 163.8636Q97.507385 163.8636 98.08551 163.64485Q98.67926 163.41048 98.96051 163.01985Q99.24176 162.62923 99.24176 162.16048Q99.24176 161.69173 98.96051 161.34798Q98.694885 160.9886 98.069885 160.7386Q97.663635 160.58235 96.27301 160.25423Q94.89801 159.9261 94.351135 159.62923Q93.632385 159.25423 93.27301 158.70735Q92.92926 158.14485 92.92926 157.44173Q92.92926 156.69173 93.351135 156.03548Q93.788635 155.3636 94.61676 155.03548Q95.444885 154.69173 96.46051 154.69173Q97.569885 154.69173 98.413635 155.0511Q99.27301 155.41048 99.726135 156.1136Q100.17926 156.8011 100.226135 157.6761L98.944885 157.76985Q98.851135 156.83235 98.257385 156.34798Q97.663635 155.84798 96.507385 155.84798Q95.30426 155.84798 94.757385 156.3011Q94.21051 156.7386 94.21051 157.3636Q94.21051 157.89485 94.601135 158.25423Q94.976135 158.59798 96.58551 158.97298Q98.21051 159.33235 98.80426 159.59798Q99.67926 160.00423 100.101135 160.62923Q100.52301 161.2386 100.52301 162.0511Q100.52301 162.84798 100.05426 163.56673Q99.601135 164.26985 98.74176 164.66048Q97.882385 165.0511 96.819885 165.0511Q95.46051 165.0511 94.538635 164.66048Q93.61676 164.25423 93.08551 163.45735Q92.569885 162.66048 92.538635 161.66048ZM101.507385 162.2386L102.726135 162.06673Q102.944885 163.1136 103.444885 163.58235Q103.96051 164.03548 104.694885 164.03548Q105.569885 164.03548 106.163635 163.44173Q106.757385 162.83235 106.757385 161.94173Q106.757385 161.09798 106.194885 160.5511Q105.64801 160.00423 104.80426 160.00423Q104.444885 160.00423 103.92926 160.12923L104.069885 159.0511Q104.194885 159.06673 104.257385 159.06673Q105.05426 159.06673 105.67926 158.66048Q106.30426 158.25423 106.30426 157.39485Q106.30426 156.72298 105.851135 156.28548Q105.39801 155.83235 104.663635 155.83235Q103.944885 155.83235 103.46051 156.28548Q102.99176 156.72298 102.851135 157.62923L101.632385 157.41048Q101.851135 156.1761 102.64801 155.50423Q103.444885 154.81673 104.632385 154.81673Q105.46051 154.81673 106.14801 155.1761Q106.83551 155.51985 107.194885 156.12923Q107.569885 156.7386 107.569885 157.4261Q107.569885 158.06673 107.226135 158.59798Q106.882385 159.12923 106.194885 159.45735Q107.08551 159.66048 107.569885 160.3011Q108.069885 160.94173 108.069885 161.9261Q108.069885 163.2386 107.101135 164.14485Q106.14801 165.0511 104.694885 165.0511Q103.36676 165.0511 102.49176 164.26985Q101.632385 163.4886 101.507385 162.2386Z" fill-rule="nonzero"/><path fill="#000000" d="M68.96051 197.46233L68.96051 187.4467L70.944885 187.4467L73.319885 194.54045Q73.64801 195.52483 73.80426 196.02483Q73.976135 195.47795 74.33551 194.41545L76.726135 187.4467L78.52301 187.4467L78.52301 197.46233L77.24176 197.46233L77.24176 189.0717L74.319885 197.46233L73.132385 197.46233L70.226135 188.93108L70.226135 197.46233L68.96051 197.46233ZM80.538635 194.24358L81.788635 194.1342Q81.882385 194.8842 82.21051 195.36858Q82.538635 195.85295 83.21051 196.14983Q83.89801 196.4467 84.757385 196.4467Q85.507385 196.4467 86.08551 196.22795Q86.67926 195.99358 86.96051 195.60295Q87.24176 195.21233 87.24176 194.74358Q87.24176 194.27483 86.96051 193.93108Q86.694885 193.5717 86.069885 193.3217Q85.663635 193.16545 84.27301 192.83733Q82.89801 192.5092 82.351135 192.21233Q81.632385 191.83733 81.27301 191.29045Q80.92926 190.72795 80.92926 190.02483Q80.92926 189.27483 81.351135 188.61858Q81.788635 187.9467 82.61676 187.61858Q83.444885 187.27483 84.46051 187.27483Q85.569885 187.27483 86.413635 187.6342Q87.27301 187.99358 87.726135 188.6967Q88.17926 189.3842 88.226135 190.2592L86.944885 190.35295Q86.851135 189.41545 86.257385 188.93108Q85.663635 188.43108 84.507385 188.43108Q83.30426 188.43108 82.757385 188.8842Q82.21051 189.3217 82.21051 189.9467Q82.21051 190.47795 82.601135 190.83733Q82.976135 191.18108 84.58551 191.55608Q86.21051 191.91545 86.80426 192.18108Q87.67926 192.58733 88.101135 193.21233Q88.52301 193.8217 88.52301 194.6342Q88.52301 195.43108 88.05426 196.14983Q87.601135 196.85295 86.74176 197.24358Q85.882385 197.6342 84.819885 197.6342Q83.46051 197.6342 82.538635 197.24358Q81.61676 196.83733 81.08551 196.04045Q80.569885 195.24358 80.538635 194.24358ZM93.444885 197.46233L93.444885 195.05608L89.08551 195.05608L89.08551 193.93108L93.663635 187.4467L94.663635 187.4467L94.663635 193.93108L96.02301 193.93108L96.02301 195.05608L94.663635 195.05608L94.663635 197.46233L93.444885 197.46233ZM93.444885 193.93108L93.444885 189.41545L90.30426 193.93108L93.444885 193.93108ZM106.569885 196.5717Q105.89801 197.14983 105.257385 197.39983Q104.632385 197.6342 103.89801 197.6342Q102.71051 197.6342 102.05426 197.05608Q101.413635 196.46233 101.413635 195.54045Q101.413635 195.0092 101.64801 194.5717Q101.89801 194.1342 102.288635 193.86858Q102.694885 193.60295 103.17926 193.46233Q103.538635 193.36858 104.27301 193.27483Q105.77301 193.10295 106.476135 192.85295Q106.476135 192.60295 106.476135 192.54045Q106.476135 191.77483 106.132385 191.47795Q105.663635 191.05608 104.726135 191.05608Q103.86676 191.05608 103.444885 191.36858Q103.038635 191.66545 102.83551 192.43108L101.632385 192.27483Q101.788635 191.49358 102.163635 191.02483Q102.55426 190.55608 103.257385 190.30608Q103.976135 190.04045 104.913635 190.04045Q105.83551 190.04045 106.413635 190.2592Q106.99176 190.47795 107.257385 190.80608Q107.538635 191.1342 107.64801 191.64983Q107.71051 191.96233 107.71051 192.77483L107.71051 194.41545Q107.71051 196.1342 107.788635 196.58733Q107.86676 197.04045 108.101135 197.46233L106.819885 197.46233Q106.632385 197.0717 106.569885 196.5717ZM106.476135 193.8217Q105.80426 194.08733 104.46051 194.29045Q103.71051 194.39983 103.382385 194.54045Q103.069885 194.66545 102.89801 194.93108Q102.726135 195.1967 102.726135 195.5092Q102.726135 196.0092 103.101135 196.33733Q103.476135 196.66545 104.194885 196.66545Q104.913635 196.66545 105.46051 196.35295Q106.007385 196.04045 106.27301 195.49358Q106.476135 195.08733 106.476135 194.27483L106.476135 193.8217Z" fill-rule="nonzero"/><path fill="#000000" d="M81.74176 230.04544L79.08551 220.02982L80.444885 220.02982L81.976135 226.59232Q82.21051 227.62357 82.39801 228.63919Q82.77301 227.02982 82.851135 226.79544L84.757385 220.02982L86.351135 220.02982L87.788635 225.09232Q88.319885 226.98294 88.569885 228.63919Q88.757385 227.68607 89.069885 226.46732L90.632385 220.02982L91.976135 220.02982L89.226135 230.04544L87.944885 230.04544L85.83551 222.40482Q85.569885 221.45169 85.52301 221.23294Q85.36676 221.92044 85.226135 222.40482L83.101135 230.04544L81.74176 230.04544ZM92.99176 230.04544L92.99176 220.02982L96.77301 220.02982Q97.77301 220.02982 98.30426 220.12357Q99.038635 220.24857 99.538635 220.59232Q100.038635 220.93607 100.33551 221.56107Q100.64801 222.17044 100.64801 222.92044Q100.64801 224.20169 99.83551 225.09232Q99.02301 225.96732 96.89801 225.96732L94.319885 225.96732L94.319885 230.04544L92.99176 230.04544ZM94.319885 224.79544L96.913635 224.79544Q98.194885 224.79544 98.726135 224.31107Q99.27301 223.82669 99.27301 222.96732Q99.27301 222.32669 98.96051 221.88919Q98.64801 221.43607 98.11676 221.29544Q97.788635 221.20169 96.882385 221.20169L94.319885 221.20169L94.319885 224.79544ZM101.49176 227.42044L102.788635 227.31107Q102.92926 228.24857 103.444885 228.73294Q103.976135 229.20169 104.71051 229.20169Q105.601135 229.20169 106.21051 228.52982Q106.83551 227.85794 106.83551 226.76419Q106.83551 225.70169 106.24176 225.09232Q105.64801 224.48294 104.694885 224.48294Q104.101135 224.48294 103.61676 224.76419Q103.14801 225.02982 102.86676 225.45169L101.71051 225.31107L102.67926 220.15482L107.663635 220.15482L107.663635 221.34232L103.663635 221.34232L103.132385 224.02982Q104.038635 223.40482 105.02301 223.40482Q106.33551 223.40482 107.226135 224.31107Q108.132385 225.21732 108.132385 226.65482Q108.132385 228.01419 107.351135 228.99857Q106.382385 230.21732 104.71051 230.21732Q103.351135 230.21732 102.476135 229.45169Q101.61676 228.68607 101.49176 227.42044Z" fill-rule="nonzero"/><path fill="#000000" d="M68.96051 295.21164L68.96051 285.196L70.944885 285.196L73.319885 292.28976Q73.64801 293.27414 73.80426 293.77414Q73.976135 293.22726 74.33551 292.16476L76.726135 285.196L78.52301 285.196L78.52301 295.21164L77.24176 295.21164L77.24176 286.821L74.319885 295.21164L73.132385 295.21164L70.226135 286.6804L70.226135 295.21164L68.96051 295.21164ZM80.538635 291.9929L81.788635 291.8835Q81.882385 292.6335 82.21051 293.1179Q82.538635 293.60226 83.21051 293.89914Q83.89801 294.196 84.757385 294.196Q85.507385 294.196 86.08551 293.97726Q86.67926 293.7429 86.96051 293.35226Q87.24176 292.96164 87.24176 292.4929Q87.24176 292.02414 86.96051 291.6804Q86.694885 291.321 86.069885 291.071Q85.663635 290.91476 84.27301 290.58664Q82.89801 290.2585 82.351135 289.96164Q81.632385 289.58664 81.27301 289.03976Q80.92926 288.47726 80.92926 287.77414Q80.92926 287.02414 81.351135 286.3679Q81.788635 285.696 82.61676 285.3679Q83.444885 285.02414 84.46051 285.02414Q85.569885 285.02414 86.413635 285.3835Q87.27301 285.7429 87.726135 286.446Q88.17926 287.1335 88.226135 288.0085L86.944885 288.10226Q86.851135 287.16476 86.257385 286.6804Q85.663635 286.1804 84.507385 286.1804Q83.30426 286.1804 82.757385 286.6335Q82.21051 287.071 82.21051 287.696Q82.21051 288.22726 82.601135 288.58664Q82.976135 288.9304 84.58551 289.3054Q86.21051 289.66476 86.80426 289.9304Q87.67926 290.33664 88.101135 290.96164Q88.52301 291.571 88.52301 292.3835Q88.52301 293.1804 88.05426 293.89914Q87.601135 294.60226 86.74176 294.9929Q85.882385 295.3835 84.819885 295.3835Q83.46051 295.3835 82.538635 294.9929Q81.61676 294.58664 81.08551 293.78976Q80.569885 292.9929 80.538635 291.9929ZM89.49176 292.58664L90.788635 292.47726Q90.92926 293.41476 91.444885 293.89914Q91.976135 294.3679 92.71051 294.3679Q93.601135 294.3679 94.21051 293.696Q94.83551 293.02414 94.83551 291.9304Q94.83551 290.8679 94.24176 290.2585Q93.64801 289.64914 92.694885 289.64914Q92.101135 289.64914 91.61676 289.9304Q91.14801 290.196 90.86676 290.6179L89.71051 290.47726L90.67926 285.321L95.663635 285.321L95.663635 286.5085L91.663635 286.5085L91.132385 289.196Q92.038635 288.571 93.02301 288.571Q94.33551 288.571 95.226135 289.47726Q96.132385 290.3835 96.132385 291.821Q96.132385 293.1804 95.351135 294.16476Q94.382385 295.3835 92.71051 295.3835Q91.351135 295.3835 90.476135 294.6179Q89.61676 293.85226 89.49176 292.58664ZM102.976135 295.21164L101.83551 295.21164L101.83551 285.196L103.05426 285.196L103.05426 288.7585Q103.83551 287.78976 105.05426 287.78976Q105.726135 287.78976 106.319885 288.0554Q106.913635 288.321 107.30426 288.821Q107.694885 289.3054 107.913635 289.9929Q108.132385 290.6804 108.132385 291.47726Q108.132385 293.33664 107.194885 294.3679Q106.27301 295.3835 104.99176 295.3835Q103.71051 295.3835 102.976135 294.3054L102.976135 295.21164ZM102.96051 291.52414Q102.96051 292.83664 103.319885 293.41476Q103.89801 294.3679 104.882385 294.3679Q105.694885 294.3679 106.27301 293.66476Q106.86676 292.96164 106.86676 291.571Q106.86676 290.14914 106.30426 289.47726Q105.74176 288.8054 104.944885 288.8054Q104.132385 288.8054 103.538635 289.5085Q102.96051 290.196 102.96051 291.52414Z" fill-rule="nonzero"/><path fill="#000000" d="M112.49176 332.5625Q112.49176 330.78125 112.851135 329.70312Q113.226135 328.60938 113.944885 328.03125Q114.663635 327.4375 115.757385 327.4375Q116.569885 327.4375 117.17926 327.76562Q117.788635 328.09375 118.17926 328.70312Q118.58551 329.3125 118.80426 330.1875Q119.02301 331.0625 119.02301 332.5625Q119.02301 334.32812 118.663635 335.40625Q118.30426 336.48438 117.58551 337.07812Q116.86676 337.67188 115.757385 337.67188Q114.319885 337.67188 113.49176 336.625Q112.49176 335.375 112.49176 332.5625ZM113.757385 332.5625Q113.757385 335.03125 114.33551 335.84375Q114.913635 336.65625 115.757385 336.65625Q116.61676 336.65625 117.194885 335.84375Q117.77301 335.01562 117.77301 332.5625Q117.77301 330.07812 117.194885 329.26562Q116.61676 328.45312 115.74176 328.45312Q114.89801 328.45312 114.39801 329.17188Q113.757385 330.09375 113.757385 332.5625Z" fill-rule="nonzero"/><path fill="#000000" d="M170.69943 334.85938L171.91818 334.6875Q172.13693 335.73438 172.63693 336.20312Q173.15256 336.65625 173.88693 336.65625Q174.76193 336.65625 175.35568 336.0625Q175.94943 335.45312 175.94943 334.5625Q175.94943 333.71875 175.38693 333.17188Q174.84006 332.625 173.9963 332.625Q173.63693 332.625 173.1213 332.75L173.26193 331.67188Q173.38693 331.6875 173.44943 331.6875Q174.2463 331.6875 174.8713 331.28125Q175.4963 330.875 175.4963 330.01562Q175.4963 329.34375 175.04318 328.90625Q174.59006 328.45312 173.85568 328.45312Q173.13693 328.45312 172.65256 328.90625Q172.1838 329.34375 172.04318 330.25L170.82443 330.03125Q171.04318 328.79688 171.84006 328.125Q172.63693 327.4375 173.82443 327.4375Q174.65256 327.4375 175.34006 327.79688Q176.02756 328.14062 176.38693 328.75Q176.76193 329.35938 176.76193 330.04688Q176.76193 330.6875 176.41818 331.21875Q176.07443 331.75 175.38693 332.07812Q176.27756 332.28125 176.76193 332.92188Q177.26193 333.5625 177.26193 334.54688Q177.26193 335.85938 176.29318 336.76562Q175.34006 337.67188 173.88693 337.67188Q172.5588 337.67188 171.6838 336.89062Q170.82443 336.10938 170.69943 334.85938Z" fill-rule="nonzero"/><path fill="#000000" d="M235.26648 329.9375L234.04773 330.03125Q233.87585 329.29688 233.57898 328.96875Q233.07898 328.45312 232.3446 328.45312Q231.75085 328.45312 231.31335 328.78125Q230.73523 329.20312 230.39148 330.01562Q230.06335 330.82812 230.04773 332.32812Q230.48523 331.65625 231.12585 331.32812Q231.7821 331.0 232.48523 331.0Q233.7196 331.0 234.57898 331.90625Q235.43835 332.8125 235.43835 334.25Q235.43835 335.1875 235.0321 336.0Q234.62585 336.8125 233.9071 337.25Q233.20398 337.67188 232.29773 337.67188Q230.76648 337.67188 229.79773 336.54688Q228.82898 335.40625 228.82898 332.8125Q228.82898 329.90625 229.89148 328.57812Q230.82898 327.4375 232.42273 327.4375Q233.61023 327.4375 234.36023 328.10938Q235.11023 328.76562 235.26648 329.9375ZM230.23523 334.25Q230.23523 334.89062 230.50085 335.46875Q230.7821 336.04688 231.26648 336.35938Q231.75085 336.65625 232.2821 336.65625Q233.06335 336.65625 233.62585 336.03125Q234.18835 335.40625 234.18835 334.32812Q234.18835 333.28125 233.62585 332.6875Q233.07898 332.07812 232.23523 332.07812Q231.4071 332.07812 230.81335 332.6875Q230.23523 333.28125 230.23523 334.25Z" fill-rule="nonzero"/><path fill="#000000" d="M287.2554 335.1875L288.4429 335.07812Q288.58353 335.90625 289.0054 336.28125Q289.4429 336.65625 290.09915 336.65625Q290.66165 336.65625 291.08353 336.40625Q291.52103 336.14062 291.78665 335.70312Q292.0679 335.26562 292.2554 334.53125Q292.4429 333.79688 292.4429 333.03125Q292.4429 332.95312 292.42728 332.78125Q292.0679 333.375 291.42728 333.75Q290.78665 334.10938 290.03665 334.10938Q288.78665 334.10938 287.92728 333.20312Q287.0679 332.29688 287.0679 330.82812Q287.0679 329.29688 287.95853 328.375Q288.86478 327.4375 290.22415 327.4375Q291.1929 327.4375 292.0054 327.96875Q292.8179 328.48438 293.23978 329.46875Q293.66165 330.4375 293.66165 332.28125Q293.66165 334.20312 293.23978 335.34375Q292.83353 336.48438 292.0054 337.07812Q291.17728 337.67188 290.0679 337.67188Q288.89603 337.67188 288.14603 337.01562Q287.41165 336.35938 287.2554 335.1875ZM292.28665 330.76562Q292.28665 329.70312 291.72415 329.07812Q291.16165 328.45312 290.3804 328.45312Q289.55228 328.45312 288.9429 329.125Q288.33353 329.79688 288.33353 330.85938Q288.33353 331.8125 288.91165 332.42188Q289.48978 333.01562 290.33353 333.01562Q291.1929 333.01562 291.73978 332.42188Q292.28665 331.8125 292.28665 330.76562Z" fill-rule="nonzero"/><path fill="#000000" d="M345.90057 337.5L344.6662 337.5L344.6662 329.65625Q344.2287 330.07812 343.49432 330.51562Q342.77557 330.9375 342.21307 331.14062L342.21307 329.95312Q343.24432 329.46875 344.00995 328.78125Q344.7912 328.09375 345.1037 327.4375L345.90057 327.4375L345.90057 337.5ZM355.7287 336.3125L355.7287 337.5L349.1037 337.5Q349.08807 337.0625 349.24432 336.64062Q349.50995 335.96875 350.05682 335.3125Q350.61932 334.65625 351.6662 333.79688Q353.30682 332.45312 353.86932 331.67188Q354.44745 330.89062 354.44745 330.1875Q354.44745 329.45312 353.9162 328.95312Q353.40057 328.45312 352.57245 328.45312Q351.68182 328.45312 351.13495 328.98438Q350.6037 329.51562 350.6037 330.46875L349.33807 330.32812Q349.46307 328.92188 350.30682 328.1875Q351.1662 327.4375 352.58807 327.4375Q354.0412 327.4375 354.86932 328.23438Q355.71307 329.03125 355.71307 330.21875Q355.71307 330.82812 355.46307 331.40625Q355.2287 331.98438 354.65057 332.625Q354.08807 333.26562 352.75995 334.39062Q351.65057 335.3125 351.33807 335.65625Q351.02557 335.98438 350.82245 336.3125L355.7287 336.3125Z" fill-rule="nonzero"/><path fill="#000000" d="M404.09262 337.5L402.85825 337.5L402.85825 329.65625Q402.42075 330.07812 401.68637 330.51562Q400.96762 330.9375 400.40512 331.14062L400.40512 329.95312Q401.43637 329.46875 402.202 328.78125Q402.98325 328.09375 403.29575 327.4375L404.09262 327.4375L404.09262 337.5ZM407.452 334.875L408.74887 334.76562Q408.8895 335.70312 409.40512 336.1875Q409.93637 336.65625 410.67075 336.65625Q411.56137 336.65625 412.17075 335.98438Q412.79575 335.3125 412.79575 334.21875Q412.79575 333.15625 412.202 332.54688Q411.60825 331.9375 410.65512 331.9375Q410.06137 331.9375 409.577 332.21875Q409.10825 332.48438 408.827 332.90625L407.67075 332.76562L408.6395 327.60938L413.62387 327.60938L413.62387 328.79688L409.62387 328.79688L409.09262 331.48438Q409.99887 330.85938 410.98325 330.85938Q412.29575 330.85938 413.18637 331.76562Q414.09262 332.67188 414.09262 334.10938Q414.09262 335.46875 413.31137 336.45312Q412.34262 337.67188 410.67075 337.67188Q409.31137 337.67188 408.43637 336.90625Q407.577 336.14062 407.452 334.875Z" fill-rule="nonzero"/><path fill="#000000" d="M462.28467 337.5L461.0503 337.5L461.0503 329.65625Q460.6128 330.07812 459.87842 330.51562Q459.15967 330.9375 458.59717 331.14062L458.59717 329.95312Q459.62842 329.46875 460.39404 328.78125Q461.1753 328.09375 461.4878 327.4375L462.28467 327.4375L462.28467 337.5ZM467.53467 332.0625Q466.76904 331.78125 466.39404 331.26562Q466.03467 330.75 466.03467 330.01562Q466.03467 328.92188 466.81592 328.1875Q467.6128 327.4375 468.90967 327.4375Q470.22217 327.4375 471.01904 328.20312Q471.83154 328.96875 471.83154 330.0625Q471.83154 330.75 471.45654 331.26562Q471.09717 331.78125 470.34717 332.0625Q471.26904 332.35938 471.75342 333.03125Q472.2378 333.70312 472.2378 334.64062Q472.2378 335.92188 471.33154 336.79688Q470.4253 337.67188 468.94092 337.67188Q467.45654 337.67188 466.53467 336.79688Q465.62842 335.90625 465.62842 334.59375Q465.62842 333.625 466.12842 332.96875Q466.62842 332.29688 467.53467 332.0625ZM467.3003 329.98438Q467.3003 330.6875 467.75342 331.14062Q468.20654 331.59375 468.94092 331.59375Q469.65967 331.59375 470.1128 331.15625Q470.56592 330.70312 470.56592 330.04688Q470.56592 329.375 470.09717 328.92188Q469.62842 328.45312 468.9253 328.45312Q468.22217 328.45312 467.75342 328.90625Q467.3003 329.34375 467.3003 329.98438ZM466.89404 334.60938Q466.89404 335.14062 467.14404 335.64062Q467.39404 336.125 467.87842 336.39062Q468.37842 336.65625 468.95654 336.65625Q469.83154 336.65625 470.39404 336.09375Q470.97217 335.53125 470.97217 334.65625Q470.97217 333.76562 470.37842 333.1875Q469.8003 332.59375 468.90967 332.59375Q468.03467 332.59375 467.45654 333.17188Q466.89404 333.75 466.89404 334.60938Z" fill-rule="nonzero"/><path fill="#000000" d="M522.3048 336.3125L522.3048 337.5L515.6798 337.5Q515.6642 337.0625 515.82043 336.64062Q516.08606 335.96875 516.63293 335.3125Q517.19543 334.65625 518.2423 333.79688Q519.88293 332.45312 520.44543 331.67188Q521.02356 330.89062 521.02356 330.1875Q521.02356 329.45312 520.4923 328.95312Q519.9767 328.45312 519.14856 328.45312Q518.25793 328.45312 517.71106 328.98438Q517.1798 329.51562 517.1798 330.46875L515.9142 330.32812Q516.0392 328.92188 516.88293 328.1875Q517.7423 327.4375 519.1642 327.4375Q520.6173 327.4375 521.44543 328.23438Q522.2892 329.03125 522.2892 330.21875Q522.2892 330.82812 522.0392 331.40625Q521.8048 331.98438 521.2267 332.625Q520.6642 333.26562 519.33606 334.39062Q518.2267 335.3125 517.9142 335.65625Q517.6017 335.98438 517.39856 336.3125L522.3048 336.3125ZM528.4767 337.5L527.2423 337.5L527.2423 329.65625Q526.8048 330.07812 526.07043 330.51562Q525.3517 330.9375 524.7892 331.14062L524.7892 329.95312Q525.82043 329.46875 526.58606 328.78125Q527.3673 328.09375 527.6798 327.4375L528.4767 327.4375L528.4767 337.5Z" fill-rule="nonzero"/><path fill="#000000" d="M580.4969 336.3125L580.4969 337.5L573.8719 337.5Q573.85626 337.0625 574.0125 336.64062Q574.27814 335.96875 574.825 335.3125Q575.3875 334.65625 576.4344 333.79688Q578.075 332.45312 578.6375 331.67188Q579.21564 330.89062 579.21564 330.1875Q579.21564 329.45312 578.6844 328.95312Q578.16876 328.45312 577.34064 328.45312Q576.45 328.45312 575.90314 328.98438Q575.3719 329.51562 575.3719 330.46875L574.10626 330.32812Q574.23126 328.92188 575.075 328.1875Q575.9344 327.4375 577.35626 327.4375Q578.8094 327.4375 579.6375 328.23438Q580.48126 329.03125 580.48126 330.21875Q580.48126 330.82812 580.23126 331.40625Q579.9969 331.98438 579.41876 332.625Q578.85626 333.26562 577.52814 334.39062Q576.41876 335.3125 576.10626 335.65625Q575.79376 335.98438 575.59064 336.3125L580.4969 336.3125ZM585.98126 337.5L585.98126 335.09375L581.6219 335.09375L581.6219 333.96875L586.2 327.48438L587.2 327.48438L587.2 333.96875L588.5594 333.96875L588.5594 335.09375L587.2 335.09375L587.2 337.5L585.98126 337.5ZM585.98126 333.96875L585.98126 329.45312L582.84064 333.96875L585.98126 333.96875Z" fill-rule="nonzero"/></svg>