<?xml version="1.0" encoding="UTF-8" standalone="no"?>
<svg
   xmlns:dc="http://purl.org/dc/elements/1.1/"
   xmlns:cc="http://creativecommons.org/ns#"
   xmlns:rdf="http://www.w3.org/1999/02/22-rdf-syntax-ns#"
   xmlns:svg="http://www.w3.org/2000/svg"
   xmlns="http://www.w3.org/2000/svg"
   xmlns:sodipodi="http://sodipodi.sourceforge.net/DTD/sodipodi-0.dtd"
   xmlns:inkscape="http://www.inkscape.org/namespaces/inkscape"
   version="1.1"
   viewBox="0 0 547.97687 355.39307"
   stroke-miterlimit="10"
   width="547.97687"
   height="355.39307"
   id="svg201"
   sodipodi:docname="gantt_chart.svg"
   style="fill:none;stroke:none;stroke-linecap:square;stroke-miterlimit:10"
   inkscape:version="0.92.3 (2405546, 2018-03-11)">
  <metadata
     id="metadata207">
    <rdf:RDF>
      <cc:Work
         rdf:about="">
        <dc:format>image/svg+xml</dc:format>
        <dc:type
           rdf:resource="http://purl.org/dc/dcmitype/StillImage" />
        <dc:title></dc:title>
      </cc:Work>
    </rdf:RDF>
  </metadata>
  <defs
     id="defs205" />
  <sodipodi:namedview
     pagecolor="#ffffff"
     bordercolor="#666666"
     borderopacity="1"
     objecttolerance="10"
     gridtolerance="10"
     guidetolerance="10"
     inkscape:pageopacity="0"
     inkscape:pageshadow="2"
     inkscape:window-width="1863"
     inkscape:window-height="1025"
     id="namedview203"
     showgrid="false"
     fit-margin-top="0"
     fit-margin-left="0"
     fit-margin-right="0"
     fit-margin-bottom="0"
     inkscape:zoom="1.6141471"
     inkscape:cx="172.91761"
     inkscape:cy="117.51106"
     inkscape:window-x="0"
     inkscape:window-y="27"
     inkscape:window-maximized="1"
     inkscape:current-layer="svg201" />
  <path
     d="M 0,0 H 547.97687 V 355.39306 H 0 Z"
     id="path2"
     inkscape:connector-curvature="0"
     style="fill:#ffffff;fill-rule:nonzero;stroke-width:0.93534756" />
  <path
     d="M 72.147399,7.517341 V 306.51734"
     id="path4"
     inkscape:connector-curvature="0"
     style="fill-rule:nonzero;stroke:#333333;stroke-width:1;stroke-linecap:butt" />
  <path
     d="M 131.14739,7.517341 V 306.51734"
     id="path6"
     inkscape:connector-curvature="0"
     style="fill-rule:nonzero;stroke:#cccccc;stroke-width:1.5;stroke-linecap:butt;stroke-miterlimit:10;stroke-dasharray:none" />
  <path
     d="M 189.14739,7.517341 V 306.51734"
     id="path8"
     inkscape:connector-curvature="0"
     style="fill-rule:nonzero;stroke:#cccccc;stroke-width:1.5;stroke-linecap:butt;stroke-miterlimit:10;stroke-dasharray:none" />
  <path
     d="M 247.14739,7.517341 V 306.51734"
     id="path10"
     inkscape:connector-curvature="0"
     style="fill-rule:nonzero;stroke:#cccccc;stroke-width:1.5;stroke-linecap:butt;stroke-miterlimit:10;stroke-dasharray:none" />
  <path
     d="M 305.1474,7.517341 V 306.51734"
     id="path12"
     inkscape:connector-curvature="0"
     style="fill-rule:nonzero;stroke:#cccccc;stroke-width:1.5;stroke-linecap:butt;stroke-miterlimit:10;stroke-dasharray:none" />
  <path
     d="M 363.1474,7.517341 V 306.51734"
     id="path14"
     inkscape:connector-curvature="0"
     style="fill-rule:nonzero;stroke:#cccccc;stroke-width:1.5;stroke-linecap:butt;stroke-miterlimit:10;stroke-dasharray:none" />
  <path
     d="M 422.1474,7.517341 V 306.51734"
     id="path16"
     inkscape:connector-curvature="0"
     style="fill-rule:nonzero;stroke:#cccccc;stroke-width:1.5;stroke-linecap:butt;stroke-miterlimit:10;stroke-dasharray:none" />
  <path
     d="M 480.1474,7.517341 V 306.51734"
     id="path18"
     inkscape:connector-curvature="0"
     style="fill-rule:nonzero;stroke:#cccccc;stroke-width:1.5;stroke-linecap:butt;stroke-miterlimit:10;stroke-dasharray:none" />
  <path
     d="M 538.14739,7.517341 V 306.51734"
     id="path20"
     inkscape:connector-curvature="0"
     style="fill-rule:nonzero;stroke:#cccccc;stroke-width:1.5;stroke-linecap:butt;stroke-miterlimit:10;stroke-dasharray:none" />
  <clipPath
     id="id_0">
    <path
       d="M 115.91364,18.55 H 581.45 V 317.5 H 115.91364 Z"
       id="path22"
       inkscape:connector-curvature="0"
       style="clip-rule:nonzero" />
  </clipPath>
  <path
     clip-path="url(#id_0)"
     d="M 116,45 V 28 28 Z"
     id="path25"
     inkscape:connector-curvature="0"
     style="fill-rule:nonzero;stroke:#000000;stroke-width:2;stroke-linecap:butt;stroke-opacity:0"
     transform="translate(-43.352601,-10.982659)" />
  <path
     clip-path="url(#id_0)"
     d="M 116,45 V 28 28 Z"
     id="path27"
     inkscape:connector-curvature="0"
     style="fill:#000000;fill-opacity:0;fill-rule:nonzero"
     transform="translate(-43.352601,-10.982659)" />
  <path
     clip-path="url(#id_0)"
     d="M 116,72 V 55 h 10 v 17 z"
     id="path29"
     inkscape:connector-curvature="0"
     style="fill-rule:nonzero;stroke:#000000;stroke-width:2;stroke-linecap:butt;stroke-opacity:0"
     transform="translate(-43.352601,-10.982659)" />
  <path
     clip-path="url(#id_0)"
     d="M 116,72 V 55 h 10 v 17 z"
     id="path31"
     inkscape:connector-curvature="0"
     style="fill:#000000;fill-opacity:0;fill-rule:nonzero"
     transform="translate(-43.352601,-10.982659)" />
  <path
     clip-path="url(#id_0)"
     d="M 116,98 V 81 h 68 v 17 z"
     id="path33"
     inkscape:connector-curvature="0"
     style="fill-rule:nonzero;stroke:#000000;stroke-width:2;stroke-linecap:butt;stroke-opacity:0"
     transform="translate(-43.352601,-10.982659)" />
  <path
     clip-path="url(#id_0)"
     d="M 116,98 V 81 h 68 v 17 z"
     id="path35"
     inkscape:connector-curvature="0"
     style="fill:#000000;fill-opacity:0;fill-rule:nonzero"
     transform="translate(-43.352601,-10.982659)" />
  <path
     clip-path="url(#id_0)"
     d="m 116,124 v -17 h 68 v 17 z"
     id="path37"
     inkscape:connector-curvature="0"
     style="fill-rule:nonzero;stroke:#000000;stroke-width:2;stroke-linecap:butt;stroke-opacity:0"
     transform="translate(-43.352601,-10.982659)" />
  <path
     clip-path="url(#id_0)"
     d="m 116,124 v -17 h 68 v 17 z"
     id="path39"
     inkscape:connector-curvature="0"
     style="fill:#000000;fill-opacity:0;fill-rule:nonzero"
     transform="translate(-43.352601,-10.982659)" />
  <path
     clip-path="url(#id_0)"
     d="m 116,151 v -17 h 145 v 17 z"
     id="path41"
     inkscape:connector-curvature="0"
     style="fill-rule:nonzero;stroke:#000000;stroke-width:2;stroke-linecap:butt;stroke-opacity:0"
     transform="translate(-43.352601,-10.982659)" />
  <path
     clip-path="url(#id_0)"
     d="m 116,151 v -17 h 145 v 17 z"
     id="path43"
     inkscape:connector-curvature="0"
     style="fill:#000000;fill-opacity:0;fill-rule:nonzero"
     transform="translate(-43.352601,-10.982659)" />
  <path
     clip-path="url(#id_0)"
     d="m 116,177 v -17 h 10 v 17 z"
     id="path45"
     inkscape:connector-curvature="0"
     style="fill-rule:nonzero;stroke:#000000;stroke-width:2;stroke-linecap:butt;stroke-opacity:0"
     transform="translate(-43.352601,-10.982659)" />
  <path
     clip-path="url(#id_0)"
     d="m 116,177 v -17 h 10 v 17 z"
     id="path47"
     inkscape:connector-curvature="0"
     style="fill:#000000;fill-opacity:0;fill-rule:nonzero"
     transform="translate(-43.352601,-10.982659)" />
  <path
     clip-path="url(#id_0)"
     d="m 116,203 v -17 h 204 v 17 z"
     id="path49"
     inkscape:connector-curvature="0"
     style="fill-rule:nonzero;stroke:#000000;stroke-width:2;stroke-linecap:butt;stroke-opacity:0"
     transform="translate(-43.352601,-10.982659)" />
  <path
     clip-path="url(#id_0)"
     d="m 116,203 v -17 h 204 v 17 z"
     id="path51"
     inkscape:connector-curvature="0"
     style="fill:#000000;fill-opacity:0;fill-rule:nonzero"
     transform="translate(-43.352601,-10.982659)" />
  <path
     clip-path="url(#id_0)"
     d="m 116,230 v -17 h 204 v 17 z"
     id="path53"
     inkscape:connector-curvature="0"
     style="fill-rule:nonzero;stroke:#000000;stroke-width:2;stroke-linecap:butt;stroke-opacity:0"
     transform="translate(-43.352601,-10.982659)" />
  <path
     clip-path="url(#id_0)"
     d="m 116,230 v -17 h 204 v 17 z"
     id="path55"
     inkscape:connector-curvature="0"
     style="fill:#000000;fill-opacity:0;fill-rule:nonzero"
     transform="translate(-43.352601,-10.982659)" />
  <path
     clip-path="url(#id_0)"
     d="m 116,256 v -17 h 320 v 17 z"
     id="path57"
     inkscape:connector-curvature="0"
     style="fill-rule:nonzero;stroke:#000000;stroke-width:2;stroke-linecap:butt;stroke-opacity:0"
     transform="translate(-43.352601,-10.982659)" />
  <path
     clip-path="url(#id_0)"
     d="m 116,256 v -17 h 320 v 17 z"
     id="path59"
     inkscape:connector-curvature="0"
     style="fill:#000000;fill-opacity:0;fill-rule:nonzero"
     transform="translate(-43.352601,-10.982659)" />
  <path
     clip-path="url(#id_0)"
     d="m 116,282 v -17 h 456 v 17 z"
     id="path61"
     inkscape:connector-curvature="0"
     style="fill-rule:nonzero;stroke:#000000;stroke-width:2;stroke-linecap:butt;stroke-opacity:0"
     transform="translate(-43.352601,-10.982659)" />
  <path
     clip-path="url(#id_0)"
     d="m 116,282 v -17 h 456 v 17 z"
     id="path63"
     inkscape:connector-curvature="0"
     style="fill:#000000;fill-opacity:0;fill-rule:nonzero"
     transform="translate(-43.352601,-10.982659)" />
  <path
     clip-path="url(#id_0)"
     d="m 116,309 v -17 0 z"
     id="path65"
     inkscape:connector-curvature="0"
     style="fill-rule:nonzero;stroke:#000000;stroke-width:2;stroke-linecap:butt;stroke-opacity:0"
     transform="translate(-43.352601,-10.982659)" />
  <path
     clip-path="url(#id_0)"
     d="m 116,309 v -17 0 z"
     id="path67"
     inkscape:connector-curvature="0"
     style="fill:#000000;fill-opacity:0;fill-rule:nonzero"
     transform="translate(-43.352601,-10.982659)" />
  <path
     clip-path="url(#id_0)"
     d="M 116,45 V 28 h 463 c 1.10455,0 2,0.89543 2,2 v 13 c 0,1.10457 -0.89545,2 -2,2 z"
     id="path69"
     inkscape:connector-curvature="0"
     style="fill-rule:nonzero;stroke:#000000;stroke-width:2;stroke-linecap:butt;stroke-opacity:0"
     transform="translate(-43.352601,-10.982659)" />
  <path
     clip-path="url(#id_0)"
     d="M 116,45 V 28 h 463 c 1.10455,0 2,0.89543 2,2 v 13 c 0,1.10457 -0.89545,2 -2,2 z"
     id="path71"
     inkscape:connector-curvature="0"
     transform="matrix(1,0,0,1.3529412,-43.352601,-26.865012)"
     style="fill:#ffffff;fill-rule:nonzero;stroke:#000000;stroke-width:2.46139825;stroke-linejoin:round;stroke-miterlimit:10;stroke-dasharray:none;stroke-opacity:1;fill-opacity:0.99435025" />
  <path
     clip-path="url(#id_0)"
     d="M 126,72 V 55 h 56 c 1.10457,0 2,0.89543 2,2 v 13 c 0,1.10457 -0.89543,2 -2,2 z"
     id="path73"
     inkscape:connector-curvature="0"
     style="fill-rule:nonzero;stroke:#000000;stroke-width:2;stroke-linecap:butt;stroke-opacity:0"
     transform="translate(-43.352601,-10.982659)" />
  <path
     clip-path="url(#id_0)"
     d="M 126,72 V 55 h 56 c 1.10457,0 2,0.89543 2,2 v 13 c 0,1.10457 -0.89543,2 -2,2 z"
     id="path75"
     inkscape:connector-curvature="0"
     transform="matrix(1,0,0,1.2352941,-43.352601,-27.923835)"
     style="fill:#ff7575;fill-rule:nonzero;stroke:#000000;stroke-width:1.89934146;stroke-linejoin:round;stroke-miterlimit:10;stroke-dasharray:none;stroke-opacity:1;fill-opacity:1" />
  <path
     clip-path="url(#id_0)"
     d="M 184,98 V 81 h 1 c 0.55229,0 1,0.447716 1,1 v 15 c 0,0.552284 -0.44771,1 -1,1 z"
     id="path77"
     inkscape:connector-curvature="0"
     style="fill-rule:nonzero;stroke:#000000;stroke-width:2;stroke-linecap:butt;stroke-opacity:0"
     transform="translate(-43.352601,-10.982659)" />
  <path
     clip-path="url(#id_0)"
     d="m 184,124 v -17 h 75 c 1.10458,0 2,0.89543 2,2 v 13 c 0,1.10457 -0.89542,2 -2,2 z"
     id="path81"
     inkscape:connector-curvature="0"
     style="fill-rule:nonzero;stroke:#000000;stroke-width:2;stroke-linecap:butt;stroke-opacity:0"
     transform="translate(-43.352601,-10.982659)" />
  <path
     clip-path="url(#id_0)"
     d="m 184,124 v -17 h 75 c 1.10458,0 2,0.89543 2,2 v 13 c 0,1.10457 -0.89542,2 -2,2 z"
     id="path83"
     inkscape:connector-curvature="0"
     transform="matrix(1,0,0,1.2352941,-43.352601,-40.15913)"
     style="fill:#ff7575;fill-rule:nonzero;stroke:#000000;stroke-width:1.89934146;stroke-linejoin:round;stroke-miterlimit:10;stroke-dasharray:none;stroke-opacity:1;fill-opacity:1" />
  <path
     clip-path="url(#id_0)"
     d="m 261,151 v -17 h 1 c 0.55228,0 1,0.44771 1,1 v 15 c 0,0.55229 -0.44772,1 -1,1 z"
     id="path85"
     inkscape:connector-curvature="0"
     style="fill-rule:nonzero;stroke:#000000;stroke-width:2;stroke-linecap:butt;stroke-opacity:0"
     transform="translate(-43.352601,-10.982659)" />
  <path
     clip-path="url(#id_0)"
     d="m 126,177 v -17 h 192 c 1.10458,0 2,0.89543 2,2 v 13 c 0,1.10457 -0.89542,2 -2,2 z"
     id="path89"
     inkscape:connector-curvature="0"
     style="fill-rule:nonzero;stroke:#000000;stroke-width:2;stroke-linecap:butt;stroke-opacity:0"
     transform="translate(-43.352601,-10.982659)" />
  <path
     clip-path="url(#id_0)"
     d="m 126,177 v -17 h 192 c 1.10458,0 2,0.89543 2,2 v 13 c 0,1.10457 -0.89542,2 -2,2 z"
     id="path91"
     inkscape:connector-curvature="0"
     transform="matrix(1,0,0,1.2352941,-43.352601,-52.629718)"
     style="fill:#ff7575;fill-rule:nonzero;stroke:#000000;stroke-width:1.89934146;stroke-linejoin:round;stroke-miterlimit:10;stroke-dasharray:none;stroke-opacity:1;fill-opacity:1" />
  <path
     clip-path="url(#id_0)"
     d="m 320,203 v -17 h 1 c 0.55228,0 1,0.44771 1,1 v 15 c 0,0.55229 -0.44772,1 -1,1 z"
     id="path93"
     inkscape:connector-curvature="0"
     style="fill-rule:nonzero;stroke:#000000;stroke-width:2;stroke-linecap:butt;stroke-opacity:0"
     transform="translate(-43.352601,-10.982659)" />
  <path
     clip-path="url(#id_0)"
     d="m 320,230 v -17 h 250 c 1.10455,0 2,0.89543 2,2 v 13 c 0,1.10457 -0.89545,2 -2,2 z"
     id="path97"
     inkscape:connector-curvature="0"
     style="fill-rule:nonzero;stroke:#000000;stroke-width:2;stroke-linecap:butt;stroke-opacity:0"
     transform="translate(-43.352601,-10.982659)" />
  <path
     clip-path="url(#id_0)"
     d="m 320,230 v -17 h 250 c 1.10455,0 2,0.89543 2,2 v 13 c 0,1.10457 -0.89545,2 -2,2 z"
     id="path99"
     inkscape:connector-curvature="0"
     transform="matrix(1,0,0,1.2352941,-43.352601,-65.100306)"
     style="fill:#ff7575;fill-rule:nonzero;stroke:#000000;stroke-width:1.89934146;stroke-linejoin:round;stroke-miterlimit:10;stroke-dasharray:none;stroke-opacity:1;fill-opacity:1" />
  <path
     clip-path="url(#id_0)"
     d="m 436,256 v -17 h 1 c 0.55228,0 1,0.44771 1,1 v 15 c 0,0.55229 -0.44772,1 -1,1 z"
     id="path101"
     inkscape:connector-curvature="0"
     style="fill-rule:nonzero;stroke:#000000;stroke-width:2;stroke-linecap:butt;stroke-opacity:0"
     transform="translate(-43.352601,-10.982659)" />
  <path
     clip-path="url(#id_0)"
     d="m 436,256 v -17 h 1 c 0.55228,0 1,0.44771 1,1 v 15 c 0,0.55229 -0.44772,1 -1,1 z"
     id="path103"
     inkscape:connector-curvature="0"
     style="fill:#b7b7b7;fill-rule:nonzero"
     transform="matrix(1.7647059,0,0,1.7647059,-377.85133,-220.47562)" />
  <path
     clip-path="url(#id_0)"
     d="m 572,282 v -17 h 1 c 0.5523,0 1,0.44772 1,1 v 15 c 0,0.55228 -0.4477,1 -1,1 z"
     id="path105"
     inkscape:connector-curvature="0"
     style="fill-rule:nonzero;stroke:#000000;stroke-width:2;stroke-linecap:butt;stroke-opacity:0"
     transform="translate(-43.352601,-10.982659)" />
  <path
     clip-path="url(#id_0)"
     d="m 116,309 v -17 h 463 c 1.10455,0 2,0.89542 2,2 v 13 c 0,1.10458 -0.89545,2 -2,2 z"
     id="path109"
     inkscape:connector-curvature="0"
     style="fill-rule:nonzero;stroke:#000000;stroke-width:2;stroke-linecap:butt;stroke-opacity:0"
     transform="translate(-43.352601,-10.982659)" />
  <path
     clip-path="url(#id_0)"
     d="m 116,309 v -17 h 463 c 1.10455,0 2,0.89542 2,2 v 13 c 0,1.10458 -0.89545,2 -2,2 z"
     id="path111"
     inkscape:connector-curvature="0"
     transform="matrix(1,0,0,1.3529412,-43.352601,-120.04148)"
     style="fill:#7575ff;fill-rule:nonzero;stroke:#000000;stroke-width:1.85958934;stroke-linejoin:round;stroke-miterlimit:10;stroke-dasharray:none;stroke-opacity:1" />
  <path
     clip-path="url(#id_0)"
     d="m 572,282 v -17 h 1 c 0.5523,0 1,0.44772 1,1 v 15 c 0,0.55228 -0.4477,1 -1,1 z"
     id="path107"
     inkscape:connector-curvature="0"
     style="fill:#b7b7b7;fill-rule:nonzero"
     transform="matrix(1.7647059,0,0,4.3529412,-482.76437,-934.29334)" />
  <path
     d="m 517.15525,27.517341 h -5.59376 v -0.78125 l 2.95312,-3.28125 q 0.65624,-0.75 0.90624,-1.203125 0.25,-0.46875 0.25,-0.96875 0,-0.671875 -0.40624,-1.09375 -0.39062,-0.4375 -1.07812,-0.4375 -0.79688,0 -1.25,0.46875 -0.45314,0.453125 -0.45314,1.28125 h -1.07809 q 0,-1.1875 0.75,-1.90625 0.76559,-0.734375 2.03124,-0.734375 1.20312,0 1.89062,0.625 0.6875,0.625 0.6875,1.671875 0,1.25 -1.60936,3 l -2.28126,2.46875 h 4.28126 z m 5.98436,-2.859375 h 1.1875 v 0.875 h -1.1875 v 1.984375 h -1.07812 v -1.984375 h -3.89064 v -0.640625 l 3.8125,-5.90625 h 1.15626 z m -3.73436,0 h 2.65624 v -4.1875 l -0.14064,0.234375 z"
     id="path115"
     inkscape:connector-curvature="0"
     style="fill:#7575ff;fill-opacity:1;fill-rule:nonzero;stroke:#7575ff;stroke-opacity:1" />
  <path
     d="m 130.73299,49.720466 h 0.8125 q 0.78125,-0.01563 1.21875,-0.40625 0.4375,-0.390625 0.4375,-1.0625 0,-1.5 -1.5,-1.5 -0.70312,0 -1.125,0.40625 -0.40625,0.40625 -0.40625,1.0625 h -1.09375 q 0,-1.015625 0.73438,-1.6875 0.75,-0.671875 1.89062,-0.671875 1.20313,0 1.89063,0.640625 0.6875,0.640625 0.6875,1.78125 0,0.5625 -0.35938,1.078125 -0.35937,0.515625 -0.98437,0.78125 0.70312,0.21875 1.07812,0.734375 0.39063,0.515625 0.39063,1.265625 0,1.140625 -0.75,1.828125 -0.75,0.671875 -1.95313,0.671875 -1.1875,0 -1.95312,-0.65625 -0.75,-0.65625 -0.75,-1.71875 h 1.09375 q 0,0.671875 0.4375,1.078125 0.4375,0.40625 1.1875,0.40625 0.78125,0 1.1875,-0.40625 0.42187,-0.421875 0.42187,-1.1875 0,-0.734375 -0.45312,-1.125 -0.45313,-0.40625 -1.32813,-0.421875 h -0.8125 z"
     id="path119"
     inkscape:connector-curvature="0"
     style="fill:#ffffff;fill-opacity:1;fill-rule:nonzero;stroke:#ffffff;stroke-opacity:1" />
  <path
     d="m 209.32239,103.65797 h 1.1875 v 0.875 h -1.1875 v 1.98437 h -1.07814 v -1.98437 h -3.89062 v -0.64063 l 3.8125,-5.906249 h 1.15626 z m -3.7344,0 h 2.65626 v -4.187499 l -0.14062,0.23437 z"
     id="path127"
     inkscape:connector-curvature="0"
     style="fill:#ffffff;fill-opacity:1;fill-rule:nonzero;stroke:#ffffff;stroke-opacity:1" />
  <path
     d="m 260.4988,159.51734 h -1.0781 v -7.21875 l -2.1875,0.79687 v -0.98437 l 3.10935,-1.17187 h 0.15625 z m 8.7969,-3.64062 q 0,1.90624 -0.65627,2.84374 -0.64063,0.92188 -2.03123,0.92188 -1.3594,0 -2.01565,-0.90625 -0.65625,-0.90625 -0.6875,-2.71875 v -1.4375 q 0,-1.89062 0.64065,-2.79688 0.65623,-0.92187 2.04685,-0.92187 1.375,0 2.03125,0.89063 0.65625,0.875 0.6719,2.71874 z m -1.09377,-1.48438 q 0,-1.375 -0.39063,-2 -0.375,-0.64062 -1.21875,-0.64062 -0.82812,0 -1.21875,0.64062 -0.375,0.625 -0.375,1.92188 v 1.73437 q 0,1.375 0.39063,2.04687 0.40627,0.65626 1.21877,0.65626 0.79685,0 1.1875,-0.625 0.3906,-0.625 0.40623,-1.95313 z"
     id="path135"
     inkscape:connector-curvature="0"
     style="fill:#ffffff;fill-opacity:1;fill-rule:nonzero;stroke:#ffffff;stroke-opacity:1" />
  <path
     d="m 512.66436,212.51734 h -1.07812 v -7.21875 l -2.1875,0.79687 v -0.98437 l 3.10936,-1.17187 h 0.15626 z m 5.01563,-4.79688 h 0.8125 q 0.78124,-0.0156 1.21874,-0.40624 0.4375,-0.39063 0.4375,-1.0625 0,-1.5 -1.5,-1.5 -0.70313,0 -1.125,0.40624 -0.40624,0.40626 -0.40624,1.0625 h -1.09376 q 0,-1.01562 0.73437,-1.6875 0.75,-0.67187 1.89063,-0.67187 1.20313,0 1.89063,0.64063 0.6875,0.64062 0.6875,1.78124 0,0.5625 -0.35937,1.07813 -0.3594,0.51563 -0.9844,0.78125 0.70314,0.21875 1.07814,0.73438 0.39063,0.51562 0.39063,1.26562 0,1.14062 -0.75,1.82812 -0.75,0.67188 -1.95313,0.67188 -1.1875,0 -1.95314,-0.65625 -0.75,-0.65625 -0.75,-1.71875 h 1.09377 q 0,0.67188 0.4375,1.07812 0.4375,0.40626 1.1875,0.40626 0.78123,0 1.1875,-0.40626 0.42187,-0.42187 0.42187,-1.1875 0,-0.73437 -0.45314,-1.125 -0.4531,-0.40624 -1.3281,-0.42187 h -0.8125 z"
     id="path143"
     style="fill:#ffffff;fill-opacity:1;fill-rule:nonzero;stroke:#ffffff;stroke-opacity:1"
     inkscape:connector-curvature="0" />
  <path
     d="m 517.15525,291.51734 h -5.59376 v -0.78125 l 2.95312,-3.28125 q 0.65624,-0.75 0.90624,-1.20312 0.25,-0.46876 0.25,-0.96876 0,-0.67187 -0.40624,-1.09374 -0.39062,-0.4375 -1.07812,-0.4375 -0.79688,0 -1.25,0.46874 -0.45314,0.45313 -0.45314,1.28126 h -1.07809 q 0,-1.1875 0.75,-1.90626 0.76559,-0.73437 2.03124,-0.73437 1.20312,0 1.89062,0.625 0.6875,0.625 0.6875,1.67187 0,1.25 -1.60936,3 l -2.28126,2.46876 h 4.28126 z m 5.98436,-2.85938 h 1.1875 v 0.875 h -1.1875 v 1.98438 h -1.07812 v -1.98438 h -3.89064 v -0.64062 l 3.8125,-5.90625 h 1.15626 z m -3.73436,0 h 2.65624 v -4.1875 l -0.14064,0.23438 z"
     id="path155"
     style="fill:#fcfcff;fill-opacity:1;fill-rule:nonzero;stroke:#ffffff;stroke-opacity:1"
     inkscape:connector-curvature="0" />
  <path
     d="m 42.982909,29.346305 -2.28125,-8.59375 h 1.171875 l 1.3125,5.640626 q 0.203125,0.875 0.359375,1.75 0.328125,-1.375 0.390625,-1.59375 l 1.625,-5.796876 h 1.375 l 1.234375,4.34375 q 0.453125,1.625 0.671875,3.046876 0.15625,-0.8125 0.421875,-1.875 l 1.34375,-5.515626 h 1.140625 l -2.34375,8.59375 h -1.109375 l -1.796875,-6.546874 q -0.234375,-0.8125 -0.28125,-1 -0.125,0.578124 -0.25,1 l -1.8125,6.546874 z m 9.5,0 v -8.59375 h 3.25 q 0.84375,0 1.29688,0.07813 0.64062,0.109374 1.0625,0.40625 0.4375,0.296874 0.6875,0.828124 0.26562,0.53125 0.26562,1.171876 0,1.09375 -0.70312,1.859374 -0.6875,0.75 -2.51563,0.75 h -2.203125 v 3.5 z m 1.140625,-4.5 h 2.21875 q 1.109375,0 1.562505,-0.40625 0.46875,-0.421874 0.46875,-1.171874 0,-0.53125 -0.28125,-0.90625 -0.26563,-0.390626 -0.70313,-0.515626 -0.296875,-0.07812 -1.0625,-0.07812 h -2.203125 z m 6.437505,0.265626 q 0,-1.53125 0.3125,-2.453126 0.3125,-0.9375 0.92187,-1.4375 0.625,-0.5 1.5625,-0.5 0.6875,0 1.20313,0.28125 0.53125,0.28125 0.875,0.8125 0.34375,0.515626 0.53125,1.265626 0.1875,0.75 0.1875,2.03125 0,1.515624 -0.3125,2.4375 -0.29688,0.921874 -0.92188,1.4375 -0.60937,0.5 -1.5625,0.5 -1.23437,0 -1.95312,-0.890626 -0.84375,-1.0625 -0.84375,-3.484374 z m 1.07812,0 q 0,2.109374 0.5,2.8125 0.5,0.703124 1.21875,0.703124 0.73438,0 1.21875,-0.703124 0.5,-0.703126 0.5,-2.8125 0,-2.125 -0.5,-2.8125 -0.48437,-0.703126 -1.23437,-0.703126 -0.71875,0 -1.15625,0.609376 -0.54688,0.78125 -0.54688,2.90625 z"
     id="path161"
     style="fill:#000000;fill-rule:nonzero"
     inkscape:connector-curvature="0" />
  <path
     d="m 42.982909,55.685516 -2.28125,-8.59375 h 1.171875 l 1.3125,5.640625 q 0.203125,0.875 0.359375,1.75 0.328125,-1.375 0.390625,-1.59375 l 1.625,-5.796875 h 1.375 l 1.234375,4.34375 q 0.453125,1.625 0.671875,3.046875 0.15625,-0.8125 0.421875,-1.875 l 1.34375,-5.515625 h 1.140625 l -2.34375,8.59375 h -1.109375 l -1.796875,-6.546875 q -0.234375,-0.8125 -0.28125,-1 -0.125,0.578125 -0.25,1 l -1.8125,6.546875 z m 9.5,0 v -8.59375 h 3.25 q 0.84375,0 1.29688,0.07813 0.64062,0.109375 1.0625,0.40625 0.4375,0.296875 0.6875,0.828125 0.26562,0.53125 0.26562,1.171875 0,1.09375 -0.70312,1.859375 -0.6875,0.75 -2.51563,0.75 h -2.203125 v 3.5 z m 1.140625,-4.5 h 2.21875 q 1.109375,0 1.562505,-0.40625 0.46875,-0.421875 0.46875,-1.171875 0,-0.53125 -0.28125,-0.90625 -0.26563,-0.390625 -0.70313,-0.515625 -0.296875,-0.07813 -1.0625,-0.07813 h -2.203125 z m 10.406255,4.5 h -1.04688 v -6.71875 q -0.39062,0.359375 -1.01562,0.734375 -0.60938,0.359375 -1.09375,0.53125 v -1.015625 q 0.875,-0.421875 1.53125,-1 0.67187,-0.59375 0.95312,-1.15625 h 0.67188 z"
     id="path163"
     inkscape:connector-curvature="0"
     style="fill:#000000;fill-rule:nonzero" />
  <path
     d="m 39.451659,82.024721 v -8.59375 h 1.71875 l 2.03125,6.07812 q 0.28125,0.85938 0.40625,1.28125 0.140625,-0.46875 0.453125,-1.375 l 2.0625,-5.98437 h 1.53125 v 8.59375 h -1.09375 v -7.1875 l -2.5,7.1875 h -1.03125 l -2.484375,-7.3125 v 7.3125 z m 9.65625,-2.76563 1.0625,-0.09375 q 0.07813,0.65625 0.359375,1.0625 0.28125,0.40625 0.859375,0.67188 0.59375,0.25 1.328125,0.25 0.640625,0 1.140625,-0.1875 0.5,-0.20313 0.734375,-0.53125 0.25,-0.34375 0.25,-0.73438 0,-0.40625 -0.234375,-0.70312 -0.234375,-0.3125 -0.765625,-0.51563 -0.359375,-0.14062 -1.546875,-0.42187 -1.171875,-0.28125 -1.640625,-0.53125 -0.625,-0.32813 -0.921875,-0.79688 -0.296875,-0.48437 -0.296875,-1.07812 0,-0.64063 0.359375,-1.20313 0.375,-0.57812 1.078125,-0.85937 0.71875,-0.29688 1.578125,-0.29688 0.953125,0 1.6875,0.3125 0.734375,0.29688 1.125,0.90625 0.390625,0.59375 0.421875,1.34375 l -1.09375,0.07813 q -0.09375,-0.8125 -0.609375,-1.21875 -0.5,-0.42188 -1.484375,-0.42188 -1.03125,0 -1.5,0.375 -0.46875,0.375 -0.46875,0.90625 0,0.46875 0.328125,0.76563 0.328125,0.29687 1.703125,0.60937 1.390625,0.3125 1.90625,0.54688 0.75,0.35937 1.109375,0.89062 0.359375,0.51563 0.359375,1.21875 0,0.6875 -0.390625,1.29688 -0.390625,0.59375 -1.125,0.9375 -0.734375,0.32812 -1.65625,0.32812 -1.171875,0 -1.96875,-0.32812 -0.78125,-0.34375 -1.234375,-1.03125 -0.4375,-0.6875 -0.453125,-1.54688 z m 14.92188,2.76563 h -1.04688 v -6.71875 q -0.39062,0.35937 -1.01562,0.73437 -0.60938,0.35938 -1.09375,0.53125 v -1.01562 q 0.875,-0.42188 1.53125,-1 0.67187,-0.59375 0.95312,-1.15625 h 0.67188 z"
     id="path165"
     inkscape:connector-curvature="0"
     style="fill:#000000;fill-rule:nonzero;stroke:#000000;stroke-opacity:1" />
  <path
     d="m 42.982909,108.36393 -2.28125,-8.593749 h 1.171875 l 1.3125,5.640619 q 0.203125,0.875 0.359375,1.75 0.328125,-1.375 0.390625,-1.59375 l 1.625,-5.796869 h 1.375 l 1.234375,4.343749 q 0.453125,1.625 0.671875,3.04687 0.15625,-0.8125 0.421875,-1.875 l 1.34375,-5.515619 h 1.140625 l -2.34375,8.593749 h -1.109375 l -1.796875,-6.54688 q -0.234375,-0.8125 -0.28125,-1 -0.125,0.57813 -0.25,1 l -1.8125,6.54688 z m 9.5,0 v -8.593749 h 3.25 q 0.84375,0 1.29688,0.0781 0.64062,0.10938 1.0625,0.406249 0.4375,0.29688 0.6875,0.82813 0.26562,0.53125 0.26562,1.17187 0,1.09375 -0.70312,1.85938 -0.6875,0.75 -2.51563,0.75 h -2.203125 v 3.5 z m 1.140625,-4.5 h 2.21875 q 1.109375,0 1.562505,-0.40625 0.46875,-0.42188 0.46875,-1.17188 0,-0.53125 -0.28125,-0.90625 -0.26563,-0.39062 -0.70313,-0.51562 -0.296875,-0.0781 -1.0625,-0.0781 h -2.203125 z m 11.984375,3.48437 v 1.01563 h -5.6875 q 0,-0.375 0.125,-0.73438 0.21875,-0.57812 0.6875,-1.14062 0.48438,-0.5625 1.39063,-1.29688 1.40625,-1.15625 1.89062,-1.82812 0.5,-0.67188 0.5,-1.26563 0,-0.625 -0.45312,-1.04687 -0.45313,-0.4375 -1.17188,-0.4375 -0.76562,0 -1.21875,0.45312 -0.45312,0.45313 -0.46875,1.26563 l -1.07812,-0.10938 q 0.10937,-1.21875 0.82812,-1.84375 0.73438,-0.640619 1.96875,-0.640619 1.23438,0 1.95313,0.687499 0.71875,0.6875 0.71875,1.70312 0,0.51563 -0.21875,1.01563 -0.20313,0.48437 -0.70313,1.04687 -0.48437,0.54688 -1.60937,1.5 -0.95313,0.79688 -1.23438,1.09375 -0.26562,0.28125 -0.4375,0.5625 z"
     id="path167"
     inkscape:connector-curvature="0"
     style="fill:#000000;fill-rule:nonzero" />
  <path
     d="m 39.451659,134.70313 v -8.59375 h 1.71875 l 2.03125,6.07813 q 0.28125,0.85937 0.40625,1.28125 0.140625,-0.46875 0.453125,-1.375 l 2.0625,-5.98438 h 1.53125 v 8.59375 h -1.09375 v -7.1875 l -2.5,7.1875 h -1.03125 l -2.484375,-7.3125 v 7.3125 z m 9.65625,-2.76562 1.0625,-0.0937 q 0.07813,0.65625 0.359375,1.0625 0.28125,0.40625 0.859375,0.67187 0.59375,0.25 1.328125,0.25 0.640625,0 1.140625,-0.1875 0.5,-0.20312 0.734375,-0.53125 0.25,-0.34375 0.25,-0.73437 0,-0.40625 -0.234375,-0.70313 -0.234375,-0.3125 -0.765625,-0.51562 -0.359375,-0.14063 -1.546875,-0.42188 -1.171875,-0.28125 -1.640625,-0.53125 -0.625,-0.32812 -0.921875,-0.79687 -0.296875,-0.48438 -0.296875,-1.07813 0,-0.64062 0.359375,-1.20312 0.375,-0.57813 1.078125,-0.85938 0.71875,-0.29687 1.578125,-0.29687 0.953125,0 1.6875,0.3125 0.734375,0.29687 1.125,0.90625 0.390625,0.59375 0.421875,1.34375 l -1.09375,0.0781 q -0.09375,-0.8125 -0.609375,-1.21875 -0.5,-0.42187 -1.484375,-0.42187 -1.03125,0 -1.5,0.375 -0.46875,0.375 -0.46875,0.90625 0,0.46875 0.328125,0.76562 0.328125,0.29688 1.703125,0.60938 1.390625,0.3125 1.90625,0.54687 0.75,0.35938 1.109375,0.89063 0.359375,0.51562 0.359375,1.21875 0,0.6875 -0.390625,1.29687 -0.390625,0.59375 -1.125,0.9375 -0.734375,0.32813 -1.65625,0.32813 -1.171875,0 -1.96875,-0.32813 -0.78125,-0.34375 -1.234375,-1.03125 -0.4375,-0.6875 -0.453125,-1.54687 z m 16.5,1.75 v 1.01562 h -5.6875 q 0,-0.375 0.125,-0.73437 0.21875,-0.57813 0.6875,-1.14063 0.48438,-0.5625 1.39063,-1.29687 1.40625,-1.15625 1.89062,-1.82813 0.5,-0.67187 0.5,-1.26562 0,-0.625 -0.45312,-1.04688 -0.45313,-0.4375 -1.17188,-0.4375 -0.76562,0 -1.21875,0.45313 -0.45312,0.45312 -0.46875,1.26562 l -1.07812,-0.10937 q 0.10937,-1.21875 0.82812,-1.84375 0.73438,-0.64063 1.96875,-0.64063 1.23438,0 1.95313,0.6875 0.71875,0.6875 0.71875,1.70313 0,0.51562 -0.21875,1.01562 -0.20313,0.48438 -0.70313,1.04688 -0.48437,0.54687 -1.60937,1.5 -0.95313,0.79687 -1.23438,1.09375 -0.26562,0.28125 -0.4375,0.5625 z"
     id="path169"
     inkscape:connector-curvature="0"
     style="fill:#000000;fill-rule:nonzero;stroke:#000000;stroke-opacity:1" />
  <path
     d="m 42.982909,161.04234 -2.28125,-8.59376 h 1.171875 l 1.3125,5.64063 q 0.203125,0.875 0.359375,1.75 0.328125,-1.375 0.390625,-1.59375 l 1.625,-5.79688 h 1.375 l 1.234375,4.34376 q 0.453125,1.625 0.671875,3.04687 0.15625,-0.8125 0.421875,-1.875 l 1.34375,-5.51563 h 1.140625 l -2.34375,8.59376 h -1.109375 l -1.796875,-6.54688 q -0.234375,-0.8125 -0.28125,-1 -0.125,0.57812 -0.25,1 l -1.8125,6.54688 z m 9.5,0 v -8.59376 h 3.25 q 0.84375,0 1.29688,0.0781 0.64062,0.10937 1.0625,0.40625 0.4375,0.29688 0.6875,0.82812 0.26562,0.53126 0.26562,1.17188 0,1.09375 -0.70312,1.85938 -0.6875,0.75 -2.51563,0.75 h -2.203125 v 3.5 z m 1.140625,-4.5 h 2.21875 q 1.109375,0 1.562505,-0.40626 0.46875,-0.42187 0.46875,-1.17187 0,-0.53125 -0.28125,-0.90625 -0.26563,-0.39062 -0.70313,-0.51562 -0.296875,-0.0781 -1.0625,-0.0781 h -2.203125 z m 6.437505,2.23437 1.0625,-0.14063 q 0.17187,0.89063 0.60937,1.29688 0.4375,0.39062 1.0625,0.39062 0.75,0 1.26563,-0.51562 0.51562,-0.51562 0.51562,-1.28125 0,-0.71875 -0.48437,-1.1875 -0.46875,-0.48437 -1.20313,-0.48437 -0.29687,0 -0.75,0.125 l 0.125,-0.9375 q 0.10938,0.0156 0.17188,0.0156 0.67187,0 1.20312,-0.34375 0.54688,-0.35937 0.54688,-1.09375 0,-0.57812 -0.39063,-0.95312 -0.39062,-0.39063 -1.01562,-0.39063 -0.60938,0 -1.03125,0.39063 -0.40625,0.39062 -0.51563,1.15624 l -1.0625,-0.1875 q 0.1875,-1.04687 0.875,-1.625 0.6875,-0.59374 1.70313,-0.59374 0.70312,0 1.29687,0.3125 0.59375,0.29687 0.90625,0.8125 0.3125,0.51562 0.3125,1.10937 0,0.54687 -0.29687,1.01563 -0.29688,0.45312 -0.875,0.71874 0.75,0.17188 1.17187,0.73438 0.42188,0.54688 0.42188,1.39062 0,1.125 -0.82813,1.90626 -0.8125,0.78124 -2.0625,0.78124 -1.125,0 -1.875,-0.67187 -0.75,-0.6875 -0.85937,-1.75 z"
     id="path171"
     inkscape:connector-curvature="0"
     style="fill:#000000;fill-rule:nonzero" />
  <path
     d="m 39.451659,187.38155 v -8.59375 h 1.71875 l 2.03125,6.07813 q 0.28125,0.85937 0.40625,1.28125 0.140625,-0.46875 0.453125,-1.375 l 2.0625,-5.98438 h 1.53125 v 8.59375 h -1.09375 v -7.1875 l -2.5,7.1875 h -1.03125 l -2.484375,-7.3125 v 7.3125 z m 9.65625,-2.76562 1.0625,-0.0937 q 0.07813,0.65625 0.359375,1.0625 0.28125,0.40625 0.859375,0.67187 0.59375,0.25 1.328125,0.25 0.640625,0 1.140625,-0.1875 0.5,-0.20312 0.734375,-0.53125 0.25,-0.34375 0.25,-0.73437 0,-0.40625 -0.234375,-0.70313 -0.234375,-0.3125 -0.765625,-0.51562 -0.359375,-0.14063 -1.546875,-0.42188 -1.171875,-0.28125 -1.640625,-0.53125 -0.625,-0.32812 -0.921875,-0.79687 -0.296875,-0.48438 -0.296875,-1.07813 0,-0.64062 0.359375,-1.20312 0.375,-0.57813 1.078125,-0.85938 0.71875,-0.29687 1.578125,-0.29687 0.953125,0 1.6875,0.3125 0.734375,0.29687 1.125,0.90625 0.390625,0.59375 0.421875,1.34375 l -1.09375,0.0781 q -0.09375,-0.8125 -0.609375,-1.21875 -0.5,-0.42187 -1.484375,-0.42187 -1.03125,0 -1.5,0.375 -0.46875,0.375 -0.46875,0.90625 0,0.46875 0.328125,0.76562 0.328125,0.29688 1.703125,0.60938 1.390625,0.3125 1.90625,0.54687 0.75,0.35938 1.109375,0.89063 0.359375,0.51562 0.359375,1.21875 0,0.6875 -0.390625,1.29687 -0.390625,0.59375 -1.125,0.9375 -0.734375,0.32813 -1.65625,0.32813 -1.171875,0 -1.96875,-0.32813 -0.78125,-0.34375 -1.234375,-1.03125 -0.4375,-0.6875 -0.453125,-1.54687 z m 10.95313,0.5 1.0625,-0.14063 q 0.17187,0.89063 0.60937,1.29688 0.4375,0.39062 1.0625,0.39062 0.75,0 1.26563,-0.51562 0.51562,-0.51563 0.51562,-1.28125 0,-0.71875 -0.48437,-1.1875 -0.46875,-0.48438 -1.20313,-0.48438 -0.29687,0 -0.75,0.125 l 0.125,-0.9375 q 0.10938,0.0156 0.17188,0.0156 0.67187,0 1.20312,-0.34375 0.54688,-0.35938 0.54688,-1.09375 0,-0.57813 -0.39063,-0.95313 -0.39062,-0.39062 -1.01562,-0.39062 -0.60938,0 -1.03125,0.39062 -0.40625,0.39063 -0.51563,1.15625 l -1.0625,-0.1875 q 0.1875,-1.04687 0.875,-1.625 0.6875,-0.59375 1.70313,-0.59375 0.70312,0 1.29687,0.3125 0.59375,0.29688 0.90625,0.8125 0.3125,0.51563 0.3125,1.10938 0,0.54687 -0.29687,1.01562 -0.29688,0.45313 -0.875,0.71875 0.75,0.17188 1.17187,0.73438 0.42188,0.54687 0.42188,1.39062 0,1.125 -0.82813,1.90625 -0.8125,0.78125 -2.0625,0.78125 -1.125,0 -1.875,-0.67187 -0.75,-0.6875 -0.85937,-1.75 z"
     id="path173"
     inkscape:connector-curvature="0"
     style="fill:#000000;fill-rule:nonzero;stroke:#000000;stroke-opacity:1" />
  <path
     d="m 42.982909,213.72075 -2.28125,-8.59375 h 1.171875 l 1.3125,5.64063 q 0.203125,0.875 0.359375,1.75 0.328125,-1.375 0.390625,-1.59375 l 1.625,-5.79688 h 1.375 l 1.234375,4.34375 q 0.453125,1.625 0.671875,3.04688 0.15625,-0.8125 0.421875,-1.875 l 1.34375,-5.51563 h 1.140625 l -2.34375,8.59375 h -1.109375 l -1.796875,-6.54687 q -0.234375,-0.8125 -0.28125,-1 -0.125,0.57812 -0.25,1 l -1.8125,6.54687 z m 9.5,0 V 205.127 h 3.25 q 0.84375,0 1.29688,0.0781 0.64062,0.10937 1.0625,0.40625 0.4375,0.29687 0.6875,0.82812 0.26562,0.53125 0.26562,1.17188 0,1.09375 -0.70312,1.85937 -0.6875,0.75 -2.51563,0.75 h -2.203125 v 3.5 z m 1.140625,-4.5 h 2.21875 q 1.109375,0 1.562505,-0.40625 0.46875,-0.42187 0.46875,-1.17187 0,-0.53125 -0.28125,-0.90625 -0.26563,-0.39063 -0.70313,-0.51563 -0.296875,-0.0781 -1.0625,-0.0781 h -2.203125 z m 9.812505,4.5 v -2.0625 h -3.71875 v -0.96875 l 3.92187,-5.5625 h 0.85938 v 5.5625 h 1.15625 v 0.96875 h -1.15625 v 2.0625 z m 0,-3.03125 v -3.85937 l -2.6875,3.85937 z"
     id="path175"
     inkscape:connector-curvature="0"
     style="fill:#000000;fill-rule:nonzero" />
  <path
     d="m 39.451659,240.05996 v -8.59375 h 1.71875 l 2.03125,6.07813 q 0.28125,0.85937 0.40625,1.28124 0.140625,-0.46874 0.453125,-1.375 l 2.0625,-5.98437 h 1.53125 v 8.59375 h -1.09375 v -7.1875 l -2.5,7.1875 h -1.03125 l -2.484375,-7.3125 v 7.3125 z m 9.65625,-2.76562 1.0625,-0.0938 q 0.07813,0.65626 0.359375,1.0625 0.28125,0.40626 0.859375,0.67188 0.59375,0.25 1.328125,0.25 0.640625,0 1.140625,-0.1875 0.5,-0.20312 0.734375,-0.53125 0.25,-0.34375 0.25,-0.73437 0,-0.40626 -0.234375,-0.70313 -0.234375,-0.3125 -0.765625,-0.51563 -0.359375,-0.14062 -1.546875,-0.42187 -1.171875,-0.28125 -1.640625,-0.53125 -0.625,-0.32812 -0.921875,-0.79688 -0.296875,-0.48437 -0.296875,-1.07812 0,-0.64062 0.359375,-1.20312 0.375,-0.57813 1.078125,-0.85938 0.71875,-0.29688 1.578125,-0.29688 0.953125,0 1.6875,0.3125 0.734375,0.29688 1.125,0.90626 0.390625,0.59374 0.421875,1.34374 l -1.09375,0.0781 q -0.09375,-0.8125 -0.609375,-1.21875 -0.5,-0.42188 -1.484375,-0.42188 -1.03125,0 -1.5,0.375 -0.46875,0.375 -0.46875,0.90626 0,0.46874 0.328125,0.76562 0.328125,0.29688 1.703125,0.60938 1.390625,0.3125 1.90625,0.54687 0.75,0.35937 1.109375,0.89063 0.359375,0.51562 0.359375,1.21874 0,0.6875 -0.390625,1.29688 -0.390625,0.59375 -1.125,0.9375 -0.734375,0.32812 -1.65625,0.32812 -1.171875,0 -1.96875,-0.32812 -0.78125,-0.34375 -1.234375,-1.03125 -0.4375,-0.6875 -0.453125,-1.54687 z m 14.32813,2.76562 v -2.0625 h -3.71875 v -0.96875 l 3.92187,-5.5625 h 0.85938 v 5.5625 h 1.15625 v 0.96875 h -1.15625 v 2.0625 z m 0,-3.03125 v -3.85937 l -2.6875,3.85937 z"
     id="path177"
     inkscape:connector-curvature="0"
     style="fill:#000000;fill-rule:nonzero;stroke:#000000;stroke-opacity:1" />
  <path
     d="m 39.451659,266.39918 v -8.59374 h 1.71875 l 2.03125,6.0781 q 0.28125,0.8594 0.40625,1.28126 0.140625,-0.46876 0.453125,-1.375 l 2.0625,-5.98436 h 1.53125 v 8.59374 h -1.09375 v -7.1875 l -2.5,7.1875 h -1.03125 l -2.484375,-7.3125 v 7.3125 z m 9.65625,-2.76564 1.0625,-0.0937 q 0.07813,0.65624 0.359375,1.0625 0.28125,0.40624 0.859375,0.67188 0.59375,0.25 1.328125,0.25 0.640625,0 1.140625,-0.1875 0.5,-0.20314 0.734375,-0.53124 0.25,-0.34376 0.25,-0.7344 0,-0.40624 -0.234375,-0.7031 -0.234375,-0.3125 -0.765625,-0.51564 -0.359375,-0.14062 -1.546875,-0.42186 -1.171875,-0.28126 -1.640625,-0.53126 -0.625,-0.32814 -0.921875,-0.79688 -0.296875,-0.48436 -0.296875,-1.07812 0,-0.64064 0.359375,-1.20314 0.375,-0.5781 1.078125,-0.85936 0.71875,-0.29688 1.578125,-0.29688 0.953125,0 1.6875,0.3125 0.734375,0.29688 1.125,0.90624 0.390625,0.59376 0.421875,1.34376 l -1.09375,0.0781 q -0.09375,-0.8125 -0.609375,-1.21876 -0.5,-0.42188 -1.484375,-0.42188 -1.03125,0 -1.5,0.375 -0.46875,0.375 -0.46875,0.90624 0,0.46876 0.328125,0.76564 0.328125,0.29686 1.703125,0.60936 1.390625,0.3125 1.90625,0.5469 0.75,0.35936 1.109375,0.8906 0.359375,0.51564 0.359375,1.21876 0,0.6875 -0.390625,1.29688 -0.390625,0.59376 -1.125,0.9375 -0.734375,0.32812 -1.65625,0.32812 -1.171875,0 -1.96875,-0.32812 -0.78125,-0.34374 -1.234375,-1.03124 -0.4375,-0.6875 -0.453125,-1.5469 z m 10.95313,0.51564 1.10937,-0.0937 q 0.125,0.8125 0.5625,1.21874 0.45313,0.40626 1.09375,0.40626 0.75,0 1.28125,-0.57814 0.53125,-0.57812 0.53125,-1.51562 0,-0.90624 -0.51562,-1.42188 -0.5,-0.53126 -1.32813,-0.53126 -0.5,0 -0.92187,0.2344 -0.40625,0.23436 -0.64063,0.59374 l -0.98437,-0.125 0.82812,-4.40624 h 4.28125 v 1 h -3.4375 l -0.45312,2.3125 q 0.76562,-0.5469 1.60937,-0.5469 1.125,0 1.89063,0.78126 0.78125,0.78124 0.78125,2.01564 0,1.15624 -0.67188,2.0156 -0.82812,1.03126 -2.25,1.03126 -1.17187,0 -1.92187,-0.65626 -0.73438,-0.65624 -0.84375,-1.73436 z"
     id="path179"
     inkscape:connector-curvature="0"
     style="fill:#000000;fill-rule:nonzero;stroke:#000000;stroke-opacity:1" />
  <path
     d="m 42.982909,292.73838 -2.28125,-8.59374 h 1.171875 l 1.3125,5.6406 q 0.203125,0.875 0.359375,1.75 0.328125,-1.375 0.390625,-1.59374 l 1.625,-5.79686 h 1.375 l 1.234375,4.34374 q 0.453125,1.625 0.671875,3.04686 0.15625,-0.8125 0.421875,-1.875 l 1.34375,-5.5156 h 1.140625 l -2.34375,8.59374 h -1.109375 l -1.796875,-6.54688 q -0.234375,-0.8125 -0.28125,-1 -0.125,0.57814 -0.25,1 l -1.8125,6.54688 z m 9.5,0 v -8.59374 h 3.25 q 0.84375,0 1.29688,0.0781 0.64062,0.1094 1.0625,0.40626 0.4375,0.29688 0.6875,0.82814 0.26562,0.53124 0.26562,1.17186 0,1.09374 -0.70312,1.85938 -0.6875,0.75 -2.51563,0.75 h -2.203125 v 3.5 z m 1.140625,-4.5 h 2.21875 q 1.109375,0 1.562505,-0.40624 0.46875,-0.4219 0.46875,-1.1719 0,-0.53124 -0.28125,-0.90624 -0.26563,-0.39062 -0.70313,-0.51562 -0.296875,-0.0781 -1.0625,-0.0781 h -2.203125 z m 6.437505,2.25 1.10937,-0.0937 q 0.125,0.8125 0.5625,1.21874 0.45313,0.40626 1.09375,0.40626 0.75,0 1.28125,-0.57814 0.53125,-0.57812 0.53125,-1.51562 0,-0.90624 -0.51562,-1.42188 -0.5,-0.53126 -1.32813,-0.53126 -0.5,0 -0.92187,0.2344 -0.40625,0.23436 -0.64063,0.59374 l -0.98437,-0.125 0.82812,-4.40624 h 4.28125 v 1 h -3.4375 l -0.45312,2.3125 q 0.76562,-0.5469 1.60937,-0.5469 1.125,0 1.89063,0.78126 0.78125,0.78124 0.78125,2.01564 0,1.15624 -0.67188,2.0156 -0.82812,1.03126 -2.25,1.03126 -1.17187,0 -1.92187,-0.65626 -0.73438,-0.65624 -0.84375,-1.73436 z"
     id="path181"
     inkscape:connector-curvature="0"
     style="fill:#000000;fill-rule:nonzero" />
  <path
     d="m 68.983009,318.6738 q 0,-1.74368 0.35585,-2.79347 0.35586,-1.06757 1.04978,-1.63694 0.71171,-0.56937 1.77928,-0.56937 0.78288,0 1.370046,0.32027 0.60495,0.32027 0.9964,0.92523 0.39144,0.58717 0.60495,1.44122 0.21352,0.85406 0.21352,2.31306 0,1.72591 -0.35586,2.77568 -0.33806,1.04978 -1.04978,1.63694 -0.693916,0.56937 -1.779276,0.56937 -1.40563,0 -2.2241,-1.01418 -0.96081,-1.20992 -0.96081,-3.96781 z m 1.2277,0 q 0,2.40204 0.56937,3.20271 0.56937,0.80068 1.38784,0.80068 0.83626,0 1.387836,-0.80068 0.56937,-0.80067 0.56937,-3.20271 0,-2.41982 -0.56937,-3.20271 -0.551576,-0.80067 -1.405626,-0.80067 -0.81847,0 -1.31667,0.69393 -0.62275,0.88963 -0.62275,3.30945 z"
     id="path183"
     inkscape:connector-curvature="0"
     style="fill:#000000;fill-rule:nonzero;stroke-width:1.13874078" />
  <path
     d="m 127.82668,320.91571 1.20991,-0.16014 q 0.19573,1.01419 0.69393,1.4768 0.4982,0.44482 1.20991,0.44482 0.85405,0 1.44122,-0.58717 0.58716,-0.58715 0.58716,-1.459 0,-0.81848 -0.55157,-1.35225 -0.53379,-0.55159 -1.37006,-0.55159 -0.33805,0 -0.85405,0.14235 l 0.14234,-1.06757 q 0.12456,0.0178 0.19573,0.0178 0.76508,0 1.37004,-0.39144 0.62274,-0.40924 0.62274,-1.2455 0,-0.65833 -0.4448,-1.08536 -0.44483,-0.44482 -1.15654,-0.44482 -0.69391,0 -1.17433,0.44482 -0.46262,0.44481 -0.58716,1.31667 l -1.20992,-0.21352 q 0.21352,-1.19211 0.9964,-1.85045 0.78289,-0.67613 1.93941,-0.67613 0.80068,0 1.47681,0.35586 0.67612,0.33807 1.03198,0.92523 0.35585,0.58715 0.35585,1.26329 0,0.62275 -0.33805,1.15653 -0.33806,0.51599 -0.9964,0.81847 0.85405,0.19572 1.33445,0.83626 0.48043,0.62275 0.48043,1.58356 0,1.28109 -0.94302,2.17073 -0.92523,0.88964 -2.34865,0.88964 -1.28108,0 -2.13514,-0.76509 -0.85406,-0.78288 -0.97861,-1.99279 z"
     id="path185"
     inkscape:connector-curvature="0"
     style="fill:#000000;fill-rule:nonzero;stroke-width:1.13874078" />
  <path
     d="m 192.31983,316.11163 -1.19213,0.089 q -0.16013,-0.71171 -0.44481,-1.03198 -0.4982,-0.51599 -1.20992,-0.51599 -0.56937,0 -1.01419,0.32026 -0.55157,0.42703 -0.88964,1.22771 -0.32027,0.78289 -0.33806,2.2419 0.42703,-0.65833 1.04977,-0.97861 0.64054,-0.32026 1.33447,-0.32026 1.19211,0 2.02838,0.88963 0.85405,0.88965 0.85405,2.27748 0,0.92523 -0.40924,1.72591 -0.39144,0.78288 -1.08535,1.20991 -0.69393,0.40923 -1.56577,0.40923 -1.5124,0 -2.45541,-1.10314 -0.94303,-1.10317 -0.94303,-3.62974 0,-2.84685 1.04979,-4.12793 0.90742,-1.12096 2.45541,-1.12096 1.15652,0 1.88603,0.65833 0.7473,0.64054 0.88965,1.77928 z m -4.89304,4.21691 q 0,0.62274 0.2491,1.19211 0.2669,0.55159 0.72951,0.85406 0.48041,0.30248 1.01419,0.30248 0.7473,0 1.29888,-0.60495 0.55157,-0.62276 0.55157,-1.67253 0,-1.0142 -0.55157,-1.60135 -0.53378,-0.58716 -1.35225,-0.58716 -0.81847,0 -1.38784,0.58716 -0.55159,0.58715 -0.55159,1.53018 z"
     id="path187"
     inkscape:connector-curvature="0"
     style="fill:#000000;fill-rule:nonzero;stroke-width:1.13874078" />
  <path
     d="m 243.95789,321.23597 1.15653,-0.10675 q 0.14235,0.81846 0.55159,1.19212 0.42702,0.35585 1.06757,0.35585 0.55157,0 0.96081,-0.2491 0.42703,-0.2669 0.69391,-0.67613 0.2669,-0.42702 0.44483,-1.13874 0.17793,-0.72951 0.17793,-1.47679 0,-0.089 0,-0.24912 -0.35586,0.56937 -0.97861,0.94303 -0.62275,0.35586 -1.35226,0.35586 -1.2277,0 -2.06397,-0.87186 -0.83625,-0.88963 -0.83625,-2.33085 0,-1.4946 0.87184,-2.40203 0.88964,-0.90744 2.20631,-0.90744 0.94302,0 1.72591,0.51599 0.80067,0.516 1.20991,1.47681 0.40923,0.94301 0.40923,2.74009 0,1.86826 -0.40923,2.9892 -0.39144,1.10315 -1.20991,1.69031 -0.80068,0.56937 -1.86825,0.56937 -1.15653,0 -1.88604,-0.62274 -0.7295,-0.64054 -0.87185,-1.79708 z m 4.91082,-4.32365 q 0,-1.03199 -0.55158,-1.63694 -0.53378,-0.60496 -1.31667,-0.60496 -0.80067,0 -1.40562,0.65833 -0.58716,0.64054 -0.58716,1.69032 0,0.92523 0.56937,1.51239 0.56937,0.58717 1.38783,0.58717 0.83626,0 1.37005,-0.58717 0.53378,-0.58716 0.53378,-1.61914 z"
     id="path189"
     inkscape:connector-curvature="0"
     style="fill:#000000;fill-rule:nonzero;stroke-width:1.13874078" />
  <path
     d="m 301.73547,323.49566 h -1.19211 v -7.65091 q -0.44484,0.40923 -1.15654,0.83625 -0.69392,0.40924 -1.2455,0.60497 v -1.15654 q 0.9964,-0.4804 1.74369,-1.13874 0.76509,-0.67613 1.08536,-1.31667 h 0.76509 z m 9.76826,-1.15653 v 1.15653 h -6.47658 q 0,-0.42703 0.14233,-0.83627 0.2491,-0.65833 0.78288,-1.29887 0.55158,-0.64054 1.58356,-1.47681 1.60135,-1.31665 2.15294,-2.08175 0.56937,-0.7651 0.56937,-1.44122 0,-0.71171 -0.516,-1.19212 -0.51599,-0.4982 -1.33446,-0.4982 -0.87185,0 -1.38784,0.51599 -0.51599,0.51599 -0.53378,1.44122 l -1.22771,-0.12454 q 0.12455,-1.38785 0.94302,-2.09957 0.83626,-0.7295 2.2419,-0.7295 1.40563,0 2.2241,0.78289 0.81847,0.78288 0.81847,1.93941 0,0.58717 -0.2491,1.15654 -0.2313,0.55157 -0.80067,1.19211 -0.55159,0.62276 -1.83267,1.70811 -1.08536,0.90744 -1.40563,1.24551 -0.30248,0.32026 -0.4982,0.64054 z"
     id="path191"
     inkscape:connector-curvature="0"
     style="fill:#000000;fill-rule:nonzero;stroke-width:1.13874078" />
  <path
     d="m 360.00129,323.49565 h -1.19217 v -7.65124 q -0.44485,0.40925 -1.15659,0.83629 -0.69395,0.40926 -1.24555,0.605 v -1.1566 q 0.99644,-0.48041 1.74377,-1.13878 0.76514,-0.67617 1.08542,-1.31673 h 0.76512 z m 3.45195,-2.56227 1.26336,-0.10681 q 0.14234,0.92527 0.64056,1.38791 0.51601,0.46262 1.24556,0.46262 0.85409,0 1.45906,-0.65836 0.60499,-0.65837 0.60499,-1.72598 0,-1.03203 -0.5872,-1.61922 -0.56939,-0.60497 -1.51244,-0.60497 -0.56939,0 -1.04983,0.2669 -0.46263,0.2669 -0.72953,0.67615 l -1.121,-0.14234 0.94306,-5.0178 h 4.87545 v 1.13879 h -3.91459 l -0.51602,2.63345 q 0.87188,-0.62276 1.83274,-0.62276 1.28114,0 2.15302,0.88966 0.88967,0.88969 0.88967,2.29538 0,1.31673 -0.7651,2.29539 -0.94307,1.17436 -2.56228,1.17436 -1.33453,0 -2.18863,-0.74733 -0.83629,-0.74734 -0.96085,-1.97508 z"
     id="path193"
     inkscape:connector-curvature="0"
     style="fill:#000000;fill-rule:nonzero;stroke-width:1.13879013" />
  <path
     d="m 419.11072,323.49566 h -1.19211 v -7.65091 q -0.44482,0.40923 -1.15655,0.83625 -0.69391,0.40924 -1.24549,0.60497 v -1.15654 q 0.99639,-0.4804 1.74369,-1.13874 0.76509,-0.67613 1.08538,-1.31667 h 0.76508 z m 5.30226,-5.30226 q -0.7473,-0.28469 -1.12095,-0.78288 -0.35586,-0.516 -0.35586,-1.20992 0,-1.06757 0.7651,-1.79708 0.78288,-0.7295 2.04618,-0.7295 1.28108,0 2.06396,0.7473 0.7829,0.7473 0.7829,1.81487 0,0.67613 -0.35586,1.17433 -0.35585,0.49819 -1.08538,0.78288 0.90743,0.28469 1.37007,0.94303 0.4626,0.65832 0.4626,1.56576 0,1.24549 -0.88963,2.09955 -0.87185,0.85405 -2.33087,0.85405 -1.44122,0 -2.33086,-0.85405 -0.88963,-0.85406 -0.88963,-2.13514 0,-0.9608 0.48039,-1.60135 0.4982,-0.64054 1.38784,-0.87185 z m -0.2491,-2.04617 q 0,0.69392 0.44484,1.13874 0.4626,0.44482 1.1743,0.44482 0.69394,0 1.13874,-0.42703 0.44484,-0.44482 0.44484,-1.08536 0,-0.65834 -0.46263,-1.10316 -0.4626,-0.46261 -1.13873,-0.46261 -0.69392,0 -1.15652,0.44482 -0.44484,0.44481 -0.44484,1.04978 z m -0.37365,4.51937 q 0,0.51599 0.23131,0.9964 0.2491,0.48041 0.72951,0.74731 0.4804,0.26688 1.03197,0.26688 0.85407,0 1.40565,-0.55157 0.56936,-0.55158 0.56936,-1.40564 0,-0.87184 -0.56936,-1.44121 -0.56937,-0.56937 -1.44122,-0.56937 -0.85406,0 -1.40564,0.56937 -0.55158,0.55157 -0.55158,1.38783 z"
     id="path195"
     inkscape:connector-curvature="0"
     style="fill:#000000;fill-rule:nonzero;stroke-width:1.13874078" />
  <path
     d="m 479.75144,322.33913 v 1.15653 h -6.47659 q 0,-0.42703 0.14234,-0.83627 0.24912,-0.65833 0.78289,-1.29887 0.5516,-0.64054 1.58357,-1.47681 1.60136,-1.31665 2.15293,-2.08175 0.56937,-0.7651 0.56937,-1.44122 0,-0.71171 -0.51599,-1.19212 -0.516,-0.4982 -1.33446,-0.4982 -0.87185,0 -1.38785,0.51599 -0.51596,0.51599 -0.53377,1.44122 l -1.22772,-0.12454 q 0.12455,-1.38785 0.94303,-2.09957 0.83626,-0.7295 2.24188,-0.7295 1.40567,0 2.22411,0.78289 0.8185,0.78288 0.8185,1.93941 0,0.58717 -0.24913,1.15654 -0.23131,0.55157 -0.80068,1.19211 -0.55157,0.62276 -1.83265,1.70811 -1.08537,0.90744 -1.40563,1.24551 -0.30249,0.32026 -0.4982,0.64054 z m 6.17414,1.15653 h -1.19216 v -7.65091 q -0.44479,0.40923 -1.15649,0.83625 -0.69395,0.40924 -1.24552,0.60497 v -1.15654 q 0.99639,-0.4804 1.74372,-1.13874 0.76506,-0.67613 1.08533,-1.31667 h 0.76512 z"
     id="path197"
     inkscape:connector-curvature="0"
     style="fill:#000000;fill-rule:nonzero;stroke-width:1.13874078" />
  <path
     d="m 537.17321,322.33913 v 1.15653 h -6.47659 q 0,-0.42703 0.14234,-0.83627 0.24909,-0.65833 0.78289,-1.29887 0.55156,-0.64054 1.58353,-1.47681 1.60136,-1.31665 2.15295,-2.08175 0.56937,-0.7651 0.56937,-1.44122 0,-0.71171 -0.51601,-1.19212 -0.51597,-0.4982 -1.33445,-0.4982 -0.87186,0 -1.38783,0.51599 -0.516,0.51599 -0.53379,1.44122 l -1.22772,-0.12454 q 0.12457,-1.38785 0.94304,-2.09957 0.83624,-0.7295 2.2419,-0.7295 1.40562,0 2.22408,0.78289 0.81848,0.78288 0.81848,1.93941 0,0.58717 -0.24911,1.15654 -0.23127,0.55157 -0.80065,1.19211 -0.55161,0.62276 -1.83268,1.70811 -1.08534,0.90744 -1.40562,1.24551 -0.3025,0.32026 -0.4982,0.64054 z m 5.49795,1.15653 v -2.34865 h -4.23468 v -1.10316 l 4.466,-6.33424 h 0.97859 v 6.33424 h 1.31668 v 1.10316 h -1.31668 v 2.34865 z m 0,-3.45181 v -4.39482 l -3.06037,4.39482 z"
     id="path199"
     inkscape:connector-curvature="0"
     style="fill:#000000;fill-rule:nonzero;stroke-width:1.13874078" />
  <path
     sodipodi:type="star"
     style="opacity:1;fill:#bababa;fill-opacity:1;stroke:#000000;stroke-width:1.46500003;stroke-linecap:round;stroke-linejoin:round;stroke-miterlimit:4;stroke-dasharray:none;stroke-dashoffset:0;stroke-opacity:1"
     id="path1645-7"
     sodipodi:sides="5"
     sodipodi:cx="392.69811"
     sodipodi:cy="236.28864"
     sodipodi:r1="10.301575"
     sodipodi:r2="5.1507874"
     sodipodi:arg1="0.98279372"
     sodipodi:arg2="1.6111123"
     inkscape:flatsided="false"
     inkscape:rounded="0"
     inkscape:randomized="0"
     d="m 398.41241,244.86006 -5.92189,-3.42482 -6.1785,2.93672 1.42724,-6.69038 -4.70225,-4.9686 6.80397,-0.71006 3.27235,-6.00749 2.77784,6.25154 6.72467,1.25577 -5.08716,4.57372 z"
     inkscape:transform-center-x="-0.12830542"
     inkscape:transform-center-y="-0.86088784" />
  <path
     sodipodi:type="star"
     style="opacity:1;fill:#bababa;fill-opacity:1;stroke:#000000;stroke-width:1.46500003;stroke-linecap:round;stroke-linejoin:round;stroke-miterlimit:4;stroke-dasharray:none;stroke-dashoffset:0;stroke-opacity:1"
     id="path1645-5"
     sodipodi:sides="5"
     sodipodi:cx="528.02742"
     sodipodi:cy="262.34641"
     sodipodi:r1="10.301575"
     sodipodi:r2="5.1507874"
     sodipodi:arg1="0.98279372"
     sodipodi:arg2="1.6111123"
     inkscape:flatsided="false"
     inkscape:rounded="0"
     inkscape:randomized="0"
     d="m 533.74169,270.91783 -5.92189,-3.42482 -6.1785,2.93672 1.42724,-6.69038 -4.70225,-4.9686 6.80397,-0.71006 3.27235,-6.00749 2.77785,6.25154 6.72467,1.25577 -5.08717,4.57372 z"
     inkscape:transform-center-x="-0.12830542"
     inkscape:transform-center-y="-0.86088784" />
  <text
     xml:space="preserve"
     style="font-style:normal;font-variant:normal;font-weight:bold;font-stretch:normal;font-size:16px;line-height:1.25;font-family:sans-serif;-inkscape-font-specification:'sans-serif Bold';letter-spacing:0px;word-spacing:0px;fill:#000000;fill-opacity:1;stroke:none"
     x="-281.79736"
     y="21.581398"
     id="text2276"
     transform="rotate(-90)"><tspan
       sodipodi:role="line"
       id="tspan2274"
       x="-281.79736"
       y="21.581398">Work pakages &amp; Milestones</tspan></text>
  <text
     xml:space="preserve"
     style="font-style:normal;font-variant:normal;font-weight:bold;font-stretch:normal;font-size:16px;line-height:1.25;font-family:sans-serif;-inkscape-font-specification:'sans-serif Bold';letter-spacing:0px;word-spacing:0px;fill:#000000;fill-opacity:1;stroke:none;stroke-linecap:square;stroke-miterlimit:10"
     x="220.79327"
     y="348.18393"
     id="text2276-3"><tspan
       sodipodi:role="line"
       id="tspan2274-5"
       x="220.79327"
       y="348.18393">Duration (months)</tspan></text>
  <path
     clip-path="url(#id_0)"
     d="M 184,98 V 81 h 1 c 0.55229,0 1,0.447716 1,1 v 15 c 0,0.552284 -0.44771,1 -1,1 z"
     id="path79"
     inkscape:connector-curvature="0"
     style="fill:#b7b7b7;fill-rule:nonzero"
     transform="matrix(1.7647059,0,0,5.8823529,-186.0585,-414.81195)" />
  <path
     sodipodi:type="star"
     style="opacity:1;fill:#bababa;fill-opacity:1;stroke:#000000;stroke-width:1.46500003;stroke-linecap:round;stroke-linejoin:round;stroke-miterlimit:4;stroke-dasharray:none;stroke-dashoffset:0;stroke-opacity:1"
     id="path1645"
     sodipodi:sides="5"
     sodipodi:cx="140.04229"
     sodipodi:cy="76.310555"
     sodipodi:r1="10.301575"
     sodipodi:r2="5.1507874"
     sodipodi:arg1="0.98279372"
     sodipodi:arg2="1.6111123"
     inkscape:flatsided="false"
     inkscape:rounded="0"
     inkscape:randomized="0"
     d="m 145.75658,84.881983 -5.92189,-3.424827 -6.17849,2.936724 1.42724,-6.69038 -4.70226,-4.968604 6.80397,-0.710056 3.27235,-6.007489 2.77785,6.251541 6.72467,1.255771 -5.08717,4.573721 z"
     inkscape:transform-center-x="-0.12830542"
     inkscape:transform-center-y="-0.86088784" />
  <path
     clip-path="url(#id_0)"
     d="m 261,151 v -17 h 1 c 0.55228,0 1,0.44771 1,1 v 15 c 0,0.55229 -0.44772,1 -1,1 z"
     id="path87"
     inkscape:connector-curvature="0"
     style="fill:#b7b7b7;fill-rule:nonzero"
     transform="matrix(1.7647059,0,0,2.8235294,-244.94084,-264.69387)" />
  <path
     sodipodi:type="star"
     style="opacity:1;fill:#bababa;fill-opacity:1;stroke:#000000;stroke-width:1.46500003;stroke-linecap:round;stroke-linejoin:round;stroke-miterlimit:4;stroke-dasharray:none;stroke-dashoffset:0;stroke-opacity:1"
     id="path1645-3"
     sodipodi:sides="5"
     sodipodi:cx="216.63888"
     sodipodi:cy="130.5545"
     sodipodi:r1="10.301575"
     sodipodi:r2="5.1507874"
     sodipodi:arg1="0.98279372"
     sodipodi:arg2="1.6111123"
     inkscape:flatsided="false"
     inkscape:rounded="0"
     inkscape:randomized="0"
     d="m 222.35317,139.12593 -5.92189,-3.42482 -6.1785,2.93672 1.42724,-6.69038 -4.70225,-4.9686 6.80397,-0.71006 3.27235,-6.00749 2.77785,6.25154 6.72467,1.25577 -5.08717,4.57372 z"
     inkscape:transform-center-x="-0.12830542"
     inkscape:transform-center-y="-0.86088784" />
  <path
     clip-path="url(#id_0)"
     d="m 320,203 v -17 h 1 c 0.55228,0 1,0.44771 1,1 v 15 c 0,0.55229 -0.44772,1 -1,1 z"
     id="path95"
     inkscape:connector-curvature="0"
     style="fill:#b7b7b7;fill-rule:nonzero"
     transform="matrix(1.7647059,0,0,7.5294118,-290.05848,-1235.2342)" />
  <path
     sodipodi:type="star"
     style="opacity:1;fill:#bababa;fill-opacity:1;stroke:#000000;stroke-width:1.46500003;stroke-linecap:round;stroke-linejoin:round;stroke-miterlimit:4;stroke-dasharray:none;stroke-dashoffset:0;stroke-opacity:1"
     id="path1645-6"
     sodipodi:sides="5"
     sodipodi:cx="276.48025"
     sodipodi:cy="181.9996"
     sodipodi:r1="10.301575"
     sodipodi:r2="5.1507874"
     sodipodi:arg1="0.98279372"
     sodipodi:arg2="1.6111123"
     inkscape:flatsided="false"
     inkscape:rounded="0"
     inkscape:randomized="0"
     d="m 282.19454,190.57103 -5.92189,-3.42482 -6.1785,2.93672 1.42724,-6.69038 -4.70225,-4.96861 6.80397,-0.71005 3.27235,-6.00749 2.77785,6.25154 6.72467,1.25577 -5.08717,4.57372 z"
     inkscape:transform-center-x="-0.12830542"
     inkscape:transform-center-y="-0.86088784" />
</svg>
