<?xml version="1.0" encoding="UTF-8" standalone="no"?>
<svg
   xmlns:dc="http://purl.org/dc/elements/1.1/"
   xmlns:cc="http://creativecommons.org/ns#"
   xmlns:rdf="http://www.w3.org/1999/02/22-rdf-syntax-ns#"
   xmlns:svg="http://www.w3.org/2000/svg"
   xmlns="http://www.w3.org/2000/svg"
   xmlns:sodipodi="http://sodipodi.sourceforge.net/DTD/sodipodi-0.dtd"
   xmlns:inkscape="http://www.inkscape.org/namespaces/inkscape"
   version="1.1"
   viewBox="0 0 547.97687 355.39307"
   stroke-miterlimit="10"
   width="547.97687"
   height="355.39307"
   id="svg201"
   sodipodi:docname="gantt_chart.svg"
   style="fill:none;stroke:none;stroke-linecap:square;stroke-miterlimit:10"
   inkscape:version="0.92.3 (2405546, 2018-03-11)">
  <metadata
     id="metadata207">
    <rdf:RDF>
      <cc:Work
         rdf:about="">
        <dc:format>image/svg+xml</dc:format>
        <dc:type
           rdf:resource="http://purl.org/dc/dcmitype/StillImage" />
        <dc:title></dc:title>
      </cc:Work>
    </rdf:RDF>
  </metadata>
  <defs
     id="defs205" />
  <sodipodi:namedview
     pagecolor="#ffffff"
     bordercolor="#666666"
     borderopacity="1"
     objecttolerance="10"
     gridtolerance="10"
     guidetolerance="10"
     inkscape:pageopacity="0"
     inkscape:pageshadow="2"
     inkscape:window-width="1863"
     inkscape:window-height="1025"
     id="namedview203"
     showgrid="false"
     fit-margin-top="0"
     fit-margin-left="0"
     fit-margin-right="0"
     fit-margin-bottom="0"
     inkscape:zoom="2.3748353"
     inkscape:cx="288.51576"
     inkscape:cy="228.22636"
     inkscape:window-x="0"
     inkscape:window-y="27"
     inkscape:window-maximized="1"
     inkscape:current-layer="svg201" />
  <path
     d="M 0,0 H 547.97687 V 355.39306 H 0 Z"
     id="path2"
     inkscape:connector-curvature="0"
     style="fill:#ffffff;fill-rule:nonzero;stroke-width:0.93534756" />
  <path
     d="M 72.147399,7.517341 V 306.51734"
     id="path4"
     inkscape:connector-curvature="0"
     style="fill-rule:nonzero;stroke:#333333;stroke-width:1;stroke-linecap:butt" />
  <path
     d="M 131.14739,7.517341 V 306.51734"
     id="path6"
     inkscape:connector-curvature="0"
     style="fill-rule:nonzero;stroke:#cccccc;stroke-width:1.5;stroke-linecap:butt;stroke-miterlimit:10;stroke-dasharray:none" />
  <path
     d="M 189.14739,7.517341 V 306.51734"
     id="path8"
     inkscape:connector-curvature="0"
     style="fill-rule:nonzero;stroke:#cccccc;stroke-width:1.5;stroke-linecap:butt;stroke-miterlimit:10;stroke-dasharray:none" />
  <path
     d="M 247.14739,7.517341 V 306.51734"
     id="path10"
     inkscape:connector-curvature="0"
     style="fill-rule:nonzero;stroke:#cccccc;stroke-width:1.5;stroke-linecap:butt;stroke-miterlimit:10;stroke-dasharray:none" />
  <path
     d="M 305.1474,7.517341 V 306.51734"
     id="path12"
     inkscape:connector-curvature="0"
     style="fill-rule:nonzero;stroke:#cccccc;stroke-width:1.5;stroke-linecap:butt;stroke-miterlimit:10;stroke-dasharray:none" />
  <path
     d="M 363.1474,7.517341 V 306.51734"
     id="path14"
     inkscape:connector-curvature="0"
     style="fill-rule:nonzero;stroke:#cccccc;stroke-width:1.5;stroke-linecap:butt;stroke-miterlimit:10;stroke-dasharray:none" />
  <path
     d="M 422.1474,7.517341 V 306.51734"
     id="path16"
     inkscape:connector-curvature="0"
     style="fill-rule:nonzero;stroke:#cccccc;stroke-width:1.5;stroke-linecap:butt;stroke-miterlimit:10;stroke-dasharray:none" />
  <path
     d="M 480.1474,7.517341 V 306.51734"
     id="path18"
     inkscape:connector-curvature="0"
     style="fill-rule:nonzero;stroke:#cccccc;stroke-width:1.5;stroke-linecap:butt;stroke-miterlimit:10;stroke-dasharray:none" />
  <path
     d="M 538.14739,7.517341 V 306.51734"
     id="path20"
     inkscape:connector-curvature="0"
     style="fill-rule:nonzero;stroke:#cccccc;stroke-width:1.5;stroke-linecap:butt;stroke-miterlimit:10;stroke-dasharray:none" />
  <clipPath
     id="id_0">
    <path
       d="M 115.91364,18.55 H 581.45 V 317.5 H 115.91364 Z"
       id="path22"
       inkscape:connector-curvature="0"
       style="clip-rule:nonzero" />
  </clipPath>
  <path
     clip-path="url(#id_0)"
     d="M 116,45 V 28 28 Z"
     id="path25"
     inkscape:connector-curvature="0"
     style="fill-rule:nonzero;stroke:#000000;stroke-width:2;stroke-linecap:butt;stroke-opacity:0"
     transform="translate(-43.352601,-10.982659)" />
  <path
     clip-path="url(#id_0)"
     d="M 116,45 V 28 28 Z"
     id="path27"
     inkscape:connector-curvature="0"
     style="fill:#000000;fill-opacity:0;fill-rule:nonzero"
     transform="translate(-43.352601,-10.982659)" />
  <path
     clip-path="url(#id_0)"
     d="M 116,72 V 55 h 10 v 17 z"
     id="path29"
     inkscape:connector-curvature="0"
     style="fill-rule:nonzero;stroke:#000000;stroke-width:2;stroke-linecap:butt;stroke-opacity:0"
     transform="translate(-43.352601,-10.982659)" />
  <path
     clip-path="url(#id_0)"
     d="M 116,72 V 55 h 10 v 17 z"
     id="path31"
     inkscape:connector-curvature="0"
     style="fill:#000000;fill-opacity:0;fill-rule:nonzero"
     transform="translate(-43.352601,-10.982659)" />
  <path
     clip-path="url(#id_0)"
     d="M 116,98 V 81 h 68 v 17 z"
     id="path33"
     inkscape:connector-curvature="0"
     style="fill-rule:nonzero;stroke:#000000;stroke-width:2;stroke-linecap:butt;stroke-opacity:0"
     transform="translate(-43.352601,-10.982659)" />
  <path
     clip-path="url(#id_0)"
     d="M 116,98 V 81 h 68 v 17 z"
     id="path35"
     inkscape:connector-curvature="0"
     style="fill:#000000;fill-opacity:0;fill-rule:nonzero"
     transform="translate(-43.352601,-10.982659)" />
  <path
     clip-path="url(#id_0)"
     d="m 116,124 v -17 h 68 v 17 z"
     id="path37"
     inkscape:connector-curvature="0"
     style="fill-rule:nonzero;stroke:#000000;stroke-width:2;stroke-linecap:butt;stroke-opacity:0"
     transform="translate(-43.352601,-10.982659)" />
  <path
     clip-path="url(#id_0)"
     d="m 116,124 v -17 h 68 v 17 z"
     id="path39"
     inkscape:connector-curvature="0"
     style="fill:#000000;fill-opacity:0;fill-rule:nonzero"
     transform="translate(-43.352601,-10.982659)" />
  <path
     clip-path="url(#id_0)"
     d="m 116,151 v -17 h 145 v 17 z"
     id="path41"
     inkscape:connector-curvature="0"
     style="fill-rule:nonzero;stroke:#000000;stroke-width:2;stroke-linecap:butt;stroke-opacity:0"
     transform="translate(-43.352601,-10.982659)" />
  <path
     clip-path="url(#id_0)"
     d="m 116,151 v -17 h 145 v 17 z"
     id="path43"
     inkscape:connector-curvature="0"
     style="fill:#000000;fill-opacity:0;fill-rule:nonzero"
     transform="translate(-43.352601,-10.982659)" />
  <path
     clip-path="url(#id_0)"
     d="m 116,177 v -17 h 10 v 17 z"
     id="path45"
     inkscape:connector-curvature="0"
     style="fill-rule:nonzero;stroke:#000000;stroke-width:2;stroke-linecap:butt;stroke-opacity:0"
     transform="translate(-43.352601,-10.982659)" />
  <path
     clip-path="url(#id_0)"
     d="m 116,177 v -17 h 10 v 17 z"
     id="path47"
     inkscape:connector-curvature="0"
     style="fill:#000000;fill-opacity:0;fill-rule:nonzero"
     transform="translate(-43.352601,-10.982659)" />
  <path
     clip-path="url(#id_0)"
     d="m 116,203 v -17 h 204 v 17 z"
     id="path49"
     inkscape:connector-curvature="0"
     style="fill-rule:nonzero;stroke:#000000;stroke-width:2;stroke-linecap:butt;stroke-opacity:0"
     transform="translate(-43.352601,-10.982659)" />
  <path
     clip-path="url(#id_0)"
     d="m 116,203 v -17 h 204 v 17 z"
     id="path51"
     inkscape:connector-curvature="0"
     style="fill:#000000;fill-opacity:0;fill-rule:nonzero"
     transform="translate(-43.352601,-10.982659)" />
  <path
     clip-path="url(#id_0)"
     d="m 116,230 v -17 h 204 v 17 z"
     id="path53"
     inkscape:connector-curvature="0"
     style="fill-rule:nonzero;stroke:#000000;stroke-width:2;stroke-linecap:butt;stroke-opacity:0"
     transform="translate(-43.352601,-10.982659)" />
  <path
     clip-path="url(#id_0)"
     d="m 116,230 v -17 h 204 v 17 z"
     id="path55"
     inkscape:connector-curvature="0"
     style="fill:#000000;fill-opacity:0;fill-rule:nonzero"
     transform="translate(-43.352601,-10.982659)" />
  <path
     clip-path="url(#id_0)"
     d="m 116,256 v -17 h 320 v 17 z"
     id="path57"
     inkscape:connector-curvature="0"
     style="fill-rule:nonzero;stroke:#000000;stroke-width:2;stroke-linecap:butt;stroke-opacity:0"
     transform="translate(-43.352601,-10.982659)" />
  <path
     clip-path="url(#id_0)"
     d="m 116,256 v -17 h 320 v 17 z"
     id="path59"
     inkscape:connector-curvature="0"
     style="fill:#000000;fill-opacity:0;fill-rule:nonzero"
     transform="translate(-43.352601,-10.982659)" />
  <path
     clip-path="url(#id_0)"
     d="m 116,282 v -17 h 456 v 17 z"
     id="path61"
     inkscape:connector-curvature="0"
     style="fill-rule:nonzero;stroke:#000000;stroke-width:2;stroke-linecap:butt;stroke-opacity:0"
     transform="translate(-43.352601,-10.982659)" />
  <path
     clip-path="url(#id_0)"
     d="m 116,282 v -17 h 456 v 17 z"
     id="path63"
     inkscape:connector-curvature="0"
     style="fill:#000000;fill-opacity:0;fill-rule:nonzero"
     transform="translate(-43.352601,-10.982659)" />
  <path
     clip-path="url(#id_0)"
     d="m 116,309 v -17 0 z"
     id="path65"
     inkscape:connector-curvature="0"
     style="fill-rule:nonzero;stroke:#000000;stroke-width:2;stroke-linecap:butt;stroke-opacity:0"
     transform="translate(-43.352601,-10.982659)" />
  <path
     clip-path="url(#id_0)"
     d="m 116,309 v -17 0 z"
     id="path67"
     inkscape:connector-curvature="0"
     style="fill:#000000;fill-opacity:0;fill-rule:nonzero"
     transform="translate(-43.352601,-10.982659)" />
  <path
     clip-path="url(#id_0)"
     d="M 116,45 V 28 h 463 c 1.10455,0 2,0.89543 2,2 v 13 c 0,1.10457 -0.89545,2 -2,2 z"
     id="path69"
     inkscape:connector-curvature="0"
     style="fill-rule:nonzero;stroke:#000000;stroke-width:2;stroke-linecap:butt;stroke-opacity:0"
     transform="translate(-43.352601,-10.982659)" />
  <path
     clip-path="url(#id_0)"
     d="M 116,45 V 28 h 463 c 1.10455,0 2,0.89543 2,2 v 13 c 0,1.10457 -0.89545,2 -2,2 z"
     id="path71"
     inkscape:connector-curvature="0"
     transform="matrix(1,0,0,1.3529412,-43.352601,-26.865012)"
     style="fill:#ffffff;fill-rule:nonzero;stroke:#000000;stroke-width:2.46139825;stroke-linejoin:round;stroke-miterlimit:10;stroke-dasharray:none;stroke-opacity:1;fill-opacity:0.99435025" />
  <path
     clip-path="url(#id_0)"
     d="M 126,72 V 55 h 56 c 1.10457,0 2,0.89543 2,2 v 13 c 0,1.10457 -0.89543,2 -2,2 z"
     id="path73"
     inkscape:connector-curvature="0"
     style="fill-rule:nonzero;stroke:#000000;stroke-width:2;stroke-linecap:butt;stroke-opacity:0"
     transform="translate(-43.352601,-10.982659)" />
  <path
     clip-path="url(#id_0)"
     d="M 126,72 V 55 h 56 c 1.10457,0 2,0.89543 2,2 v 13 c 0,1.10457 -0.89543,2 -2,2 z"
     id="path75"
     inkscape:connector-curvature="0"
     transform="matrix(0.9667663,0,0,1.2328655,-29.85844,-27.769617)"
     style="fill:#ff7575;fill-opacity:1;fill-rule:nonzero;stroke:#000000;stroke-width:1.89934146;stroke-linejoin:round;stroke-miterlimit:10;stroke-dasharray:none;stroke-opacity:1" />
  <path
     clip-path="url(#id_0)"
     d="M 184,98 V 81 h 1 c 0.55229,0 1,0.447716 1,1 v 15 c 0,0.552284 -0.44771,1 -1,1 z"
     id="path77"
     inkscape:connector-curvature="0"
     style="fill-rule:nonzero;stroke:#000000;stroke-width:2;stroke-linecap:butt;stroke-opacity:0"
     transform="translate(-43.352601,-10.982659)" />
  <path
     clip-path="url(#id_0)"
     d="m 184,124 v -17 h 75 c 1.10458,0 2,0.89543 2,2 v 13 c 0,1.10457 -0.89542,2 -2,2 z"
     id="path81"
     inkscape:connector-curvature="0"
     style="fill-rule:nonzero;stroke:#000000;stroke-width:2;stroke-linecap:butt;stroke-opacity:0"
     transform="translate(-43.352601,-10.982659)" />
  <path
     clip-path="url(#id_0)"
     d="m 184,124 v -17 h 75 c 1.10458,0 2,0.89543 2,2 v 13 c 0,1.10457 -0.89542,2 -2,2 z"
     id="path83"
     inkscape:connector-curvature="0"
     transform="matrix(0.98371842,0,0,1.2350403,-30.792848,-40.129682)"
     style="fill:#ff7575;fill-opacity:1;fill-rule:nonzero;stroke:#000000;stroke-width:1.89934146;stroke-linejoin:round;stroke-miterlimit:10;stroke-dasharray:none;stroke-opacity:1" />
  <path
     clip-path="url(#id_0)"
     d="m 261,151 v -17 h 1 c 0.55228,0 1,0.44771 1,1 v 15 c 0,0.55229 -0.44772,1 -1,1 z"
     id="path85"
     inkscape:connector-curvature="0"
     style="fill-rule:nonzero;stroke:#000000;stroke-width:2;stroke-linecap:butt;stroke-opacity:0"
     transform="translate(-43.352601,-10.982659)" />
  <path
     clip-path="url(#id_0)"
     d="m 126,177 v -17 h 192 c 1.10458,0 2,0.89543 2,2 v 13 c 0,1.10457 -0.89542,2 -2,2 z"
     id="path89"
     inkscape:connector-curvature="0"
     style="fill-rule:nonzero;stroke:#000000;stroke-width:2;stroke-linecap:butt;stroke-opacity:0"
     transform="translate(-43.352601,-10.982659)" />
  <path
     clip-path="url(#id_0)"
     d="m 126,177 v -17 h 192 c 1.10458,0 2,0.89543 2,2 v 13 c 0,1.10457 -0.89542,2 -2,2 z"
     id="path91"
     inkscape:connector-curvature="0"
     transform="matrix(0.99055546,0,0,1.2359113,-32.809618,-52.733711)"
     style="fill:#ff7575;fill-opacity:1;fill-rule:nonzero;stroke:#000000;stroke-width:1.89934146;stroke-linejoin:round;stroke-miterlimit:10;stroke-dasharray:none;stroke-opacity:1" />
  <path
     clip-path="url(#id_0)"
     d="m 320,203 v -17 h 1 c 0.55228,0 1,0.44771 1,1 v 15 c 0,0.55229 -0.44772,1 -1,1 z"
     id="path93"
     inkscape:connector-curvature="0"
     style="fill-rule:nonzero;stroke:#000000;stroke-width:2;stroke-linecap:butt;stroke-opacity:0"
     transform="translate(-43.352601,-10.982659)" />
  <path
     clip-path="url(#id_0)"
     d="m 320,230 v -17 h 250 c 1.10455,0 2,0.89543 2,2 v 13 c 0,1.10457 -0.89545,2 -2,2 z"
     id="path97"
     inkscape:connector-curvature="0"
     style="fill-rule:nonzero;stroke:#000000;stroke-width:2;stroke-linecap:butt;stroke-opacity:0"
     transform="translate(-43.352601,-10.982659)" />
  <path
     clip-path="url(#id_0)"
     d="m 320,230 v -17 h 250 c 1.10455,0 2,0.89543 2,2 v 13 c 0,1.10457 -0.89545,2 -2,2 z"
     id="path99"
     inkscape:connector-curvature="0"
     transform="matrix(0.99366776,0,0,1.2357068,-31.919448,-65.19168)"
     style="fill:#ff7575;fill-opacity:1;fill-rule:nonzero;stroke:#000000;stroke-width:1.89934146;stroke-linejoin:round;stroke-miterlimit:10;stroke-dasharray:none;stroke-opacity:1" />
  <path
     clip-path="url(#id_0)"
     d="m 436,256 v -17 h 1 c 0.55228,0 1,0.44771 1,1 v 15 c 0,0.55229 -0.44772,1 -1,1 z"
     id="path101"
     inkscape:connector-curvature="0"
     style="fill-rule:nonzero;stroke:#000000;stroke-width:2;stroke-linecap:butt;stroke-opacity:0"
     transform="translate(-43.352601,-10.982659)" />
  <path
     clip-path="url(#id_0)"
     d="m 572,282 v -17 h 1 c 0.5523,0 1,0.44772 1,1 v 15 c 0,0.55228 -0.4477,1 -1,1 z"
     id="path105"
     inkscape:connector-curvature="0"
     style="fill-rule:nonzero;stroke:#000000;stroke-width:2;stroke-linecap:butt;stroke-opacity:0"
     transform="translate(-43.352601,-10.982659)" />
  <path
     clip-path="url(#id_0)"
     d="m 116,309 v -17 h 463 c 1.10455,0 2,0.89542 2,2 v 13 c 0,1.10458 -0.89545,2 -2,2 z"
     id="path109"
     inkscape:connector-curvature="0"
     style="fill-rule:nonzero;stroke:#000000;stroke-width:2;stroke-linecap:butt;stroke-opacity:0"
     transform="translate(-43.352601,-10.982659)" />
  <path
     clip-path="url(#id_0)"
     d="m 116,309 v -17 h 463 c 1.10455,0 2,0.89542 2,2 v 13 c 0,1.10458 -0.89545,2 -2,2 z"
     id="path111"
     inkscape:connector-curvature="0"
     transform="matrix(1,0,0,1.3529412,-43.352601,-120.04148)"
     style="fill:#7575ff;fill-rule:nonzero;stroke:#000000;stroke-width:1.85958934;stroke-linejoin:round;stroke-miterlimit:10;stroke-dasharray:none;stroke-opacity:1" />
  <path
     d="m 68.983009,318.6738 q 0,-1.74368 0.35585,-2.79347 0.35586,-1.06757 1.04978,-1.63694 0.71171,-0.56937 1.77928,-0.56937 0.78288,0 1.370046,0.32027 0.60495,0.32027 0.9964,0.92523 0.39144,0.58717 0.60495,1.44122 0.21352,0.85406 0.21352,2.31306 0,1.72591 -0.35586,2.77568 -0.33806,1.04978 -1.04978,1.63694 -0.693916,0.56937 -1.779276,0.56937 -1.40563,0 -2.2241,-1.01418 -0.96081,-1.20992 -0.96081,-3.96781 z m 1.2277,0 q 0,2.40204 0.56937,3.20271 0.56937,0.80068 1.38784,0.80068 0.83626,0 1.387836,-0.80068 0.56937,-0.80067 0.56937,-3.20271 0,-2.41982 -0.56937,-3.20271 -0.551576,-0.80067 -1.405626,-0.80067 -0.81847,0 -1.31667,0.69393 -0.62275,0.88963 -0.62275,3.30945 z"
     id="path183"
     inkscape:connector-curvature="0"
     style="fill:#000000;fill-rule:nonzero;stroke-width:1.13874078" />
  <path
     d="m 127.82668,320.91571 1.20991,-0.16014 q 0.19573,1.01419 0.69393,1.4768 0.4982,0.44482 1.20991,0.44482 0.85405,0 1.44122,-0.58717 0.58716,-0.58715 0.58716,-1.459 0,-0.81848 -0.55157,-1.35225 -0.53379,-0.55159 -1.37006,-0.55159 -0.33805,0 -0.85405,0.14235 l 0.14234,-1.06757 q 0.12456,0.0178 0.19573,0.0178 0.76508,0 1.37004,-0.39144 0.62274,-0.40924 0.62274,-1.2455 0,-0.65833 -0.4448,-1.08536 -0.44483,-0.44482 -1.15654,-0.44482 -0.69391,0 -1.17433,0.44482 -0.46262,0.44481 -0.58716,1.31667 l -1.20992,-0.21352 q 0.21352,-1.19211 0.9964,-1.85045 0.78289,-0.67613 1.93941,-0.67613 0.80068,0 1.47681,0.35586 0.67612,0.33807 1.03198,0.92523 0.35585,0.58715 0.35585,1.26329 0,0.62275 -0.33805,1.15653 -0.33806,0.51599 -0.9964,0.81847 0.85405,0.19572 1.33445,0.83626 0.48043,0.62275 0.48043,1.58356 0,1.28109 -0.94302,2.17073 -0.92523,0.88964 -2.34865,0.88964 -1.28108,0 -2.13514,-0.76509 -0.85406,-0.78288 -0.97861,-1.99279 z"
     id="path185"
     inkscape:connector-curvature="0"
     style="fill:#000000;fill-rule:nonzero;stroke-width:1.13874078" />
  <path
     d="m 192.31983,316.11163 -1.19213,0.089 q -0.16013,-0.71171 -0.44481,-1.03198 -0.4982,-0.51599 -1.20992,-0.51599 -0.56937,0 -1.01419,0.32026 -0.55157,0.42703 -0.88964,1.22771 -0.32027,0.78289 -0.33806,2.2419 0.42703,-0.65833 1.04977,-0.97861 0.64054,-0.32026 1.33447,-0.32026 1.19211,0 2.02838,0.88963 0.85405,0.88965 0.85405,2.27748 0,0.92523 -0.40924,1.72591 -0.39144,0.78288 -1.08535,1.20991 -0.69393,0.40923 -1.56577,0.40923 -1.5124,0 -2.45541,-1.10314 -0.94303,-1.10317 -0.94303,-3.62974 0,-2.84685 1.04979,-4.12793 0.90742,-1.12096 2.45541,-1.12096 1.15652,0 1.88603,0.65833 0.7473,0.64054 0.88965,1.77928 z m -4.89304,4.21691 q 0,0.62274 0.2491,1.19211 0.2669,0.55159 0.72951,0.85406 0.48041,0.30248 1.01419,0.30248 0.7473,0 1.29888,-0.60495 0.55157,-0.62276 0.55157,-1.67253 0,-1.0142 -0.55157,-1.60135 -0.53378,-0.58716 -1.35225,-0.58716 -0.81847,0 -1.38784,0.58716 -0.55159,0.58715 -0.55159,1.53018 z"
     id="path187"
     inkscape:connector-curvature="0"
     style="fill:#000000;fill-rule:nonzero;stroke-width:1.13874078" />
  <path
     d="m 243.95789,321.23597 1.15653,-0.10675 q 0.14235,0.81846 0.55159,1.19212 0.42702,0.35585 1.06757,0.35585 0.55157,0 0.96081,-0.2491 0.42703,-0.2669 0.69391,-0.67613 0.2669,-0.42702 0.44483,-1.13874 0.17793,-0.72951 0.17793,-1.47679 0,-0.089 0,-0.24912 -0.35586,0.56937 -0.97861,0.94303 -0.62275,0.35586 -1.35226,0.35586 -1.2277,0 -2.06397,-0.87186 -0.83625,-0.88963 -0.83625,-2.33085 0,-1.4946 0.87184,-2.40203 0.88964,-0.90744 2.20631,-0.90744 0.94302,0 1.72591,0.51599 0.80067,0.516 1.20991,1.47681 0.40923,0.94301 0.40923,2.74009 0,1.86826 -0.40923,2.9892 -0.39144,1.10315 -1.20991,1.69031 -0.80068,0.56937 -1.86825,0.56937 -1.15653,0 -1.88604,-0.62274 -0.7295,-0.64054 -0.87185,-1.79708 z m 4.91082,-4.32365 q 0,-1.03199 -0.55158,-1.63694 -0.53378,-0.60496 -1.31667,-0.60496 -0.80067,0 -1.40562,0.65833 -0.58716,0.64054 -0.58716,1.69032 0,0.92523 0.56937,1.51239 0.56937,0.58717 1.38783,0.58717 0.83626,0 1.37005,-0.58717 0.53378,-0.58716 0.53378,-1.61914 z"
     id="path189"
     inkscape:connector-curvature="0"
     style="fill:#000000;fill-rule:nonzero;stroke-width:1.13874078" />
  <path
     d="m 301.73547,323.49566 h -1.19211 v -7.65091 q -0.44484,0.40923 -1.15654,0.83625 -0.69392,0.40924 -1.2455,0.60497 v -1.15654 q 0.9964,-0.4804 1.74369,-1.13874 0.76509,-0.67613 1.08536,-1.31667 h 0.76509 z m 9.76826,-1.15653 v 1.15653 h -6.47658 q 0,-0.42703 0.14233,-0.83627 0.2491,-0.65833 0.78288,-1.29887 0.55158,-0.64054 1.58356,-1.47681 1.60135,-1.31665 2.15294,-2.08175 0.56937,-0.7651 0.56937,-1.44122 0,-0.71171 -0.516,-1.19212 -0.51599,-0.4982 -1.33446,-0.4982 -0.87185,0 -1.38784,0.51599 -0.51599,0.51599 -0.53378,1.44122 l -1.22771,-0.12454 q 0.12455,-1.38785 0.94302,-2.09957 0.83626,-0.7295 2.2419,-0.7295 1.40563,0 2.2241,0.78289 0.81847,0.78288 0.81847,1.93941 0,0.58717 -0.2491,1.15654 -0.2313,0.55157 -0.80067,1.19211 -0.55159,0.62276 -1.83267,1.70811 -1.08536,0.90744 -1.40563,1.24551 -0.30248,0.32026 -0.4982,0.64054 z"
     id="path191"
     inkscape:connector-curvature="0"
     style="fill:#000000;fill-rule:nonzero;stroke-width:1.13874078" />
  <path
     d="m 360.00129,323.49565 h -1.19217 v -7.65124 q -0.44485,0.40925 -1.15659,0.83629 -0.69395,0.40926 -1.24555,0.605 v -1.1566 q 0.99644,-0.48041 1.74377,-1.13878 0.76514,-0.67617 1.08542,-1.31673 h 0.76512 z m 3.45195,-2.56227 1.26336,-0.10681 q 0.14234,0.92527 0.64056,1.38791 0.51601,0.46262 1.24556,0.46262 0.85409,0 1.45906,-0.65836 0.60499,-0.65837 0.60499,-1.72598 0,-1.03203 -0.5872,-1.61922 -0.56939,-0.60497 -1.51244,-0.60497 -0.56939,0 -1.04983,0.2669 -0.46263,0.2669 -0.72953,0.67615 l -1.121,-0.14234 0.94306,-5.0178 h 4.87545 v 1.13879 h -3.91459 l -0.51602,2.63345 q 0.87188,-0.62276 1.83274,-0.62276 1.28114,0 2.15302,0.88966 0.88967,0.88969 0.88967,2.29538 0,1.31673 -0.7651,2.29539 -0.94307,1.17436 -2.56228,1.17436 -1.33453,0 -2.18863,-0.74733 -0.83629,-0.74734 -0.96085,-1.97508 z"
     id="path193"
     inkscape:connector-curvature="0"
     style="fill:#000000;fill-rule:nonzero;stroke-width:1.13879013" />
  <path
     d="m 419.11072,323.49566 h -1.19211 v -7.65091 q -0.44482,0.40923 -1.15655,0.83625 -0.69391,0.40924 -1.24549,0.60497 v -1.15654 q 0.99639,-0.4804 1.74369,-1.13874 0.76509,-0.67613 1.08538,-1.31667 h 0.76508 z m 5.30226,-5.30226 q -0.7473,-0.28469 -1.12095,-0.78288 -0.35586,-0.516 -0.35586,-1.20992 0,-1.06757 0.7651,-1.79708 0.78288,-0.7295 2.04618,-0.7295 1.28108,0 2.06396,0.7473 0.7829,0.7473 0.7829,1.81487 0,0.67613 -0.35586,1.17433 -0.35585,0.49819 -1.08538,0.78288 0.90743,0.28469 1.37007,0.94303 0.4626,0.65832 0.4626,1.56576 0,1.24549 -0.88963,2.09955 -0.87185,0.85405 -2.33087,0.85405 -1.44122,0 -2.33086,-0.85405 -0.88963,-0.85406 -0.88963,-2.13514 0,-0.9608 0.48039,-1.60135 0.4982,-0.64054 1.38784,-0.87185 z m -0.2491,-2.04617 q 0,0.69392 0.44484,1.13874 0.4626,0.44482 1.1743,0.44482 0.69394,0 1.13874,-0.42703 0.44484,-0.44482 0.44484,-1.08536 0,-0.65834 -0.46263,-1.10316 -0.4626,-0.46261 -1.13873,-0.46261 -0.69392,0 -1.15652,0.44482 -0.44484,0.44481 -0.44484,1.04978 z m -0.37365,4.51937 q 0,0.51599 0.23131,0.9964 0.2491,0.48041 0.72951,0.74731 0.4804,0.26688 1.03197,0.26688 0.85407,0 1.40565,-0.55157 0.56936,-0.55158 0.56936,-1.40564 0,-0.87184 -0.56936,-1.44121 -0.56937,-0.56937 -1.44122,-0.56937 -0.85406,0 -1.40564,0.56937 -0.55158,0.55157 -0.55158,1.38783 z"
     id="path195"
     inkscape:connector-curvature="0"
     style="fill:#000000;fill-rule:nonzero;stroke-width:1.13874078" />
  <path
     d="m 479.75144,322.33913 v 1.15653 h -6.47659 q 0,-0.42703 0.14234,-0.83627 0.24912,-0.65833 0.78289,-1.29887 0.5516,-0.64054 1.58357,-1.47681 1.60136,-1.31665 2.15293,-2.08175 0.56937,-0.7651 0.56937,-1.44122 0,-0.71171 -0.51599,-1.19212 -0.516,-0.4982 -1.33446,-0.4982 -0.87185,0 -1.38785,0.51599 -0.51596,0.51599 -0.53377,1.44122 l -1.22772,-0.12454 q 0.12455,-1.38785 0.94303,-2.09957 0.83626,-0.7295 2.24188,-0.7295 1.40567,0 2.22411,0.78289 0.8185,0.78288 0.8185,1.93941 0,0.58717 -0.24913,1.15654 -0.23131,0.55157 -0.80068,1.19211 -0.55157,0.62276 -1.83265,1.70811 -1.08537,0.90744 -1.40563,1.24551 -0.30249,0.32026 -0.4982,0.64054 z m 6.17414,1.15653 h -1.19216 v -7.65091 q -0.44479,0.40923 -1.15649,0.83625 -0.69395,0.40924 -1.24552,0.60497 v -1.15654 q 0.99639,-0.4804 1.74372,-1.13874 0.76506,-0.67613 1.08533,-1.31667 h 0.76512 z"
     id="path197"
     inkscape:connector-curvature="0"
     style="fill:#000000;fill-rule:nonzero;stroke-width:1.13874078" />
  <path
     d="m 537.17321,322.33913 v 1.15653 h -6.47659 q 0,-0.42703 0.14234,-0.83627 0.24909,-0.65833 0.78289,-1.29887 0.55156,-0.64054 1.58353,-1.47681 1.60136,-1.31665 2.15295,-2.08175 0.56937,-0.7651 0.56937,-1.44122 0,-0.71171 -0.51601,-1.19212 -0.51597,-0.4982 -1.33445,-0.4982 -0.87186,0 -1.38783,0.51599 -0.516,0.51599 -0.53379,1.44122 l -1.22772,-0.12454 q 0.12457,-1.38785 0.94304,-2.09957 0.83624,-0.7295 2.2419,-0.7295 1.40562,0 2.22408,0.78289 0.81848,0.78288 0.81848,1.93941 0,0.58717 -0.24911,1.15654 -0.23127,0.55157 -0.80065,1.19211 -0.55161,0.62276 -1.83268,1.70811 -1.08534,0.90744 -1.40562,1.24551 -0.3025,0.32026 -0.4982,0.64054 z m 5.49795,1.15653 v -2.34865 h -4.23468 v -1.10316 l 4.466,-6.33424 h 0.97859 v 6.33424 h 1.31668 v 1.10316 h -1.31668 v 2.34865 z m 0,-3.45181 v -4.39482 l -3.06037,4.39482 z"
     id="path199"
     inkscape:connector-curvature="0"
     style="fill:#000000;fill-rule:nonzero;stroke-width:1.13874078" />
  <path
     sodipodi:type="star"
     style="opacity:1;fill:#bababa;fill-opacity:1;stroke:#000000;stroke-width:1.46500003;stroke-linecap:round;stroke-linejoin:round;stroke-miterlimit:4;stroke-dasharray:none;stroke-dashoffset:0;stroke-opacity:1"
     id="path1645-7"
     sodipodi:sides="5"
     sodipodi:cx="400.69812"
     sodipodi:cy="236.28864"
     sodipodi:r1="10.301575"
     sodipodi:r2="5.1507874"
     sodipodi:arg1="0.98279372"
     sodipodi:arg2="1.6111123"
     inkscape:flatsided="false"
     inkscape:rounded="0"
     inkscape:randomized="0"
     d="m 406.41241,244.86006 -5.92189,-3.42482 -6.1785,2.93672 1.42724,-6.69038 -4.70225,-4.9686 6.80397,-0.71006 3.27235,-6.00749 2.77784,6.25154 6.72467,1.25577 -5.08716,4.57372 z"
     inkscape:transform-center-x="-0.12830542"
     inkscape:transform-center-y="-0.86088784" />
  <path
     sodipodi:type="star"
     style="opacity:1;fill:#bababa;fill-opacity:1;stroke:#000000;stroke-width:1.46500003;stroke-linecap:round;stroke-linejoin:round;stroke-miterlimit:4;stroke-dasharray:none;stroke-dashoffset:0;stroke-opacity:1"
     id="path1645-5"
     sodipodi:sides="5"
     sodipodi:cx="537.29065"
     sodipodi:cy="259.08316"
     sodipodi:r1="10.301575"
     sodipodi:r2="5.1507874"
     sodipodi:arg1="0.98279372"
     sodipodi:arg2="1.6111123"
     inkscape:flatsided="false"
     inkscape:rounded="0"
     inkscape:randomized="0"
     d="m 543.00493,267.65459 -5.92188,-3.42483 -6.1785,2.93673 1.42724,-6.69038 -4.70225,-4.96861 6.80397,-0.71005 3.27234,-6.00749 2.77785,6.25154 6.72467,1.25577 -5.08716,4.57372 z"
     inkscape:transform-center-x="-0.12830542"
     inkscape:transform-center-y="-0.86088784" />
  <text
     xml:space="preserve"
     style="font-style:normal;font-variant:normal;font-weight:bold;font-stretch:normal;font-size:16px;line-height:1.25;font-family:Arial;-inkscape-font-specification:'Arial Bold';letter-spacing:0px;word-spacing:0px;fill:#000000;fill-opacity:1;stroke:none"
     x="-261.79736"
     y="21.581398"
     id="text2276"
     transform="rotate(-90)"><tspan
       sodipodi:role="line"
       id="tspan2274"
       x="-261.79736"
       y="21.581398">Work pakages &amp; Milestones</tspan></text>
  <text
     xml:space="preserve"
     style="font-style:normal;font-variant:normal;font-weight:bold;font-stretch:normal;font-size:16px;line-height:1.25;font-family:Arial;-inkscape-font-specification:'Arial Bold';letter-spacing:0px;word-spacing:0px;fill:#000000;fill-opacity:1;stroke:none;stroke-linecap:square;stroke-miterlimit:10"
     x="220.79327"
     y="348.18393"
     id="text2276-3"><tspan
       sodipodi:role="line"
       id="tspan2274-5"
       x="220.79327"
       y="348.18393">Duration (months)</tspan></text>
  <path
     sodipodi:type="star"
     style="opacity:1;fill:#bababa;fill-opacity:1;stroke:#000000;stroke-width:1.46500003;stroke-linecap:round;stroke-linejoin:round;stroke-miterlimit:4;stroke-dasharray:none;stroke-dashoffset:0;stroke-opacity:1"
     id="path1645"
     sodipodi:sides="5"
     sodipodi:cx="147.62122"
     sodipodi:cy="77.573799"
     sodipodi:r1="10.301575"
     sodipodi:r2="5.1507874"
     sodipodi:arg1="0.98279372"
     sodipodi:arg2="1.6111123"
     inkscape:flatsided="false"
     inkscape:rounded="0"
     inkscape:randomized="0"
     d="m 153.3355,86.145227 -5.92189,-3.424826 -6.1785,2.936724 1.42724,-6.69038 -4.70225,-4.968604 6.80397,-0.710056 3.27235,-6.00749 2.77785,6.251542 6.72467,1.255771 -5.08717,4.573721 z"
     inkscape:transform-center-x="-0.12830542"
     inkscape:transform-center-y="-0.86088784" />
  <path
     sodipodi:type="star"
     style="opacity:1;fill:#bababa;fill-opacity:1;stroke:#000000;stroke-width:1.46500003;stroke-linecap:round;stroke-linejoin:round;stroke-miterlimit:4;stroke-dasharray:none;stroke-dashoffset:0;stroke-opacity:1"
     id="path1645-3"
     sodipodi:sides="5"
     sodipodi:cx="225.05997"
     sodipodi:cy="130.5545"
     sodipodi:r1="10.301575"
     sodipodi:r2="5.1507874"
     sodipodi:arg1="0.98279372"
     sodipodi:arg2="1.6111123"
     inkscape:flatsided="false"
     inkscape:rounded="0"
     inkscape:randomized="0"
     d="m 230.77425,139.12593 -5.92189,-3.42482 -6.17849,2.93672 1.42723,-6.69038 -4.70225,-4.9686 6.80397,-0.71006 3.27235,-6.00749 2.77785,6.25154 6.72467,1.25577 -5.08717,4.57372 z"
     inkscape:transform-center-x="-0.12830542"
     inkscape:transform-center-y="-0.86088784" />
  <path
     sodipodi:type="star"
     style="opacity:1;fill:#bababa;fill-opacity:1;stroke:#000000;stroke-width:1.46500003;stroke-linecap:round;stroke-linejoin:round;stroke-miterlimit:4;stroke-dasharray:none;stroke-dashoffset:0;stroke-opacity:1"
     id="path1645-6"
     sodipodi:sides="5"
     sodipodi:cx="284.05917"
     sodipodi:cy="181.9996"
     sodipodi:r1="10.301575"
     sodipodi:r2="5.1507874"
     sodipodi:arg1="0.98279372"
     sodipodi:arg2="1.6111123"
     inkscape:flatsided="false"
     inkscape:rounded="0"
     inkscape:randomized="0"
     d="m 289.77346,190.57103 -5.92189,-3.42482 -6.1785,2.93672 1.42724,-6.69038 -4.70225,-4.96861 6.80397,-0.71005 3.27235,-6.00749 2.77784,6.25154 6.72468,1.25577 -5.08717,4.57372 z"
     inkscape:transform-center-x="-0.12830542"
     inkscape:transform-center-y="-0.86088784" />
  <text
     xml:space="preserve"
     style="font-style:normal;font-variant:normal;font-weight:bold;font-stretch:normal;font-size:16px;line-height:1.25;font-family:Arial;-inkscape-font-specification:'Arial Bold';letter-spacing:0px;word-spacing:0px;fill:#ffffff;fill-opacity:1;stroke:none"
     x="133.06186"
     y="55.688213"
     id="text904"><tspan
       sodipodi:role="line"
       id="tspan902"
       x="133.06186"
       y="55.688213">4</tspan></text>
  <text
     xml:space="preserve"
     style="font-style:normal;font-variant:normal;font-weight:bold;font-stretch:normal;font-size:16px;line-height:1.25;font-family:Arial;-inkscape-font-specification:'Arial Bold';letter-spacing:0px;word-spacing:0px;fill:#ffffff;fill-opacity:1;stroke:none"
     x="210.96199"
     y="108.21804"
     id="text908"><tspan
       sodipodi:role="line"
       id="tspan906"
       x="210.96199"
       y="108.21804">5</tspan></text>
  <text
     xml:space="preserve"
     style="font-style:normal;font-variant:normal;font-weight:bold;font-stretch:normal;font-size:16px;line-height:1.25;font-family:Arial;-inkscape-font-specification:'Arial Bold';letter-spacing:0px;word-spacing:0px;fill:#ffffff;fill-opacity:1;stroke:none"
     x="263.57779"
     y="161.27213"
     id="text912"><tspan
       sodipodi:role="line"
       id="tspan910"
       x="263.57779"
       y="161.27213">11</tspan></text>
  <text
     xml:space="preserve"
     style="font-style:normal;font-variant:normal;font-weight:bold;font-stretch:normal;font-size:16px;line-height:1.25;font-family:Arial;-inkscape-font-specification:'Arial Bold';letter-spacing:0px;word-spacing:0px;fill:#ffffff;fill-opacity:1;stroke:none"
     x="512.54871"
     y="213.90958"
     id="text916"><tspan
       sodipodi:role="line"
       id="tspan914"
       x="512.54871"
       y="213.90958">14</tspan></text>
  <text
     xml:space="preserve"
     style="font-style:normal;font-variant:normal;font-weight:bold;font-stretch:normal;font-size:16px;line-height:1.25;font-family:Arial;-inkscape-font-specification:'Arial Bold';letter-spacing:0px;word-spacing:0px;fill:#7575ff;fill-opacity:1;stroke:none"
     x="513.82355"
     y="28.107082"
     id="text920"><tspan
       sodipodi:role="line"
       id="tspan918"
       x="513.82355"
       y="28.107082">24</tspan></text>
  <text
     xml:space="preserve"
     style="font-style:normal;font-variant:normal;font-weight:bold;font-stretch:normal;font-size:16px;line-height:1.25;font-family:Arial;-inkscape-font-specification:'Arial Bold';letter-spacing:0px;word-spacing:0px;fill:#ffffff;fill-opacity:1;stroke:none;stroke-linecap:square;stroke-miterlimit:10"
     x="512.70087"
     y="292.19107"
     id="text920-2"><tspan
       sodipodi:role="line"
       id="tspan918-4"
       x="512.70087"
       y="292.19107">24</tspan></text>
  <path
     sodipodi:type="star"
     style="opacity:1;fill:#bababa;fill-opacity:1;stroke:#000000;stroke-width:1.46500003;stroke-linecap:round;stroke-linejoin:round;stroke-miterlimit:4;stroke-dasharray:none;stroke-dashoffset:0;stroke-opacity:1"
     id="path1645-5-3"
     sodipodi:sides="5"
     sodipodi:cx="304.84036"
     sodipodi:cy="259.08319"
     sodipodi:r1="10.301575"
     sodipodi:r2="5.1507874"
     sodipodi:arg1="0.98279372"
     sodipodi:arg2="1.6111123"
     inkscape:flatsided="false"
     inkscape:rounded="0"
     inkscape:randomized="0"
     d="m 310.55465,267.65462 -5.92189,-3.42483 -6.1785,2.93673 1.42724,-6.69038 -4.70225,-4.96861 6.80397,-0.71005 3.27235,-6.00749 2.77784,6.25154 6.72468,1.25577 -5.08717,4.57372 z"
     inkscape:transform-center-x="-0.12830542"
     inkscape:transform-center-y="-0.86088784" />
  <text
     xml:space="preserve"
     style="font-style:normal;font-variant:normal;font-weight:normal;font-stretch:normal;font-size:13.33333302px;line-height:1.25;font-family:Arial;-inkscape-font-specification:Arial;letter-spacing:0px;word-spacing:0px;fill:#000000;fill-opacity:1;stroke:none"
     x="38.952011"
     y="27.683216"
     id="text925"><tspan
       sodipodi:role="line"
       id="tspan923"
       x="38.952011"
       y="27.683216">WP0</tspan></text>
  <text
     xml:space="preserve"
     style="font-style:normal;font-variant:normal;font-weight:normal;font-stretch:normal;font-size:13.33333302px;line-height:1.25;font-family:Arial;-inkscape-font-specification:Arial;letter-spacing:0px;word-spacing:0px;fill:#000000;fill-opacity:1;stroke:none"
     x="38.95224"
     y="55.267128"
     id="text929"><tspan
       sodipodi:role="line"
       id="tspan927"
       x="38.95224"
       y="55.267128">WP1</tspan></text>
  <text
     xml:space="preserve"
     style="font-style:normal;font-variant:normal;font-weight:normal;font-stretch:normal;font-size:13.33333302px;line-height:1.25;font-family:Arial;-inkscape-font-specification:Arial;letter-spacing:0px;word-spacing:0px;fill:#000000;fill-opacity:1;stroke:none"
     x="38.95224"
     y="107.06019"
     id="text933"><tspan
       sodipodi:role="line"
       id="tspan931"
       x="38.95224"
       y="107.06019">WP2</tspan></text>
  <text
     xml:space="preserve"
     style="font-style:normal;font-variant:normal;font-weight:normal;font-stretch:normal;font-size:13.33333302px;line-height:1.25;font-family:Arial;-inkscape-font-specification:Arial;letter-spacing:0px;word-spacing:0px;fill:#000000;fill-opacity:1;stroke:none"
     x="38.95224"
     y="160.43217"
     id="text937"><tspan
       sodipodi:role="line"
       id="tspan935"
       x="38.95224"
       y="160.43217">WP3</tspan></text>
  <text
     xml:space="preserve"
     style="font-style:normal;font-variant:normal;font-weight:normal;font-stretch:normal;font-size:13.33333302px;line-height:1.25;font-family:Arial;-inkscape-font-specification:Arial;letter-spacing:0px;word-spacing:0px;fill:#000000;fill-opacity:1;stroke:none"
     x="38.95224"
     y="212.85715"
     id="text941"><tspan
       sodipodi:role="line"
       id="tspan939"
       x="38.95224"
       y="212.85715">WP4</tspan></text>
  <text
     xml:space="preserve"
     style="font-style:normal;font-variant:normal;font-weight:normal;font-stretch:normal;font-size:13.33333302px;line-height:1.25;font-family:Arial;-inkscape-font-specification:Arial;letter-spacing:0px;word-spacing:0px;fill:#000000;fill-opacity:1;stroke:none"
     x="38.95224"
     y="291.07297"
     id="text945"><tspan
       sodipodi:role="line"
       id="tspan943"
       x="38.95224"
       y="291.07297">WP5</tspan></text>
  <text
     xml:space="preserve"
     style="font-style:normal;font-variant:normal;font-weight:bold;font-stretch:normal;font-size:13.33333302px;line-height:1.25;font-family:Arial;-inkscape-font-specification:'Arial Bold';letter-spacing:0px;word-spacing:0px;fill:#000000;fill-opacity:1;stroke:none"
     x="38.17099"
     y="80.110954"
     id="text949"><tspan
       sodipodi:role="line"
       id="tspan947"
       x="38.17099"
       y="80.110954">MS1</tspan></text>
  <text
     xml:space="preserve"
     style="font-style:normal;font-variant:normal;font-weight:bold;font-stretch:normal;font-size:13.33333302px;line-height:1.25;font-family:Arial;-inkscape-font-specification:'Arial Bold';letter-spacing:0px;word-spacing:0px;fill:#000000;fill-opacity:1;stroke:none"
     x="38.17099"
     y="133.79861"
     id="text953"><tspan
       sodipodi:role="line"
       id="tspan951"
       x="38.17099"
       y="133.79861">MS2</tspan></text>
  <text
     xml:space="preserve"
     style="font-style:normal;font-variant:normal;font-weight:bold;font-stretch:normal;font-size:13.33333302px;line-height:1.25;font-family:Arial;-inkscape-font-specification:'Arial Bold';letter-spacing:0px;word-spacing:0px;fill:#000000;fill-opacity:1;stroke:none"
     x="38.17099"
     y="185.59224"
     id="text957"><tspan
       sodipodi:role="line"
       id="tspan955"
       x="38.17099"
       y="185.59224">MS3</tspan></text>
  <text
     xml:space="preserve"
     style="font-style:normal;font-variant:normal;font-weight:bold;font-stretch:normal;font-size:13.33333302px;line-height:1.25;font-family:Arial;-inkscape-font-specification:'Arial Bold';letter-spacing:0px;word-spacing:0px;fill:#000000;fill-opacity:1;stroke:none"
     x="38.17099"
     y="237.17448"
     id="text961"><tspan
       sodipodi:role="line"
       id="tspan959"
       x="38.17099"
       y="237.17448">MS4</tspan></text>
  <text
     xml:space="preserve"
     style="font-style:normal;font-variant:normal;font-weight:normal;font-stretch:normal;font-size:13.33333302px;line-height:1.25;font-family:Arial;-inkscape-font-specification:Arial;letter-spacing:0px;word-spacing:0px;fill:#000000;fill-opacity:1;stroke:none"
     x="38.17099"
     y="262.75507"
     id="text965"><tspan
       sodipodi:role="line"
       id="tspan963"
       x="38.17099"
       y="262.75507"
       style="font-style:normal;font-variant:normal;font-weight:bold;font-stretch:normal;font-family:Arial;-inkscape-font-specification:'Arial Bold'">MS5</tspan></text>
</svg>
